<svg id="svg" version="1.1" xmlns="http://www.w3.org/2000/svg" xmlns:xlink="http://www.w3.org/1999/xlink" width="400" height="400" viewBox="0, 0, 400,400"><g id="svgg"><path id="path0" d="M0.000 200.000 L 0.000 400.000 200.000 400.000 L 400.000 400.000 400.000 200.000 L 400.000 0.000 200.000 0.000 L 0.000 0.000 0.000 200.000 M224.440 105.261 C 225.188 105.515,226.297 106.069,226.905 106.492 L 228.010 107.261 227.198 108.294 C 226.751 108.862,226.108 110.281,225.769 111.448 C 224.986 114.142,223.543 115.392,220.505 116.008 C 217.408 116.635,216.425 117.060,216.129 117.897 C 215.599 119.397,214.166 120.412,211.168 121.410 C 208.539 122.286,207.923 122.665,207.237 123.828 C 206.379 125.281,205.668 125.703,202.894 126.403 C 201.575 126.736,200.967 127.185,200.212 128.382 C 199.205 129.976,196.884 131.152,193.558 131.754 C 192.343 131.973,192.017 132.265,191.493 133.600 C 190.845 135.250,190.224 135.663,187.279 136.407 C 186.332 136.647,185.252 137.197,184.879 137.631 C 182.556 140.330,182.202 140.537,178.177 141.572 C 176.901 141.900,176.409 142.292,175.881 143.399 C 175.164 144.903,174.195 145.455,170.300 146.578 C 167.437 147.403,167.415 147.302,171.128 150.238 C 174.259 152.713,175.575 153.328,178.800 153.818 C 180.205 154.031,180.961 154.465,182.245 155.795 C 183.150 156.733,185.094 158.173,186.566 158.996 C 188.038 159.819,189.535 160.967,189.894 161.546 C 190.810 163.027,192.474 164.800,192.949 164.800 C 193.534 164.800,195.200 166.457,195.200 167.038 C 195.200 167.312,196.174 168.405,197.364 169.468 C 198.555 170.531,200.183 172.353,200.984 173.519 C 201.784 174.684,203.163 176.292,204.048 177.091 C 205.617 178.508,207.200 181.026,207.200 182.104 C 207.200 182.398,207.804 182.858,208.543 183.125 C 210.199 183.724,210.959 184.565,211.574 186.479 C 212.000 187.809,212.221 187.984,213.758 188.215 C 216.152 188.574,216.412 188.821,216.729 191.039 C 217.412 195.813,217.937 192.522,217.629 185.400 C 217.384 179.732,219.744 170.838,221.506 170.792 C 221.668 170.788,223.281 169.373,225.091 167.647 C 228.361 164.530,228.856 164.261,232.900 163.415 C 233.602 163.268,234.354 162.623,234.981 161.630 C 236.296 159.548,237.748 159.131,243.603 159.156 C 249.640 159.181,251.500 158.832,253.447 157.305 C 256.122 155.208,257.343 155.000,267.000 155.000 C 276.951 155.000,277.963 155.137,280.511 156.824 C 282.281 157.997,282.573 158.051,289.942 158.586 C 298.258 159.189,299.661 159.577,301.004 161.651 C 301.677 162.690,302.299 163.017,304.804 163.650 C 308.573 164.601,309.358 165.195,310.997 168.332 C 311.725 169.724,312.682 171.254,313.124 171.732 C 313.625 172.274,314.072 173.574,314.313 175.192 L 314.699 177.785 313.050 179.330 C 309.148 182.986,305.130 182.979,304.008 179.314 C 303.230 176.773,302.793 176.158,301.410 175.658 C 300.502 175.330,299.857 174.705,299.376 173.689 C 298.515 171.871,297.834 171.340,295.982 171.043 C 294.570 170.818,293.300 169.778,292.476 168.175 C 291.970 167.190,289.598 166.573,284.056 165.984 C 279.374 165.486,275.464 164.378,273.645 163.035 C 270.613 160.794,258.734 160.389,256.526 162.451 C 254.271 164.556,252.542 165.100,246.478 165.613 C 241.209 166.058,241.204 166.060,238.107 169.157 C 236.563 170.701,235.176 171.695,234.127 172.009 C 232.642 172.454,232.462 172.666,231.805 174.746 C 228.190 186.185,231.697 193.169,241.568 194.190 C 244.526 194.495,247.735 195.611,248.956 196.759 C 250.279 198.002,252.941 198.385,263.124 198.801 C 275.743 199.316,278.281 199.742,280.662 201.745 C 281.925 202.808,281.884 202.800,292.513 203.983 C 296.481 204.425,298.447 205.194,299.199 206.597 C 299.745 207.618,301.607 208.512,304.142 208.972 C 305.190 209.162,306.280 209.823,307.542 211.033 C 315.128 218.307,315.565 218.788,315.948 220.279 C 318.361 229.679,316.960 242.626,313.278 244.950 C 312.291 245.574,311.369 246.624,310.828 247.742 C 309.784 249.898,309.712 249.956,306.297 251.372 C 304.398 252.159,303.234 252.947,302.384 254.021 C 301.122 255.614,300.022 256.004,295.041 256.623 C 293.424 256.824,292.838 257.138,291.687 258.420 C 289.591 260.755,289.344 260.785,271.600 260.880 C 240.709 261.043,241.732 261.118,239.359 258.527 C 238.191 257.252,237.766 257.082,234.539 256.598 C 229.347 255.821,228.913 255.658,227.599 253.999 C 226.744 252.919,225.627 252.176,223.700 251.406 C 220.308 250.050,220.351 250.089,218.874 247.094 C 218.150 245.625,217.265 244.436,216.722 244.200 C 211.370 241.878,214.768 229.732,221.259 227.984 C 222.103 227.757,223.703 227.005,224.815 226.315 C 228.156 224.237,230.214 225.690,230.658 230.440 C 230.931 233.362,230.426 235.491,229.194 236.605 C 228.430 237.297,228.433 237.323,229.410 238.484 C 229.954 239.132,230.503 240.143,230.628 240.731 C 231.095 242.925,231.626 243.639,233.331 244.371 C 234.556 244.896,235.223 245.490,235.595 246.388 C 236.291 248.068,237.332 248.662,240.025 248.916 C 243.152 249.212,245.055 250.109,246.018 251.741 C 247.229 253.792,253.002 254.390,271.684 254.396 C 284.719 254.401,287.320 254.028,288.622 251.964 C 289.830 250.051,290.460 249.717,294.494 248.849 C 296.296 248.462,297.881 247.894,298.051 247.575 C 298.220 247.259,298.593 246.460,298.879 245.800 C 299.215 245.025,300.028 244.298,301.173 243.749 C 303.517 242.625,303.667 242.116,303.903 234.494 C 304.188 225.267,303.450 223.692,297.487 220.800 C 295.512 219.842,294.437 219.056,294.083 218.311 C 293.437 216.948,292.117 216.581,285.800 216.010 C 280.178 215.502,274.755 214.306,273.258 213.245 C 271.588 212.060,268.489 211.637,258.253 211.200 C 247.064 210.721,243.601 210.139,241.825 208.440 C 239.828 206.529,233.022 205.634,229.203 206.781 C 223.946 208.358,211.990 206.171,210.728 203.401 C 210.259 202.373,207.592 200.400,206.671 200.400 C 205.987 200.400,204.979 199.277,204.628 198.125 C 204.352 197.219,201.857 194.800,201.198 194.800 C 200.993 194.800,200.197 193.820,199.431 192.621 C 198.665 191.423,197.591 190.150,197.045 189.793 C 196.500 189.435,195.283 188.121,194.342 186.871 C 193.401 185.622,191.677 183.576,190.511 182.324 C 189.306 181.032,188.284 179.518,188.144 178.821 C 187.952 177.862,187.530 177.430,186.220 176.850 C 184.979 176.301,184.363 175.703,183.852 174.554 C 182.730 172.027,182.603 171.873,181.291 171.427 C 179.666 170.875,179.254 170.432,178.610 168.550 C 178.167 167.253,177.795 166.901,176.340 166.394 C 174.900 165.892,174.425 165.448,173.587 163.821 C 172.662 162.024,172.403 161.815,170.587 161.399 C 167.643 160.723,165.804 159.610,164.384 157.645 L 163.115 155.890 160.161 156.140 C 155.113 156.566,155.600 154.286,155.600 177.477 C 155.600 197.905,155.624 198.277,157.105 200.659 C 157.619 201.487,157.724 201.498,159.919 200.974 C 161.664 200.557,166.422 200.425,180.165 200.414 L 198.130 200.400 199.841 201.403 C 201.329 202.275,201.586 202.632,201.812 204.140 C 202.237 206.972,201.971 207.694,200.130 208.708 L 198.459 209.627 177.730 209.613 C 160.707 209.602,156.182 209.482,152.428 208.944 C 148.421 208.369,147.532 208.357,145.228 208.844 C 143.229 209.266,138.290 209.410,124.585 209.443 C 114.676 209.467,105.586 209.609,104.385 209.759 C 99.366 210.383,96.756 208.708,96.237 204.525 C 95.718 200.348,96.217 200.263,120.339 200.456 L 137.701 200.595 138.685 199.320 L 139.668 198.044 139.618 154.982 C 139.560 106.100,139.290 110.012,142.911 107.361 C 146.468 104.758,148.912 104.719,152.352 107.211 C 155.752 109.674,155.597 108.615,155.599 129.309 L 155.600 147.617 156.647 148.094 C 157.580 148.519,157.774 148.464,158.430 147.586 C 160.478 144.843,160.898 144.442,161.977 144.205 C 163.270 143.921,163.794 143.411,164.753 141.503 C 165.460 140.098,166.225 139.612,169.706 138.365 C 171.419 137.750,172.169 137.234,172.625 136.351 C 173.319 135.009,175.377 133.604,176.651 133.601 C 177.599 133.600,178.196 133.005,179.153 131.108 C 179.659 130.105,180.349 129.617,182.310 128.874 C 184.151 128.176,184.977 127.617,185.412 126.777 C 186.091 125.463,188.634 123.867,191.072 123.225 C 192.477 122.855,192.818 122.559,193.211 121.367 C 193.671 119.972,193.955 119.770,197.303 118.449 C 197.939 118.199,198.698 117.403,199.095 116.569 C 199.637 115.433,200.309 114.887,202.241 114.010 C 203.875 113.270,204.940 112.486,205.421 111.673 C 206.115 110.498,210.955 107.600,212.223 107.600 C 212.521 107.600,213.414 107.159,214.208 106.621 C 215.001 106.082,216.494 105.528,217.525 105.389 C 218.556 105.251,219.580 105.075,219.800 105.000 C 220.703 104.691,223.167 104.829,224.440 105.261 M144.346 219.900 C 145.189 220.700,145.682 221.759,146.157 223.785 C 147.202 228.242,148.628 228.083,149.600 223.402 C 150.169 220.661,151.802 219.074,153.743 219.375 C 154.434 219.482,156.800 219.684,159.000 219.824 C 163.500 220.110,164.169 220.458,164.812 222.845 C 165.316 224.716,167.149 227.011,167.699 226.461 C 167.913 226.247,168.427 224.847,168.843 223.348 C 170.397 217.743,174.687 217.338,176.232 222.650 C 176.595 223.901,177.398 225.433,178.042 226.107 C 180.688 228.875,178.798 231.191,173.887 231.198 C 173.055 231.199,171.739 231.466,170.962 231.790 L 169.549 232.380 170.585 233.490 C 171.154 234.101,171.828 235.286,172.081 236.126 C 172.458 237.374,172.692 237.615,173.371 237.453 C 173.827 237.344,174.882 237.131,175.716 236.980 C 176.930 236.760,177.381 236.416,177.978 235.252 C 179.619 232.053,180.435 231.494,184.200 230.989 L 187.646 230.527 188.831 231.963 C 191.556 235.266,191.398 240.817,188.549 241.898 C 184.354 243.490,181.123 242.599,178.398 239.100 C 176.562 236.741,174.000 237.872,174.000 241.042 C 174.000 243.878,172.762 244.518,170.600 242.800 C 169.769 242.140,168.668 241.600,168.151 241.600 C 165.839 241.600,164.606 239.600,164.534 235.733 C 164.472 232.413,164.407 232.165,163.461 231.613 C 161.647 230.556,160.944 231.723,160.711 236.180 C 160.205 245.852,155.126 246.078,154.179 236.470 C 153.866 233.284,153.888 233.320,150.067 229.770 C 147.702 227.571,147.506 227.468,147.094 228.204 C 146.852 228.637,145.889 229.808,144.955 230.807 L 143.256 232.623 146.193 233.944 C 149.785 235.561,150.346 236.488,149.604 239.582 C 148.881 242.598,147.794 243.819,146.555 243.007 C 146.027 242.661,144.662 242.201,143.521 241.985 C 138.960 241.120,137.565 236.773,140.808 233.530 L 141.958 232.380 139.807 230.952 C 136.896 229.019,132.751 230.285,133.846 232.773 C 135.778 237.158,135.770 240.812,133.825 242.757 L 132.827 243.755 131.110 242.898 C 130.166 242.426,128.585 241.925,127.597 241.784 C 124.700 241.372,123.255 240.804,122.992 239.975 C 122.696 239.043,122.508 239.029,120.662 239.800 C 119.872 240.130,118.805 240.400,118.291 240.400 C 117.742 240.400,116.789 240.991,115.978 241.834 C 113.520 244.392,112.545 244.673,111.275 243.190 C 110.684 242.500,109.648 241.295,108.974 240.514 L 107.747 239.093 105.230 240.947 C 102.373 243.049,102.485 243.015,101.287 242.176 C 98.475 240.206,98.433 233.587,101.220 231.520 C 102.543 230.538,103.011 230.778,105.332 233.628 C 107.627 236.446,107.486 236.420,109.515 234.391 C 111.307 232.599,111.756 230.715,111.785 224.851 C 111.812 219.478,117.253 217.213,121.396 220.850 L 122.806 222.088 126.303 221.261 C 133.198 219.631,133.279 219.643,134.782 222.566 C 136.283 225.483,137.443 226.001,138.240 224.110 C 140.516 218.709,142.008 217.680,144.346 219.900 M200.155 230.790 C 203.987 231.418,204.134 231.692,203.810 237.600 C 203.490 243.435,203.382 243.600,199.909 243.600 C 196.079 243.600,194.397 241.802,194.402 237.713 C 194.406 234.557,196.191 230.391,197.536 230.402 C 197.681 230.404,198.860 230.578,200.155 230.790 M90.211 231.420 C 94.726 232.596,96.854 236.415,94.996 240.008 C 94.015 241.904,88.266 243.847,86.921 242.737 C 84.330 240.599,84.103 234.351,86.519 231.700 C 87.495 230.630,87.250 230.648,90.211 231.420 M121.000 231.223 C 120.120 231.405,118.669 231.564,117.776 231.577 C 113.683 231.635,114.766 234.053,119.324 235.033 C 120.466 235.278,121.715 235.615,122.100 235.782 C 122.630 236.012,122.800 235.898,122.800 235.313 C 122.800 234.477,124.353 232.800,125.126 232.800 C 126.104 232.800,125.550 231.938,124.213 231.380 C 123.450 231.061,122.775 230.821,122.713 230.846 C 122.651 230.871,121.880 231.041,121.000 231.223 M200.464 254.340 C 204.511 256.482,204.278 258.814,199.894 260.050 C 197.944 260.599,103.960 260.876,99.821 260.344 C 95.642 259.807,94.146 257.714,96.198 255.276 C 97.831 253.334,97.746 253.337,149.531 253.308 L 198.462 253.280 200.464 254.340 " stroke="none" fill="#e4e4e4" fill-rule="evenodd"></path><path id="path1" d="M145.689 111.177 L 144.400 112.355 144.400 155.527 C 144.400 193.233,144.323 198.919,143.789 200.432 C 142.656 203.643,145.614 205.289,150.265 204.036 C 153.234 203.237,153.446 202.858,152.244 200.487 L 151.200 198.427 151.200 179.833 C 151.200 155.725,151.151 155.920,157.613 153.996 C 162.024 152.682,161.929 151.446,157.363 150.739 C 154.593 150.310,152.792 149.622,151.518 148.506 C 150.889 147.955,150.854 146.547,151.065 130.055 L 151.293 112.200 149.567 111.100 C 147.417 109.731,147.270 109.734,145.689 111.177 M213.752 110.370 C 211.854 110.681,210.262 111.627,208.887 113.262 C 208.357 113.892,206.628 115.030,205.046 115.791 C 203.336 116.613,201.793 117.683,201.242 118.428 C 200.732 119.118,199.548 120.022,198.610 120.437 C 196.658 121.300,195.966 122.015,195.401 123.752 C 195.121 124.611,194.638 125.089,193.800 125.334 C 190.438 126.319,189.079 127.490,190.004 128.605 C 190.900 129.685,196.400 128.491,196.400 127.217 C 196.400 126.652,199.461 124.868,201.246 124.393 C 203.211 123.869,204.220 123.108,205.035 121.532 C 205.449 120.731,206.418 120.143,208.894 119.188 C 211.220 118.292,212.615 117.470,213.600 116.417 C 214.541 115.410,215.721 114.694,217.200 114.233 C 223.255 112.343,220.506 109.264,213.752 110.370 M184.400 130.988 C 180.241 132.409,180.551 134.377,184.888 134.082 C 187.963 133.873,189.274 132.938,188.831 131.270 C 188.469 129.910,187.699 129.861,184.400 130.988 M176.262 136.731 C 175.392 137.693,175.420 137.864,176.581 138.624 C 177.657 139.330,180.000 138.441,180.000 137.328 C 180.000 136.039,177.281 135.605,176.262 136.731 M170.800 142.400 C 170.345 142.694,170.514 142.789,171.500 142.794 C 172.215 142.797,172.800 142.620,172.800 142.400 C 172.800 141.892,171.586 141.892,170.800 142.400 M162.006 147.700 C 162.014 148.349,162.786 149.556,162.794 148.933 C 162.797 148.676,162.909 148.181,163.043 147.833 C 163.202 147.418,163.065 147.200,162.643 147.200 C 162.289 147.200,162.003 147.425,162.006 147.700 M171.386 155.576 C 169.055 156.534,169.224 157.593,171.928 158.964 C 173.893 159.961,175.030 161.006,175.775 162.501 C 176.021 162.993,176.986 163.818,177.921 164.334 C 179.009 164.934,179.911 165.841,180.429 166.857 C 180.928 167.835,181.921 168.855,183.020 169.519 C 184.037 170.133,185.071 171.163,185.430 171.919 C 185.775 172.647,186.936 173.874,188.009 174.645 C 189.083 175.416,190.078 176.416,190.221 176.866 C 190.364 177.316,191.498 178.727,192.740 180.001 C 193.983 181.275,196.350 183.883,198.000 185.797 C 204.377 193.193,208.734 197.641,211.511 199.592 C 213.100 200.708,214.400 201.794,214.400 202.005 C 214.400 204.360,222.181 205.179,225.975 203.223 C 227.996 202.180,229.621 202.241,235.600 203.583 C 237.470 204.003,240.628 204.607,242.618 204.924 C 244.608 205.242,247.398 205.995,248.818 206.597 C 252.239 208.048,255.862 208.688,262.400 208.994 C 275.820 209.624,279.562 210.180,283.297 212.098 C 284.930 212.937,286.757 213.441,289.615 213.840 C 293.737 214.416,296.022 215.276,297.358 216.753 C 297.775 217.214,299.438 218.317,301.054 219.204 C 304.580 221.139,304.863 221.534,306.203 226.400 C 306.779 228.490,307.508 230.677,307.824 231.260 C 308.340 232.213,308.297 232.698,307.396 236.060 C 306.844 238.117,306.189 240.790,305.938 242.000 C 305.418 244.514,304.655 245.600,303.408 245.600 C 301.937 245.600,300.575 247.388,301.125 248.596 C 302.155 250.856,306.349 248.727,309.223 244.486 C 310.374 242.789,311.651 241.164,312.060 240.876 C 313.689 239.728,314.150 238.025,314.325 232.498 C 314.648 222.303,314.616 222.213,308.672 216.475 C 303.277 211.269,302.711 210.800,301.818 210.800 C 300.095 210.800,295.916 209.269,294.849 208.247 C 293.569 207.021,290.370 206.145,285.932 205.806 C 278.873 205.266,272.609 204.114,270.271 202.924 C 268.523 202.035,263.263 201.275,255.665 200.814 C 247.824 200.339,243.682 199.549,242.090 198.225 C 240.465 196.874,239.704 196.557,236.243 195.792 C 229.881 194.386,224.355 185.582,226.816 180.776 C 228.054 178.358,229.635 172.479,229.351 171.349 C 228.845 169.331,225.405 170.664,224.603 173.189 C 224.492 173.540,223.860 174.147,223.198 174.537 C 221.299 175.659,220.793 177.115,220.564 182.109 C 220.224 189.560,220.773 194.483,222.010 195.075 C 222.566 195.340,223.425 195.988,223.919 196.514 L 224.817 197.470 223.980 198.535 C 222.725 200.130,221.516 199.676,220.236 197.128 C 219.968 196.597,219.028 196.018,217.800 195.631 C 216.141 195.108,215.595 194.677,214.600 193.107 C 213.930 192.050,212.816 190.933,212.078 190.578 C 211.311 190.209,210.257 189.129,209.563 188.001 C 208.906 186.934,207.761 185.702,207.018 185.264 C 206.275 184.825,205.052 183.507,204.301 182.333 C 203.549 181.160,202.494 179.966,201.957 179.680 C 201.419 179.395,200.498 178.405,199.909 177.480 C 198.052 174.563,186.231 162.618,183.486 160.884 C 182.099 160.008,180.473 158.647,179.872 157.858 C 178.742 156.378,177.526 155.880,174.000 155.457 C 173.010 155.338,171.834 155.392,171.386 155.576 M288.000 161.064 C 285.941 161.383,283.600 162.116,283.600 162.441 C 283.600 162.909,287.319 163.906,290.200 164.210 C 294.001 164.611,295.109 165.074,295.396 166.381 C 295.695 167.744,296.404 168.395,298.835 169.542 C 299.844 170.018,300.917 170.872,301.221 171.439 C 301.524 172.005,302.456 173.011,303.293 173.673 C 304.154 174.356,305.256 175.814,305.836 177.039 C 306.990 179.479,307.749 179.744,309.189 178.212 C 312.233 174.972,306.715 165.653,301.716 165.591 C 300.565 165.577,297.798 164.177,296.759 163.083 C 295.096 161.333,291.545 160.515,288.000 161.064 M231.189 166.667 C 230.645 167.034,230.139 167.381,230.063 167.437 C 229.611 167.777,230.592 169.161,231.435 169.373 C 233.621 169.922,235.703 167.340,233.781 166.464 C 232.468 165.866,232.365 165.874,231.189 166.667 M172.144 222.602 C 172.006 222.960,172.074 223.434,172.293 223.653 C 172.559 223.919,172.765 223.777,172.909 223.227 C 173.170 222.228,172.498 221.679,172.144 222.602 M221.482 231.207 C 220.897 231.667,220.045 232.887,219.589 233.917 C 219.134 234.947,218.389 236.186,217.935 236.669 C 217.115 237.542,217.115 237.557,217.881 238.674 C 218.306 239.293,219.526 241.543,220.592 243.674 C 222.661 247.811,222.876 247.992,228.110 249.968 C 228.720 250.199,229.575 250.990,230.009 251.726 C 231.113 253.596,232.128 254.014,235.812 254.113 C 241.801 254.275,242.777 252.387,237.471 250.904 C 236.123 250.527,234.775 249.842,234.271 249.277 C 232.912 247.753,231.771 246.683,230.395 245.640 C 229.698 245.112,228.927 244.212,228.681 243.640 C 228.436 243.068,227.558 241.846,226.731 240.924 C 224.383 238.306,224.259 236.699,226.184 233.861 L 227.189 232.381 225.894 231.592 C 225.182 231.158,224.390 230.802,224.133 230.801 C 223.876 230.801,223.413 230.703,223.106 230.585 C 222.798 230.467,222.067 230.747,221.482 231.207 M186.857 237.163 C 186.455 237.413,186.436 237.575,186.784 237.790 C 187.333 238.129,187.745 237.829,187.542 237.238 C 187.458 236.996,187.176 236.965,186.857 237.163 M294.853 251.853 C 293.265 252.546,293.342 252.680,295.746 253.404 C 297.396 253.900,297.654 253.885,298.452 253.239 C 300.516 251.567,297.857 250.542,294.853 251.853 M246.629 257.137 C 245.373 257.663,246.805 258.005,250.133 257.972 C 253.452 257.939,255.797 257.274,252.756 257.228 C 251.742 257.213,250.122 257.113,249.156 257.007 C 248.190 256.901,247.053 256.959,246.629 257.137 " stroke="none" fill="#2d2d2d" fill-rule="evenodd"></path><path id="path2" d="M144.666 110.425 L 142.820 112.051 143.003 154.820 C 143.144 187.525,143.075 197.850,142.708 198.695 C 142.444 199.303,141.819 200.468,141.319 201.284 L 140.411 202.767 141.705 203.728 C 145.039 206.203,151.508 206.274,153.919 203.862 L 154.913 202.869 153.856 200.230 L 152.800 197.592 152.829 179.696 C 152.868 156.115,152.832 156.303,157.581 154.937 C 158.802 154.586,160.497 153.947,161.349 153.516 C 162.496 152.937,163.508 152.768,165.250 152.867 C 167.679 153.004,168.365 152.679,166.586 152.232 C 165.443 151.945,164.800 150.631,164.800 148.583 C 164.800 145.766,162.192 145.280,160.785 147.835 C 159.726 149.758,158.268 150.231,155.796 149.451 C 152.326 148.357,152.529 149.669,152.784 130.000 C 153.031 110.899,153.116 111.636,150.493 109.973 C 147.976 108.377,146.898 108.461,144.666 110.425 M213.949 109.186 C 211.622 109.605,210.993 109.946,208.343 112.225 C 207.165 113.239,205.171 114.593,203.912 115.234 C 202.654 115.875,201.214 116.957,200.712 117.640 C 200.211 118.322,199.080 119.242,198.200 119.684 C 196.312 120.633,194.400 122.336,194.400 123.069 C 194.400 123.355,193.315 124.136,191.989 124.806 C 190.662 125.475,188.834 126.724,187.925 127.580 C 187.016 128.436,185.536 129.442,184.636 129.816 C 181.498 131.120,181.193 131.346,180.519 132.874 C 179.981 134.094,179.530 134.496,178.339 134.817 C 174.970 135.724,172.928 139.215,175.403 139.836 C 177.393 140.336,179.278 139.622,181.196 137.642 C 182.571 136.224,183.524 135.628,185.014 135.253 C 187.925 134.521,188.889 133.945,189.960 132.299 C 190.578 131.348,191.432 130.657,192.360 130.357 C 194.645 129.619,196.873 128.394,198.572 126.943 C 199.437 126.204,200.346 125.600,200.593 125.600 C 201.673 125.600,205.069 123.512,205.800 122.399 C 206.390 121.500,207.370 120.894,209.537 120.090 C 211.525 119.352,213.020 118.469,214.160 117.358 C 215.181 116.363,216.783 115.367,218.223 114.831 C 225.701 112.050,222.383 107.668,213.949 109.186 M149.567 111.100 L 151.293 112.200 151.065 130.055 C 150.854 146.547,150.889 147.955,151.518 148.506 C 152.792 149.622,154.593 150.310,157.363 150.739 C 161.929 151.446,162.024 152.682,157.613 153.996 C 151.151 155.920,151.200 155.725,151.200 179.833 L 151.200 198.427 152.244 200.487 C 153.446 202.858,153.234 203.237,150.265 204.036 C 145.614 205.289,142.656 203.643,143.789 200.432 C 144.323 198.919,144.400 193.233,144.400 155.527 L 144.400 112.355 145.689 111.177 C 147.270 109.734,147.417 109.731,149.567 111.100 M219.694 111.176 C 221.272 112.596,220.871 113.087,217.200 114.233 C 215.721 114.694,214.541 115.410,213.600 116.417 C 212.615 117.470,211.220 118.292,208.894 119.188 C 206.418 120.143,205.449 120.731,205.035 121.532 C 204.220 123.108,203.211 123.869,201.246 124.393 C 199.461 124.868,196.400 126.652,196.400 127.217 C 196.400 128.491,190.900 129.685,190.004 128.605 C 189.079 127.490,190.438 126.319,193.800 125.334 C 194.638 125.089,195.121 124.611,195.401 123.752 C 195.966 122.015,196.658 121.300,198.610 120.437 C 199.548 120.022,200.732 119.118,201.242 118.428 C 201.793 117.683,203.336 116.613,205.046 115.791 C 206.628 115.030,208.357 113.892,208.887 113.262 C 211.621 110.013,217.204 108.935,219.694 111.176 M188.831 131.270 C 189.274 132.938,187.963 133.873,184.888 134.082 C 180.551 134.377,180.241 132.409,184.400 130.988 C 187.699 129.861,188.469 129.910,188.831 131.270 M179.226 136.414 C 180.332 137.006,180.184 137.719,178.781 138.547 C 176.842 139.693,174.869 138.271,176.262 136.731 C 177.004 135.911,178.073 135.797,179.226 136.414 M169.468 141.082 C 165.511 142.134,165.971 144.000,170.187 144.000 C 172.974 144.000,174.170 143.212,173.932 141.533 C 173.765 140.355,172.634 140.241,169.468 141.082 M172.800 142.400 C 172.800 142.620,172.215 142.797,171.500 142.794 C 170.514 142.789,170.345 142.694,170.800 142.400 C 171.586 141.892,172.800 141.892,172.800 142.400 M163.043 147.833 C 162.909 148.181,162.797 148.676,162.794 148.933 C 162.786 149.556,162.014 148.349,162.006 147.700 C 162.003 147.425,162.289 147.200,162.643 147.200 C 163.065 147.200,163.202 147.418,163.043 147.833 M168.700 154.432 C 168.232 154.704,168.000 155.331,168.001 156.320 C 168.002 157.928,168.465 158.367,171.994 160.113 C 172.985 160.603,174.239 161.663,174.794 162.481 C 175.347 163.295,176.577 164.520,177.526 165.202 C 178.476 165.885,179.607 167.043,180.040 167.777 C 180.472 168.511,181.540 169.583,182.411 170.160 C 183.282 170.736,184.439 171.912,184.982 172.772 C 185.525 173.632,186.636 174.844,187.450 175.465 C 188.264 176.086,189.244 177.111,189.628 177.743 C 190.012 178.374,191.288 179.963,192.463 181.273 C 193.639 182.583,195.601 184.768,196.824 186.128 C 198.047 187.487,199.625 189.350,200.331 190.267 C 202.436 193.000,208.058 198.559,210.172 199.996 C 211.256 200.734,212.786 201.956,213.572 202.713 C 216.204 205.249,221.182 206.016,225.836 204.604 C 229.936 203.361,240.334 204.763,247.000 207.459 C 250.336 208.809,254.934 209.497,263.800 209.976 C 272.555 210.449,276.359 211.058,281.400 212.794 C 283.380 213.477,286.798 214.307,288.996 214.640 C 292.997 215.247,294.132 215.715,297.449 218.128 C 298.302 218.749,299.990 219.829,301.200 220.528 C 303.815 222.040,304.401 223.074,305.763 228.573 C 306.815 232.819,306.784 233.699,305.350 240.298 C 304.697 243.303,304.800 243.163,301.237 245.905 C 300.591 246.403,299.946 247.335,299.805 247.977 C 299.483 249.445,299.001 249.824,297.000 250.182 C 292.525 250.984,290.473 252.781,292.900 253.771 C 296.488 255.235,299.367 254.704,300.629 252.346 C 300.928 251.787,302.385 250.887,304.456 249.982 C 307.265 248.754,307.987 248.239,308.968 246.760 C 309.610 245.792,310.888 244.100,311.809 243.000 C 315.140 239.018,315.961 235.150,315.248 226.792 C 314.747 220.931,314.848 221.115,309.049 215.470 C 304.381 210.926,303.483 210.278,301.200 209.808 C 300.430 209.649,298.810 208.974,297.600 208.309 C 292.993 205.774,292.599 205.653,286.781 205.012 C 281.072 204.382,279.219 204.004,272.940 202.191 C 268.939 201.035,265.350 200.552,256.788 200.016 C 249.488 199.559,246.756 198.995,243.238 197.219 C 241.941 196.565,239.648 195.726,238.140 195.355 C 233.450 194.201,232.029 193.169,229.419 189.020 C 228.399 187.398,227.517 182.626,228.026 181.482 C 228.242 180.997,228.946 178.620,229.590 176.200 C 230.817 171.592,230.897 171.473,234.011 169.600 C 237.692 167.387,236.052 164.297,231.767 165.373 C 230.180 165.771,221.750 173.762,220.658 175.902 C 220.046 177.104,218.997 183.747,219.334 184.293 C 220.046 185.445,219.713 193.265,218.917 194.060 C 217.755 195.223,216.593 194.724,215.200 192.465 C 214.560 191.428,213.414 190.260,212.618 189.833 C 211.818 189.405,210.678 188.239,210.032 187.190 C 209.396 186.157,208.268 184.936,207.523 184.476 C 206.779 184.016,205.767 182.923,205.274 182.046 C 204.782 181.170,203.799 179.975,203.089 179.392 C 202.380 178.808,201.080 177.364,200.200 176.183 C 196.339 171.001,187.276 161.850,184.200 160.026 C 183.320 159.505,181.757 158.269,180.727 157.280 C 178.193 154.849,170.935 153.130,168.700 154.432 M177.289 156.049 C 178.263 156.295,179.157 156.921,179.872 157.858 C 180.473 158.647,182.099 160.008,183.486 160.884 C 186.231 162.618,198.052 174.563,199.909 177.480 C 200.498 178.405,201.419 179.395,201.957 179.680 C 202.494 179.966,203.549 181.160,204.301 182.333 C 205.052 183.507,206.275 184.825,207.018 185.264 C 207.761 185.702,208.906 186.934,209.563 188.001 C 210.257 189.129,211.311 190.209,212.078 190.578 C 212.816 190.933,213.930 192.050,214.600 193.107 C 215.595 194.677,216.141 195.108,217.800 195.631 C 219.028 196.018,219.968 196.597,220.236 197.128 C 221.516 199.676,222.725 200.130,223.980 198.535 L 224.817 197.470 223.919 196.514 C 223.425 195.988,222.566 195.340,222.010 195.075 C 220.773 194.483,220.224 189.560,220.564 182.109 C 220.793 177.115,221.299 175.659,223.198 174.537 C 223.860 174.147,224.492 173.540,224.603 173.189 C 225.405 170.664,228.845 169.331,229.351 171.349 C 229.635 172.479,228.054 178.358,226.816 180.776 C 224.355 185.582,229.881 194.386,236.243 195.792 C 239.704 196.557,240.465 196.874,242.090 198.225 C 243.682 199.549,247.824 200.339,255.665 200.814 C 263.263 201.275,268.523 202.035,270.271 202.924 C 272.609 204.114,278.873 205.266,285.932 205.806 C 290.370 206.145,293.569 207.021,294.849 208.247 C 295.916 209.269,300.095 210.800,301.818 210.800 C 302.711 210.800,303.277 211.269,308.672 216.475 C 314.616 222.213,314.648 222.303,314.325 232.498 C 314.150 238.025,313.689 239.728,312.060 240.876 C 311.651 241.164,310.374 242.789,309.223 244.486 C 306.349 248.727,302.155 250.856,301.125 248.596 C 300.575 247.388,301.937 245.600,303.408 245.600 C 304.655 245.600,305.418 244.514,305.938 242.000 C 306.189 240.790,306.844 238.117,307.396 236.060 C 308.297 232.698,308.340 232.213,307.824 231.260 C 307.508 230.677,306.779 228.490,306.203 226.400 C 304.863 221.534,304.580 221.139,301.054 219.204 C 299.438 218.317,297.775 217.214,297.358 216.753 C 296.022 215.276,293.737 214.416,289.615 213.840 C 286.757 213.441,284.930 212.937,283.297 212.098 C 279.562 210.180,275.820 209.624,262.400 208.994 C 255.862 208.688,252.239 208.048,248.818 206.597 C 247.398 205.995,244.608 205.242,242.618 204.924 C 240.628 204.607,237.470 204.003,235.600 203.583 C 229.621 202.241,227.996 202.180,225.975 203.223 C 222.181 205.179,214.400 204.360,214.400 202.005 C 214.400 201.794,213.100 200.708,211.511 199.592 C 208.734 197.641,204.377 193.193,198.000 185.797 C 196.350 183.883,193.983 181.275,192.740 180.001 C 191.498 178.727,190.364 177.316,190.221 176.866 C 190.078 176.416,189.083 175.416,188.009 174.645 C 186.936 173.874,185.775 172.647,185.430 171.919 C 185.071 171.163,184.037 170.133,183.020 169.519 C 181.921 168.855,180.928 167.835,180.429 166.857 C 179.911 165.841,179.009 164.934,177.921 164.334 C 176.986 163.818,176.021 162.993,175.775 162.501 C 175.030 161.006,173.893 159.961,171.928 158.964 C 169.710 157.839,169.354 157.379,170.052 156.538 C 171.167 155.194,173.325 155.048,177.289 156.049 M286.000 160.276 C 278.870 161.470,279.721 163.395,288.000 164.805 C 292.574 165.584,293.522 165.945,294.256 167.187 C 294.634 167.827,295.850 168.844,296.957 169.447 C 299.394 170.773,304.041 175.328,305.126 177.455 C 306.415 179.980,307.293 180.579,308.665 179.870 C 310.957 178.685,311.340 177.892,311.040 174.959 C 310.475 169.447,307.951 166.537,302.063 164.611 C 300.888 164.226,299.313 163.372,298.563 162.714 C 296.119 160.568,290.626 159.502,286.000 160.276 M293.886 161.437 C 294.939 161.787,296.231 162.528,296.759 163.083 C 297.798 164.177,300.565 165.577,301.716 165.591 C 306.715 165.653,312.233 174.972,309.189 178.212 C 307.749 179.744,306.990 179.479,305.836 177.039 C 305.256 175.814,304.154 174.356,303.293 173.673 C 302.456 173.011,301.524 172.005,301.221 171.439 C 300.917 170.872,299.844 170.018,298.835 169.542 C 296.404 168.395,295.695 167.744,295.396 166.381 C 295.109 165.074,294.001 164.611,290.200 164.210 C 284.623 163.622,282.337 162.433,285.300 161.661 C 289.095 160.674,291.410 160.613,293.886 161.437 M239.847 161.855 C 235.981 163.043,240.479 164.129,245.410 163.198 C 248.447 162.625,248.367 162.299,245.033 161.656 C 242.192 161.108,242.292 161.105,239.847 161.855 M233.781 166.464 C 235.703 167.340,233.621 169.922,231.435 169.373 C 230.592 169.161,229.611 167.777,230.063 167.437 C 232.109 165.901,232.387 165.829,233.781 166.464 M223.016 197.227 C 223.385 197.822,222.958 198.146,222.192 197.852 C 221.838 197.717,221.661 197.424,221.798 197.203 C 222.122 196.678,222.684 196.689,223.016 197.227 M171.749 221.629 C 171.045 222.333,170.978 222.726,171.238 224.640 C 171.816 228.899,173.492 228.844,173.878 224.553 C 174.148 221.559,173.166 220.211,171.749 221.629 M141.680 221.680 C 140.896 222.464,141.049 227.456,141.867 227.770 C 142.870 228.155,143.297 227.470,143.643 224.922 C 144.033 222.047,143.007 220.353,141.680 221.680 M116.480 222.080 C 115.743 222.817,115.867 227.190,116.649 228.054 C 118.083 229.639,119.483 228.086,119.288 225.127 C 119.085 222.043,117.853 220.707,116.480 222.080 M172.909 223.227 C 172.765 223.777,172.559 223.919,172.293 223.653 C 171.816 223.176,172.235 221.851,172.760 222.175 C 172.961 222.299,173.028 222.773,172.909 223.227 M221.000 230.389 C 220.340 230.815,218.926 232.607,217.858 234.369 L 215.916 237.575 216.759 239.287 C 217.223 240.229,218.549 242.620,219.707 244.600 L 221.811 248.200 225.155 249.824 C 227.015 250.727,228.850 251.930,229.291 252.535 C 230.565 254.285,232.009 254.765,237.131 255.147 C 242.330 255.534,242.800 255.671,242.800 256.795 C 242.800 259.298,249.931 259.757,260.600 257.941 L 263.400 257.464 260.226 256.958 C 257.262 256.486,249.292 255.710,245.200 255.495 C 243.433 255.402,243.398 255.373,243.277 253.918 C 243.132 252.174,241.914 251.265,238.370 250.254 C 236.136 249.617,229.200 243.730,229.200 242.471 C 229.200 242.213,228.598 241.327,227.862 240.501 C 225.376 237.710,225.361 237.114,227.704 233.945 C 230.098 230.707,224.831 227.913,221.000 230.389 M224.133 230.801 C 224.390 230.802,225.182 231.158,225.894 231.592 L 227.189 232.381 226.184 233.861 C 224.259 236.699,224.383 238.306,226.731 240.924 C 227.558 241.846,228.436 243.068,228.681 243.640 C 228.927 244.212,229.698 245.112,230.395 245.640 C 231.771 246.683,232.912 247.753,234.271 249.277 C 234.775 249.842,236.123 250.527,237.471 250.904 C 242.777 252.387,241.801 254.275,235.812 254.113 C 232.128 254.014,231.113 253.596,230.009 251.726 C 229.575 250.990,228.720 250.199,228.110 249.968 C 222.876 247.992,222.661 247.811,220.592 243.674 C 219.526 241.543,218.306 239.293,217.881 238.674 C 217.115 237.557,217.115 237.542,217.935 236.669 C 218.389 236.186,219.134 234.947,219.589 233.917 C 220.491 231.878,222.216 230.244,223.106 230.585 C 223.413 230.703,223.876 230.801,224.133 230.801 M185.938 235.416 C 181.413 237.012,181.583 237.923,186.678 239.387 C 188.048 239.781,189.065 238.006,188.395 236.389 C 187.752 234.835,187.674 234.804,185.938 235.416 M141.762 236.202 C 140.268 238.481,142.184 239.862,144.986 238.526 C 146.811 237.656,146.780 237.534,144.419 236.249 L 142.438 235.171 141.762 236.202 M156.763 236.297 C 156.450 237.121,156.487 237.690,156.914 238.591 L 157.481 239.790 158.102 238.590 C 158.646 237.538,158.651 237.256,158.148 236.295 C 157.433 234.930,157.283 234.930,156.763 236.297 M196.815 236.364 C 195.918 238.529,197.288 239.912,198.816 238.384 L 199.632 237.568 198.789 236.384 C 197.736 234.905,197.421 234.902,196.815 236.364 M126.489 236.506 L 125.588 237.465 126.414 238.213 C 127.590 239.277,132.800 238.735,132.800 237.549 C 132.800 237.076,130.713 236.169,128.795 235.810 C 127.631 235.592,127.235 235.711,126.489 236.506 M166.911 236.516 C 166.330 237.791,167.264 239.177,168.187 238.410 C 168.999 237.737,168.961 237.069,168.065 236.259 C 167.375 235.635,167.306 235.650,166.911 236.516 M102.256 237.078 C 101.805 237.528,101.981 238.000,102.600 238.000 C 102.930 238.000,103.200 237.831,103.200 237.624 C 103.200 237.119,102.575 236.758,102.256 237.078 M187.468 237.865 C 187.350 237.983,187.042 237.950,186.784 237.790 C 186.436 237.575,186.455 237.413,186.857 237.163 C 187.391 236.831,187.908 237.426,187.468 237.865 M299.079 251.862 C 299.597 253.212,297.828 254.030,295.746 253.404 C 293.342 252.680,293.265 252.546,294.853 251.853 C 296.738 251.031,298.762 251.035,299.079 251.862 M252.756 257.228 C 254.154 257.249,254.406 257.339,253.800 257.600 C 252.836 258.014,247.550 258.109,246.562 257.730 C 245.364 257.270,247.114 256.783,249.156 257.007 C 250.122 257.113,251.742 257.213,252.756 257.228 M274.800 257.172 L 270.600 257.400 274.000 257.726 C 278.466 258.153,288.231 257.928,288.101 257.400 C 287.989 256.943,281.176 256.827,274.800 257.172 M127.105 257.483 C 127.602 257.579,128.322 257.575,128.705 257.475 C 129.087 257.375,128.680 257.296,127.800 257.301 C 126.920 257.305,126.607 257.387,127.105 257.483 " stroke="none" fill="#747474" fill-rule="evenodd"></path><path id="path3" d="M220.000 107.853 C 212.862 108.490,210.682 109.231,207.239 112.191 C 206.051 113.212,204.237 114.475,203.208 114.996 C 202.180 115.517,200.866 116.562,200.290 117.318 C 199.713 118.074,198.418 119.079,197.413 119.552 C 196.318 120.067,195.146 121.044,194.492 121.989 C 193.778 123.020,192.639 123.929,191.200 124.615 C 189.990 125.192,188.317 126.325,187.482 127.132 C 186.647 127.940,184.847 129.140,183.482 129.800 C 181.853 130.587,180.682 131.481,180.075 132.400 C 179.517 133.245,178.407 134.135,177.275 134.646 C 175.245 135.561,173.849 136.881,173.422 138.291 C 173.213 138.979,172.455 139.401,170.087 140.148 C 166.706 141.214,165.743 142.123,166.175 143.844 C 166.765 146.192,173.586 144.789,174.914 142.047 C 175.272 141.309,176.024 140.859,177.762 140.344 C 179.424 139.852,180.616 139.162,181.787 138.013 C 182.985 136.837,184.220 136.132,186.210 135.490 C 188.529 134.742,189.163 134.333,190.185 132.926 C 191.162 131.580,191.892 131.083,193.909 130.390 C 195.428 129.869,197.229 128.837,198.472 127.776 C 199.602 126.811,201.377 125.740,202.417 125.394 C 203.644 124.987,204.853 124.167,205.860 123.060 C 207.018 121.788,208.105 121.110,210.130 120.395 C 212.037 119.721,213.412 118.893,214.745 117.616 C 216.041 116.373,217.352 115.572,218.875 115.092 C 222.191 114.047,223.201 113.106,223.195 111.071 C 223.187 108.700,222.815 107.589,222.053 107.664 C 221.694 107.699,220.770 107.784,220.000 107.853 M145.383 108.745 C 144.714 109.153,143.674 110.072,143.073 110.786 L 141.980 112.085 142.011 155.072 L 142.042 198.059 141.014 199.729 C 140.450 200.648,139.778 201.697,139.521 202.060 C 137.981 204.240,141.807 206.136,147.800 206.163 C 155.220 206.196,156.875 204.761,154.723 200.161 L 153.546 197.646 153.673 177.855 L 153.800 158.064 154.740 157.064 C 155.726 156.015,156.298 155.754,160.200 154.577 C 163.797 153.492,165.562 154.054,166.638 156.628 C 167.242 158.075,169.153 159.536,171.810 160.581 C 172.870 160.998,173.744 161.738,174.365 162.744 C 174.885 163.584,176.074 164.734,177.008 165.298 C 177.942 165.862,179.101 167.027,179.584 167.887 C 180.068 168.747,181.184 169.889,182.066 170.425 C 182.948 170.962,184.017 172.077,184.445 172.905 C 184.872 173.733,185.970 174.953,186.884 175.615 C 187.799 176.278,188.970 177.564,189.487 178.474 C 190.003 179.384,191.185 180.886,192.113 181.813 C 194.090 183.787,197.252 187.385,199.488 190.204 C 202.018 193.393,207.593 198.908,210.200 200.800 C 211.520 201.758,212.736 202.766,212.902 203.040 C 214.263 205.279,220.225 206.367,225.766 205.387 C 231.854 204.310,238.159 204.998,244.717 207.454 C 249.749 209.339,252.983 209.866,262.614 210.371 C 271.040 210.813,275.724 211.583,280.696 213.345 C 282.288 213.909,285.618 214.668,288.096 215.030 C 292.703 215.704,294.818 216.471,296.158 217.953 C 296.575 218.414,298.256 219.527,299.894 220.426 C 305.223 223.350,307.022 230.563,304.826 240.200 C 304.085 243.452,304.012 243.578,302.338 244.432 C 301.456 244.882,300.434 245.796,300.067 246.464 C 298.661 249.024,298.096 249.470,295.585 250.003 C 289.751 251.241,288.916 254.357,294.240 255.022 C 297.453 255.424,299.022 254.985,300.756 253.198 C 301.627 252.300,303.554 251.054,305.306 250.255 C 307.694 249.167,308.558 248.533,309.338 247.298 C 309.884 246.433,311.251 244.674,312.376 243.389 C 315.321 240.023,315.795 238.177,315.763 230.200 C 315.725 220.760,316.352 221.954,306.200 211.979 C 305.060 210.859,303.742 210.117,301.613 209.398 C 299.971 208.843,297.991 207.950,297.213 207.413 C 294.753 205.714,292.947 205.205,287.101 204.561 C 283.420 204.156,280.130 203.527,277.802 202.783 C 271.871 200.888,269.338 200.438,262.000 199.979 C 252.154 199.363,248.041 198.666,244.625 197.034 C 243.071 196.291,240.446 195.386,238.792 195.022 C 229.114 192.894,226.436 185.074,231.153 172.719 C 231.380 172.125,232.158 171.338,232.883 170.972 C 235.461 169.668,236.766 168.413,237.193 166.826 C 237.655 165.109,238.922 164.400,241.527 164.400 C 243.482 164.400,247.932 163.591,249.388 162.971 L 250.600 162.455 249.178 161.855 C 244.630 159.934,237.646 160.558,236.637 162.974 C 236.136 164.173,235.906 164.301,233.811 164.547 C 230.681 164.915,230.013 165.339,225.120 170.066 C 219.321 175.668,218.444 178.227,218.984 187.978 C 219.367 194.916,217.671 196.643,215.326 191.701 C 214.943 190.893,214.074 190.046,213.139 189.569 C 212.212 189.096,211.136 188.051,210.465 186.974 C 209.848 185.982,208.681 184.721,207.872 184.172 C 207.064 183.622,206.050 182.482,205.619 181.637 C 205.188 180.792,204.242 179.610,203.518 179.010 C 202.793 178.411,201.570 177.043,200.800 175.971 C 197.164 170.906,186.964 160.712,184.042 159.222 C 183.154 158.768,181.745 157.679,180.913 156.800 C 179.527 155.338,179.003 155.104,174.663 154.020 C 168.303 152.431,166.332 150.877,165.436 146.744 C 164.971 144.601,160.000 145.704,160.000 147.950 C 160.000 148.873,157.793 149.584,156.328 149.135 C 153.165 148.164,153.360 149.533,153.604 130.000 C 153.854 110.009,153.992 110.914,150.422 109.100 C 147.873 107.805,147.022 107.745,145.383 108.745 M150.493 109.973 C 153.116 111.636,153.031 110.899,152.784 130.000 C 152.529 149.669,152.326 148.357,155.796 149.451 C 158.268 150.231,159.726 149.758,160.785 147.835 C 162.192 145.280,164.800 145.766,164.800 148.583 C 164.800 150.631,165.443 151.945,166.586 152.232 C 168.365 152.679,167.679 153.004,165.250 152.867 C 163.508 152.768,162.496 152.937,161.349 153.516 C 160.497 153.947,158.802 154.586,157.581 154.937 C 152.832 156.303,152.868 156.115,152.829 179.696 L 152.800 197.592 153.856 200.230 L 154.913 202.869 153.919 203.862 C 151.508 206.274,145.039 206.203,141.705 203.728 L 140.411 202.767 141.319 201.284 C 141.819 200.468,142.444 199.303,142.708 198.695 C 143.075 197.850,143.144 187.525,143.003 154.820 L 142.820 112.051 144.666 110.425 C 146.898 108.461,147.976 108.377,150.493 109.973 M221.460 110.152 C 223.270 112.256,222.619 113.197,218.223 114.831 C 216.783 115.367,215.181 116.363,214.160 117.358 C 213.020 118.469,211.525 119.352,209.537 120.090 C 207.370 120.894,206.390 121.500,205.800 122.399 C 205.069 123.512,201.673 125.600,200.593 125.600 C 200.346 125.600,199.437 126.204,198.572 126.943 C 196.873 128.394,194.645 129.619,192.360 130.357 C 191.432 130.657,190.578 131.348,189.960 132.299 C 188.889 133.945,187.925 134.521,185.014 135.253 C 183.524 135.628,182.571 136.224,181.196 137.642 C 179.278 139.622,177.393 140.336,175.403 139.836 C 172.928 139.215,174.970 135.724,178.339 134.817 C 179.530 134.496,179.981 134.094,180.519 132.874 C 181.193 131.346,181.498 131.120,184.636 129.816 C 185.536 129.442,187.016 128.436,187.925 127.580 C 188.834 126.724,190.662 125.475,191.989 124.806 C 193.315 124.136,194.400 123.355,194.400 123.069 C 194.400 122.336,196.312 120.633,198.200 119.684 C 199.080 119.242,200.211 118.322,200.712 117.640 C 201.214 116.957,202.654 115.875,203.912 115.234 C 205.171 114.593,207.165 113.239,208.343 112.225 C 212.576 108.585,219.210 107.536,221.460 110.152 M173.932 141.533 C 174.170 143.212,172.974 144.000,170.187 144.000 C 165.971 144.000,165.511 142.134,169.468 141.082 C 172.634 140.241,173.765 140.355,173.932 141.533 M175.527 154.751 C 178.475 155.400,179.067 155.688,180.727 157.280 C 181.757 158.269,183.320 159.505,184.200 160.026 C 187.276 161.850,196.339 171.001,200.200 176.183 C 201.080 177.364,202.380 178.808,203.089 179.392 C 203.799 179.975,204.782 181.170,205.274 182.046 C 205.767 182.923,206.779 184.016,207.523 184.476 C 208.268 184.936,209.396 186.157,210.032 187.190 C 210.678 188.239,211.818 189.405,212.618 189.833 C 213.414 190.260,214.560 191.428,215.200 192.465 C 216.593 194.724,217.755 195.223,218.917 194.060 C 219.713 193.265,220.046 185.445,219.334 184.293 C 218.997 183.747,220.046 177.104,220.658 175.902 C 221.750 173.762,230.180 165.771,231.767 165.373 C 236.052 164.297,237.692 167.387,234.011 169.600 C 230.897 171.473,230.817 171.592,229.590 176.200 C 228.946 178.620,228.242 180.997,228.026 181.482 C 227.517 182.626,228.399 187.398,229.419 189.020 C 232.029 193.169,233.450 194.201,238.140 195.355 C 239.648 195.726,241.941 196.565,243.238 197.219 C 246.756 198.995,249.488 199.559,256.788 200.016 C 265.350 200.552,268.939 201.035,272.940 202.191 C 279.219 204.004,281.072 204.382,286.781 205.012 C 292.599 205.653,292.993 205.774,297.600 208.309 C 298.810 208.974,300.430 209.649,301.200 209.808 C 303.483 210.278,304.381 210.926,309.049 215.470 C 314.848 221.115,314.747 220.931,315.248 226.792 C 315.961 235.150,315.140 239.018,311.809 243.000 C 310.888 244.100,309.610 245.792,308.968 246.760 C 307.987 248.239,307.265 248.754,304.456 249.982 C 302.385 250.887,300.928 251.787,300.629 252.346 C 299.367 254.704,296.488 255.235,292.900 253.771 C 290.473 252.781,292.525 250.984,297.000 250.182 C 299.001 249.824,299.483 249.445,299.805 247.977 C 299.946 247.335,300.591 246.403,301.237 245.905 C 304.800 243.163,304.697 243.303,305.350 240.298 C 306.784 233.699,306.815 232.819,305.763 228.573 C 304.401 223.074,303.815 222.040,301.200 220.528 C 299.990 219.829,298.302 218.749,297.449 218.128 C 294.132 215.715,292.997 215.247,288.996 214.640 C 286.798 214.307,283.380 213.477,281.400 212.794 C 276.359 211.058,272.555 210.449,263.800 209.976 C 254.934 209.497,250.336 208.809,247.000 207.459 C 240.334 204.763,229.936 203.361,225.836 204.604 C 221.182 206.016,216.204 205.249,213.572 202.713 C 212.786 201.956,211.256 200.734,210.172 199.996 C 208.058 198.559,202.436 193.000,200.331 190.267 C 199.625 189.350,198.047 187.487,196.824 186.128 C 195.601 184.768,193.639 182.583,192.463 181.273 C 191.288 179.963,190.012 178.374,189.628 177.743 C 189.244 177.111,188.264 176.086,187.450 175.465 C 186.636 174.844,185.525 173.632,184.982 172.772 C 184.439 171.912,183.282 170.736,182.411 170.160 C 181.540 169.583,180.472 168.511,180.040 167.777 C 179.607 167.043,178.476 165.885,177.526 165.202 C 176.577 164.520,175.347 163.295,174.794 162.481 C 174.239 161.663,172.985 160.603,171.994 160.113 C 168.465 158.367,168.002 157.928,168.001 156.320 C 167.999 153.823,169.699 153.469,175.527 154.751 M264.200 157.600 C 265.847 158.019,270.025 158.019,271.000 157.600 C 271.507 157.382,270.191 157.263,267.400 157.275 C 264.559 157.288,263.425 157.403,264.200 157.600 M284.000 159.858 C 280.603 160.521,278.800 161.391,278.800 162.368 C 278.800 163.090,283.295 164.573,287.400 165.204 C 292.022 165.916,293.105 166.315,293.856 167.587 C 294.234 168.227,295.456 169.244,296.572 169.847 C 299.003 171.161,303.627 175.702,304.726 177.855 C 307.183 182.669,312.197 180.744,311.714 175.171 C 311.227 169.549,308.198 165.853,302.909 164.429 C 301.987 164.181,300.370 163.318,299.316 162.511 C 296.226 160.145,288.970 158.888,284.000 159.858 M294.763 160.758 C 296.103 161.175,297.812 162.055,298.563 162.714 C 299.313 163.372,300.888 164.226,302.063 164.611 C 307.951 166.537,310.475 169.447,311.040 174.959 C 311.591 180.340,307.483 182.073,305.126 177.455 C 304.041 175.328,299.394 170.773,296.957 169.447 C 295.850 168.844,294.634 167.827,294.256 167.187 C 293.522 165.945,292.574 165.584,288.000 164.805 C 283.712 164.075,280.282 162.824,280.814 162.184 C 282.423 160.245,290.472 159.422,294.763 160.758 M245.033 161.656 C 248.367 162.299,248.447 162.625,245.410 163.198 C 240.479 164.129,235.981 163.043,239.847 161.855 C 242.292 161.105,242.192 161.108,245.033 161.656 M221.798 197.203 C 221.661 197.424,221.838 197.717,222.192 197.852 C 222.958 198.146,223.385 197.822,223.016 197.227 C 222.684 196.689,222.122 196.678,221.798 197.203 M141.317 221.300 C 140.856 221.806,140.370 223.076,140.208 224.200 C 140.050 225.300,139.764 226.494,139.571 226.854 C 139.299 227.362,139.585 227.749,140.851 228.586 L 142.480 229.664 143.440 228.762 C 144.844 227.443,144.867 222.578,143.474 221.270 C 142.332 220.197,142.325 220.197,141.317 221.300 M171.270 221.326 C 169.449 223.264,170.317 228.839,172.431 228.786 C 174.391 228.737,175.003 227.768,174.863 224.933 C 174.667 220.946,173.102 219.375,171.270 221.326 M115.900 221.503 C 114.892 222.128,114.800 222.392,114.800 224.660 C 114.800 228.944,116.263 230.298,119.245 228.777 L 120.895 227.936 120.625 225.868 C 120.201 222.619,120.023 222.186,118.813 221.471 C 117.421 220.649,117.275 220.651,115.900 221.503 M173.878 224.553 C 173.492 228.844,171.816 228.899,171.238 224.640 C 170.978 222.726,171.045 222.333,171.749 221.629 C 173.166 220.211,174.148 221.559,173.878 224.553 M143.316 221.907 C 144.015 222.679,143.736 226.824,142.932 227.628 C 141.893 228.667,141.200 227.550,141.200 224.837 C 141.200 221.481,141.968 220.418,143.316 221.907 M118.484 222.100 C 119.742 223.086,119.663 227.547,118.376 228.212 C 116.751 229.053,116.000 228.021,116.000 224.949 C 116.000 221.900,116.906 220.862,118.484 222.100 M152.110 222.067 C 150.907 223.517,152.276 226.106,154.973 227.478 C 158.088 229.063,158.893 228.723,159.578 225.528 C 159.823 224.388,160.198 223.243,160.412 222.985 C 160.701 222.638,160.103 222.452,158.101 222.270 C 156.615 222.134,154.762 221.910,153.981 221.772 C 153.013 221.601,152.419 221.695,152.110 222.067 M224.600 228.773 C 218.172 229.447,213.952 236.367,216.961 241.300 C 221.715 249.094,221.179 248.474,224.656 250.200 C 226.430 251.080,228.502 252.463,229.262 253.273 C 230.793 254.905,230.944 254.957,236.540 255.761 C 239.722 256.218,240.685 256.519,241.540 257.325 C 244.007 259.645,249.562 260.180,259.015 259.006 C 262.769 258.540,266.386 258.466,275.800 258.662 C 288.992 258.937,290.585 258.695,289.085 256.648 C 288.458 255.791,287.131 255.767,274.000 256.375 C 269.930 256.564,265.070 256.569,263.200 256.388 C 261.330 256.206,256.805 255.777,253.145 255.434 C 245.397 254.707,245.565 254.754,244.164 252.918 C 243.024 251.422,240.815 250.250,238.246 249.777 C 237.140 249.573,236.081 248.900,234.576 247.445 C 233.412 246.320,231.903 244.890,231.221 244.266 C 230.540 243.643,229.738 242.563,229.439 241.866 C 229.140 241.170,228.334 239.983,227.647 239.228 C 226.088 237.512,226.093 237.373,227.800 234.972 C 228.570 233.889,229.196 232.732,229.191 232.401 C 229.178 231.518,227.692 228.390,227.320 228.461 C 227.144 228.495,225.920 228.635,224.600 228.773 M227.194 229.997 C 228.365 230.623,228.632 232.690,227.704 233.945 C 225.361 237.114,225.376 237.710,227.862 240.501 C 228.598 241.327,229.200 242.213,229.200 242.471 C 229.200 243.730,236.136 249.617,238.370 250.254 C 241.914 251.265,243.132 252.174,243.277 253.918 C 243.398 255.373,243.433 255.402,245.200 255.495 C 249.292 255.710,257.262 256.486,260.226 256.958 L 263.400 257.464 260.600 257.941 C 249.931 259.757,242.800 259.298,242.800 256.795 C 242.800 255.671,242.330 255.534,237.131 255.147 C 232.009 254.765,230.565 254.285,229.291 252.535 C 228.850 251.930,227.015 250.727,225.155 249.824 L 221.811 248.200 219.707 244.600 C 218.549 242.620,217.223 240.229,216.759 239.287 L 215.916 237.575 217.858 234.369 C 220.530 229.960,224.047 228.312,227.194 229.997 M156.376 235.449 L 155.468 237.325 156.391 239.065 C 157.409 240.984,157.921 240.921,158.814 238.766 C 160.067 235.742,157.756 232.598,156.376 235.449 M185.197 234.374 C 181.514 235.494,180.318 236.999,181.917 238.499 C 185.552 241.908,190.759 239.847,188.790 235.779 C 187.890 233.920,187.365 233.714,185.197 234.374 M196.363 235.791 C 194.666 239.627,198.014 241.994,200.112 238.441 C 200.848 237.195,200.057 235.287,198.448 234.426 C 197.282 233.802,197.227 233.837,196.363 235.791 M126.089 235.635 C 123.534 238.133,125.719 240.226,130.373 239.740 C 134.226 239.337,134.640 235.602,130.899 234.991 C 130.075 234.856,128.945 234.663,128.389 234.561 C 127.641 234.424,127.040 234.705,126.089 235.635 M141.897 235.118 C 139.250 238.156,141.095 240.705,145.151 239.613 C 146.746 239.184,148.000 238.287,148.000 237.576 C 148.000 236.620,142.514 234.410,141.897 235.118 M166.610 235.580 C 165.370 237.979,166.676 240.297,168.570 239.057 C 170.124 238.038,170.204 237.414,168.988 235.820 C 167.672 234.095,167.393 234.067,166.610 235.580 M101.759 236.117 C 101.115 237.467,101.115 237.611,101.756 238.589 L 102.437 239.628 103.606 238.795 C 105.298 237.591,105.308 237.461,103.806 236.005 L 102.442 234.684 101.759 236.117 M188.395 236.389 C 189.065 238.006,188.048 239.781,186.678 239.387 C 181.583 237.923,181.413 237.012,185.938 235.416 C 187.674 234.804,187.752 234.835,188.395 236.389 M146.400 237.589 C 146.400 237.990,143.678 239.200,142.778 239.200 C 141.517 239.200,140.931 237.470,141.762 236.202 L 142.438 235.171 144.419 236.249 C 145.508 236.842,146.400 237.445,146.400 237.589 M158.148 236.295 C 158.651 237.256,158.646 237.538,158.102 238.590 L 157.481 239.790 156.914 238.591 C 155.923 236.500,157.104 234.303,158.148 236.295 M198.789 236.384 L 199.632 237.568 198.816 238.384 C 197.288 239.912,195.918 238.529,196.815 236.364 C 197.421 234.902,197.736 234.905,198.789 236.384 M131.500 236.616 C 132.215 236.915,132.800 237.334,132.800 237.549 C 132.800 238.735,127.590 239.277,126.414 238.213 L 125.588 237.465 126.489 236.506 C 127.469 235.463,128.808 235.492,131.500 236.616 M168.800 237.413 C 168.800 238.460,167.615 238.973,167.033 238.178 C 166.161 236.984,167.047 235.337,168.065 236.259 C 168.469 236.625,168.800 237.144,168.800 237.413 M87.242 236.722 C 86.561 237.994,87.346 238.515,90.008 238.559 C 92.783 238.605,93.856 237.872,92.828 236.634 C 92.035 235.679,87.764 235.746,87.242 236.722 M103.200 237.624 C 103.200 237.831,102.930 238.000,102.600 238.000 C 101.981 238.000,101.805 237.528,102.256 237.078 C 102.575 236.758,103.200 237.119,103.200 237.624 M100.498 256.844 L 98.600 257.488 100.200 257.942 C 102.690 258.648,197.591 258.587,198.560 257.879 C 200.649 256.351,199.959 256.328,150.212 256.263 C 107.195 256.206,102.205 256.265,100.498 256.844 M288.101 257.400 C 288.231 257.928,278.466 258.153,274.000 257.726 L 270.600 257.400 274.800 257.172 C 281.176 256.827,287.989 256.943,288.101 257.400 M128.705 257.475 C 128.322 257.575,127.602 257.579,127.105 257.483 C 126.607 257.387,126.920 257.305,127.800 257.301 C 128.680 257.296,129.087 257.375,128.705 257.475 " stroke="none" fill="#7c7c7c" fill-rule="evenodd"></path><path id="path4" d="M219.800 105.000 C 219.580 105.075,218.556 105.251,217.525 105.389 C 216.494 105.528,215.001 106.082,214.208 106.621 C 213.414 107.159,212.521 107.600,212.223 107.600 C 210.955 107.600,206.115 110.498,205.421 111.673 C 204.940 112.486,203.875 113.270,202.241 114.010 C 200.309 114.887,199.637 115.433,199.095 116.569 C 198.698 117.403,197.939 118.199,197.303 118.449 C 193.955 119.770,193.671 119.972,193.211 121.367 C 192.818 122.559,192.477 122.855,191.072 123.225 C 188.634 123.867,186.091 125.463,185.412 126.777 C 184.977 127.617,184.151 128.176,182.310 128.874 C 180.349 129.617,179.659 130.105,179.153 131.108 C 178.196 133.005,177.599 133.600,176.651 133.601 C 175.377 133.604,173.319 135.009,172.625 136.351 C 172.169 137.234,171.419 137.750,169.706 138.365 C 166.225 139.612,165.460 140.098,164.753 141.503 C 163.794 143.411,163.270 143.921,161.977 144.205 C 160.898 144.442,160.478 144.843,158.430 147.586 C 157.774 148.464,157.580 148.519,156.647 148.094 L 155.600 147.617 155.599 129.309 C 155.597 108.615,155.752 109.674,152.352 107.211 C 148.912 104.719,146.468 104.758,142.911 107.361 C 139.290 110.012,139.560 106.100,139.618 154.982 L 139.668 198.044 138.685 199.320 L 137.701 200.595 120.339 200.456 C 96.217 200.263,95.718 200.348,96.237 204.525 C 96.756 208.708,99.366 210.383,104.385 209.759 C 105.586 209.609,114.676 209.467,124.585 209.443 C 138.290 209.410,143.229 209.266,145.228 208.844 C 147.532 208.357,148.421 208.369,152.428 208.944 C 156.182 209.482,160.707 209.602,177.730 209.613 L 198.459 209.627 200.130 208.708 C 201.971 207.694,202.237 206.972,201.812 204.140 C 201.586 202.632,201.329 202.275,199.841 201.403 L 198.130 200.400 180.165 200.414 C 166.422 200.425,161.664 200.557,159.919 200.974 C 157.724 201.498,157.619 201.487,157.105 200.659 C 155.624 198.277,155.600 197.905,155.600 177.477 C 155.600 154.286,155.113 156.566,160.161 156.140 L 163.115 155.890 164.384 157.645 C 165.804 159.610,167.643 160.723,170.587 161.399 C 172.403 161.815,172.662 162.024,173.587 163.821 C 174.425 165.448,174.900 165.892,176.340 166.394 C 177.795 166.901,178.167 167.253,178.610 168.550 C 179.254 170.432,179.666 170.875,181.291 171.427 C 182.603 171.873,182.730 172.027,183.852 174.554 C 184.363 175.703,184.979 176.301,186.220 176.850 C 187.530 177.430,187.952 177.862,188.144 178.821 C 188.284 179.518,189.306 181.032,190.511 182.324 C 191.677 183.576,193.401 185.622,194.342 186.871 C 195.283 188.121,196.500 189.435,197.045 189.793 C 197.591 190.150,198.665 191.423,199.431 192.621 C 200.197 193.820,200.993 194.800,201.198 194.800 C 201.857 194.800,204.352 197.219,204.628 198.125 C 204.979 199.277,205.987 200.400,206.671 200.400 C 207.592 200.400,210.259 202.373,210.728 203.401 C 211.990 206.171,223.946 208.358,229.203 206.781 C 233.022 205.634,239.828 206.529,241.825 208.440 C 243.601 210.139,247.064 210.721,258.253 211.200 C 268.489 211.637,271.588 212.060,273.258 213.245 C 274.755 214.306,280.178 215.502,285.800 216.010 C 292.117 216.581,293.437 216.948,294.083 218.311 C 294.437 219.056,295.512 219.842,297.487 220.800 C 303.450 223.692,304.188 225.267,303.903 234.494 C 303.667 242.116,303.517 242.625,301.173 243.749 C 300.028 244.298,299.215 245.025,298.879 245.800 C 298.593 246.460,298.220 247.259,298.051 247.575 C 297.881 247.894,296.296 248.462,294.494 248.849 C 290.460 249.717,289.830 250.051,288.622 251.964 C 287.320 254.028,284.719 254.401,271.684 254.396 C 253.002 254.390,247.229 253.792,246.018 251.741 C 245.055 250.109,243.152 249.212,240.025 248.916 C 237.332 248.662,236.291 248.068,235.595 246.388 C 235.223 245.490,234.556 244.896,233.331 244.371 C 231.626 243.639,231.095 242.925,230.628 240.731 C 230.503 240.143,229.954 239.132,229.410 238.484 C 228.433 237.323,228.430 237.297,229.194 236.605 C 230.426 235.491,230.931 233.362,230.658 230.440 C 230.214 225.690,228.156 224.237,224.815 226.315 C 223.703 227.005,222.103 227.757,221.259 227.984 C 214.768 229.732,211.370 241.878,216.722 244.200 C 217.265 244.436,218.150 245.625,218.874 247.094 C 220.351 250.089,220.308 250.050,223.700 251.406 C 225.627 252.176,226.744 252.919,227.599 253.999 C 228.913 255.658,229.347 255.821,234.539 256.598 C 237.766 257.082,238.191 257.252,239.359 258.527 C 241.732 261.118,240.709 261.043,271.600 260.880 C 289.344 260.785,289.591 260.755,291.687 258.420 C 292.838 257.138,293.424 256.824,295.041 256.623 C 300.022 256.004,301.122 255.614,302.384 254.021 C 303.234 252.947,304.398 252.159,306.297 251.372 C 309.712 249.956,309.784 249.898,310.828 247.742 C 311.369 246.624,312.291 245.574,313.278 244.950 C 316.960 242.626,318.361 229.679,315.948 220.279 C 315.565 218.788,315.128 218.307,307.542 211.033 C 306.280 209.823,305.190 209.162,304.142 208.972 C 301.607 208.512,299.745 207.618,299.199 206.597 C 298.447 205.194,296.481 204.425,292.513 203.983 C 281.884 202.800,281.925 202.808,280.662 201.745 C 278.281 199.742,275.743 199.316,263.124 198.801 C 252.941 198.385,250.279 198.002,248.956 196.759 C 247.735 195.611,244.526 194.495,241.568 194.190 C 231.697 193.169,228.190 186.185,231.805 174.746 C 232.462 172.666,232.642 172.454,234.127 172.009 C 235.176 171.695,236.563 170.701,238.107 169.157 C 241.204 166.060,241.209 166.058,246.478 165.613 C 252.542 165.100,254.271 164.556,256.526 162.451 C 258.734 160.389,270.613 160.794,273.645 163.035 C 275.464 164.378,279.374 165.486,284.056 165.984 C 289.598 166.573,291.970 167.190,292.476 168.175 C 293.300 169.778,294.570 170.818,295.982 171.043 C 297.834 171.340,298.515 171.871,299.376 173.689 C 299.857 174.705,300.502 175.330,301.410 175.658 C 302.793 176.158,303.230 176.773,304.008 179.314 C 305.130 182.979,309.148 182.986,313.050 179.330 L 314.699 177.785 314.313 175.192 C 314.072 173.574,313.625 172.274,313.124 171.732 C 312.682 171.254,311.725 169.724,310.997 168.332 C 309.358 165.195,308.573 164.601,304.804 163.650 C 302.299 163.017,301.677 162.690,301.004 161.651 C 299.661 159.577,298.258 159.189,289.942 158.586 C 282.573 158.051,282.281 157.997,280.511 156.824 C 277.963 155.137,276.951 155.000,267.000 155.000 C 257.343 155.000,256.122 155.208,253.447 157.305 C 251.500 158.832,249.640 159.181,243.603 159.156 C 237.748 159.131,236.296 159.548,234.981 161.630 C 234.354 162.623,233.602 163.268,232.900 163.415 C 228.856 164.261,228.361 164.530,225.091 167.647 C 223.281 169.373,221.668 170.788,221.506 170.792 C 219.744 170.838,217.384 179.732,217.629 185.400 C 217.937 192.522,217.412 195.813,216.729 191.039 C 216.412 188.821,216.152 188.574,213.758 188.215 C 212.221 187.984,212.000 187.809,211.574 186.479 C 210.959 184.565,210.199 183.724,208.543 183.125 C 207.804 182.858,207.200 182.398,207.200 182.104 C 207.200 181.026,205.617 178.508,204.048 177.091 C 203.163 176.292,201.784 174.684,200.984 173.519 C 200.183 172.353,198.555 170.531,197.364 169.468 C 196.174 168.405,195.200 167.312,195.200 167.038 C 195.200 166.457,193.534 164.800,192.949 164.800 C 192.474 164.800,190.810 163.027,189.894 161.546 C 189.535 160.967,188.038 159.819,186.566 158.996 C 185.094 158.173,183.150 156.733,182.245 155.795 C 180.961 154.465,180.205 154.031,178.800 153.818 C 175.575 153.328,174.259 152.713,171.128 150.238 C 167.415 147.302,167.437 147.403,170.300 146.578 C 174.195 145.455,175.164 144.903,175.881 143.399 C 176.409 142.292,176.901 141.900,178.177 141.572 C 182.202 140.537,182.556 140.330,184.879 137.631 C 185.252 137.197,186.332 136.647,187.279 136.407 C 190.224 135.663,190.845 135.250,191.493 133.600 C 192.017 132.265,192.343 131.973,193.558 131.754 C 196.884 131.152,199.205 129.976,200.212 128.382 C 200.967 127.185,201.575 126.736,202.894 126.403 C 205.668 125.703,206.379 125.281,207.237 123.828 C 207.923 122.665,208.539 122.286,211.168 121.410 C 214.166 120.412,215.599 119.397,216.129 117.897 C 216.425 117.060,217.408 116.635,220.505 116.008 C 223.543 115.392,224.986 114.142,225.769 111.448 C 226.108 110.281,226.751 108.862,227.198 108.294 L 228.010 107.261 226.905 106.492 C 224.923 105.111,221.546 104.402,219.800 105.000 M222.948 108.500 C 223.930 112.166,222.908 113.821,218.875 115.092 C 217.352 115.572,216.041 116.373,214.745 117.616 C 213.412 118.893,212.037 119.721,210.130 120.395 C 208.105 121.110,207.018 121.788,205.860 123.060 C 204.853 124.167,203.644 124.987,202.417 125.394 C 201.377 125.740,199.602 126.811,198.472 127.776 C 197.229 128.837,195.428 129.869,193.909 130.390 C 191.892 131.083,191.162 131.580,190.185 132.926 C 189.163 134.333,188.529 134.742,186.210 135.490 C 184.220 136.132,182.985 136.837,181.787 138.013 C 180.616 139.162,179.424 139.852,177.762 140.344 C 176.024 140.859,175.272 141.309,174.914 142.047 C 173.586 144.789,166.765 146.192,166.175 143.844 C 165.743 142.123,166.706 141.214,170.087 140.148 C 172.455 139.401,173.213 138.979,173.422 138.291 C 173.849 136.881,175.245 135.561,177.275 134.646 C 178.407 134.135,179.517 133.245,180.075 132.400 C 180.682 131.481,181.853 130.587,183.482 129.800 C 184.847 129.140,186.647 127.940,187.482 127.132 C 188.317 126.325,189.990 125.192,191.200 124.615 C 192.639 123.929,193.778 123.020,194.492 121.989 C 195.146 121.044,196.318 120.067,197.413 119.552 C 198.418 119.079,199.713 118.074,200.290 117.318 C 200.866 116.562,202.180 115.517,203.208 114.996 C 204.237 114.475,206.051 113.212,207.239 112.191 C 210.682 109.231,212.862 108.490,220.000 107.853 C 220.770 107.784,221.694 107.699,222.053 107.664 C 222.425 107.628,222.811 107.988,222.948 108.500 M150.422 109.100 C 153.992 110.914,153.854 110.009,153.604 130.000 C 153.360 149.533,153.165 148.164,156.328 149.135 C 157.793 149.584,160.000 148.873,160.000 147.950 C 160.000 145.704,164.971 144.601,165.436 146.744 C 166.332 150.877,168.303 152.431,174.663 154.020 C 179.003 155.104,179.527 155.338,180.913 156.800 C 181.745 157.679,183.154 158.768,184.042 159.222 C 186.964 160.712,197.164 170.906,200.800 175.971 C 201.570 177.043,202.793 178.411,203.518 179.010 C 204.242 179.610,205.188 180.792,205.619 181.637 C 206.050 182.482,207.064 183.622,207.872 184.172 C 208.681 184.721,209.848 185.982,210.465 186.974 C 211.136 188.051,212.212 189.096,213.139 189.569 C 214.074 190.046,214.943 190.893,215.326 191.701 C 217.671 196.643,219.367 194.916,218.984 187.978 C 218.444 178.227,219.321 175.668,225.120 170.066 C 230.013 165.339,230.681 164.915,233.811 164.547 C 235.906 164.301,236.136 164.173,236.637 162.974 C 237.646 160.558,244.630 159.934,249.178 161.855 L 250.600 162.455 249.388 162.971 C 247.932 163.591,243.482 164.400,241.527 164.400 C 238.922 164.400,237.655 165.109,237.193 166.826 C 236.766 168.413,235.461 169.668,232.883 170.972 C 232.158 171.338,231.380 172.125,231.153 172.719 C 226.436 185.074,229.114 192.894,238.792 195.022 C 240.446 195.386,243.071 196.291,244.625 197.034 C 248.041 198.666,252.154 199.363,262.000 199.979 C 269.338 200.438,271.871 200.888,277.802 202.783 C 280.130 203.527,283.420 204.156,287.101 204.561 C 292.947 205.205,294.753 205.714,297.213 207.413 C 297.991 207.950,299.971 208.843,301.613 209.398 C 303.742 210.117,305.060 210.859,306.200 211.979 C 316.352 221.954,315.725 220.760,315.763 230.200 C 315.795 238.177,315.321 240.023,312.376 243.389 C 311.251 244.674,309.884 246.433,309.338 247.298 C 308.558 248.533,307.694 249.167,305.306 250.255 C 303.554 251.054,301.627 252.300,300.756 253.198 C 299.022 254.985,297.453 255.424,294.240 255.022 C 288.916 254.357,289.751 251.241,295.585 250.003 C 298.096 249.470,298.661 249.024,300.067 246.464 C 300.434 245.796,301.456 244.882,302.338 244.432 C 304.012 243.578,304.085 243.452,304.826 240.200 C 307.022 230.563,305.223 223.350,299.894 220.426 C 298.256 219.527,296.575 218.414,296.158 217.953 C 294.818 216.471,292.703 215.704,288.096 215.030 C 285.618 214.668,282.288 213.909,280.696 213.345 C 275.724 211.583,271.040 210.813,262.614 210.371 C 252.983 209.866,249.749 209.339,244.717 207.454 C 238.159 204.998,231.854 204.310,225.766 205.387 C 220.225 206.367,214.263 205.279,212.902 203.040 C 212.736 202.766,211.520 201.758,210.200 200.800 C 207.593 198.908,202.018 193.393,199.488 190.204 C 197.252 187.385,194.090 183.787,192.113 181.813 C 191.185 180.886,190.003 179.384,189.487 178.474 C 188.970 177.564,187.799 176.278,186.884 175.615 C 185.970 174.953,184.872 173.733,184.445 172.905 C 184.017 172.077,182.948 170.962,182.066 170.425 C 181.184 169.889,180.068 168.747,179.584 167.887 C 179.101 167.027,177.942 165.862,177.008 165.298 C 176.074 164.734,174.885 163.584,174.365 162.744 C 173.744 161.738,172.870 160.998,171.810 160.581 C 169.153 159.536,167.242 158.075,166.638 156.628 C 165.562 154.054,163.797 153.492,160.200 154.577 C 156.298 155.754,155.726 156.015,154.740 157.064 L 153.800 158.064 153.673 177.855 L 153.546 197.646 154.723 200.161 C 156.875 204.761,155.220 206.196,147.800 206.163 C 141.807 206.136,137.981 204.240,139.521 202.060 C 139.778 201.697,140.450 200.648,141.014 199.729 L 142.042 198.059 142.011 155.072 L 141.980 112.085 143.073 110.786 C 145.550 107.843,147.201 107.464,150.422 109.100 M271.000 157.600 C 270.025 158.019,265.847 158.019,264.200 157.600 C 263.425 157.403,264.559 157.288,267.400 157.275 C 270.191 157.263,271.507 157.382,271.000 157.600 M295.800 160.463 C 296.680 160.783,298.262 161.704,299.316 162.511 C 300.370 163.318,301.987 164.181,302.909 164.429 C 308.198 165.853,311.227 169.549,311.714 175.171 C 312.197 180.744,307.183 182.669,304.726 177.855 C 303.627 175.702,299.003 171.161,296.572 169.847 C 295.456 169.244,294.234 168.227,293.856 167.587 C 293.105 166.315,292.022 165.916,287.400 165.204 C 283.295 164.573,278.800 163.090,278.800 162.368 C 278.800 161.391,280.603 160.521,284.000 159.858 C 286.012 159.465,294.208 159.886,295.800 160.463 M141.200 219.315 C 140.245 219.796,139.655 220.751,138.240 224.110 C 137.443 226.001,136.283 225.483,134.782 222.566 C 133.279 219.643,133.198 219.631,126.303 221.261 L 122.806 222.088 121.396 220.850 C 117.253 217.213,111.812 219.478,111.785 224.851 C 111.756 230.715,111.307 232.599,109.515 234.391 C 107.486 236.420,107.627 236.446,105.332 233.628 C 103.011 230.778,102.543 230.538,101.220 231.520 C 98.433 233.587,98.475 240.206,101.287 242.176 C 102.485 243.015,102.373 243.049,105.230 240.947 L 107.747 239.093 108.974 240.514 C 109.648 241.295,110.684 242.500,111.275 243.190 C 112.545 244.673,113.520 244.392,115.978 241.834 C 116.789 240.991,117.742 240.400,118.291 240.400 C 118.805 240.400,119.872 240.130,120.662 239.800 C 122.508 239.029,122.696 239.043,122.992 239.975 C 123.255 240.804,124.700 241.372,127.597 241.784 C 128.585 241.925,130.166 242.426,131.110 242.898 L 132.827 243.755 133.825 242.757 C 135.770 240.812,135.778 237.158,133.846 232.773 C 132.751 230.285,136.896 229.019,139.807 230.952 L 141.958 232.380 140.808 233.530 C 137.565 236.773,138.960 241.120,143.521 241.985 C 144.662 242.201,146.027 242.661,146.555 243.007 C 147.794 243.819,148.881 242.598,149.604 239.582 C 150.346 236.488,149.785 235.561,146.193 233.944 L 143.256 232.623 144.955 230.807 C 145.889 229.808,146.852 228.637,147.094 228.204 C 147.506 227.468,147.702 227.571,150.067 229.770 C 153.888 233.320,153.866 233.284,154.179 236.470 C 155.126 246.078,160.205 245.852,160.711 236.180 C 160.944 231.723,161.647 230.556,163.461 231.613 C 164.407 232.165,164.472 232.413,164.534 235.733 C 164.606 239.600,165.839 241.600,168.151 241.600 C 168.668 241.600,169.769 242.140,170.600 242.800 C 172.762 244.518,174.000 243.878,174.000 241.042 C 174.000 237.872,176.562 236.741,178.398 239.100 C 181.123 242.599,184.354 243.490,188.549 241.898 C 191.398 240.817,191.556 235.266,188.831 231.963 L 187.646 230.527 184.200 230.989 C 180.435 231.494,179.619 232.053,177.978 235.252 C 177.381 236.416,176.930 236.760,175.716 236.980 C 174.882 237.131,173.827 237.344,173.371 237.453 C 172.692 237.615,172.458 237.374,172.081 236.126 C 171.828 235.286,171.154 234.101,170.585 233.490 L 169.549 232.380 170.962 231.790 C 171.739 231.466,173.055 231.199,173.887 231.198 C 178.798 231.191,180.688 228.875,178.042 226.107 C 177.398 225.433,176.595 223.901,176.232 222.650 C 174.687 217.338,170.397 217.743,168.843 223.348 C 168.427 224.847,167.913 226.247,167.699 226.461 C 167.149 227.011,165.316 224.716,164.812 222.845 C 164.169 220.458,163.500 220.110,159.000 219.824 C 156.800 219.684,154.434 219.482,153.743 219.375 C 151.802 219.074,150.169 220.661,149.600 223.402 C 148.628 228.083,147.202 228.242,146.157 223.785 C 145.210 219.744,143.467 218.173,141.200 219.315 M143.474 221.270 C 144.867 222.578,144.844 227.443,143.440 228.762 L 142.480 229.664 140.851 228.586 C 139.585 227.749,139.299 227.362,139.571 226.854 C 139.764 226.494,140.050 225.300,140.208 224.200 C 140.660 221.055,141.983 219.868,143.474 221.270 M173.895 221.300 C 175.272 222.786,175.343 227.475,173.999 228.219 C 171.582 229.557,170.400 228.455,170.400 224.864 C 170.400 221.051,172.078 219.340,173.895 221.300 M118.813 221.471 C 120.023 222.186,120.201 222.619,120.625 225.868 L 120.895 227.936 119.245 228.777 C 116.263 230.298,114.800 228.944,114.800 224.660 C 114.800 222.392,114.892 222.128,115.900 221.503 C 117.275 220.651,117.421 220.649,118.813 221.471 M158.101 222.270 C 160.103 222.452,160.701 222.638,160.412 222.985 C 160.198 223.243,159.823 224.388,159.578 225.528 C 158.893 228.723,158.088 229.063,154.973 227.478 C 151.112 225.514,150.351 221.131,153.981 221.772 C 154.762 221.910,156.615 222.134,158.101 222.270 M228.411 230.100 C 229.453 232.396,229.414 232.701,227.800 234.972 C 226.093 237.373,226.088 237.512,227.647 239.228 C 228.334 239.983,229.140 241.170,229.439 241.866 C 229.738 242.563,230.540 243.643,231.221 244.266 C 231.903 244.890,233.412 246.320,234.576 247.445 C 236.081 248.900,237.140 249.573,238.246 249.777 C 240.815 250.250,243.024 251.422,244.164 252.918 C 245.565 254.754,245.397 254.707,253.145 255.434 C 256.805 255.777,261.330 256.206,263.200 256.388 C 265.070 256.569,269.930 256.564,274.000 256.375 C 287.131 255.767,288.458 255.791,289.085 256.648 C 290.585 258.695,288.992 258.937,275.800 258.662 C 266.386 258.466,262.769 258.540,259.015 259.006 C 249.562 260.180,244.007 259.645,241.540 257.325 C 240.685 256.519,239.722 256.218,236.540 255.761 C 230.944 254.957,230.793 254.905,229.262 253.273 C 228.502 252.463,226.430 251.080,224.656 250.200 C 221.179 248.474,221.715 249.094,216.961 241.300 C 213.952 236.367,218.172 229.447,224.600 228.773 C 225.920 228.635,227.144 228.495,227.320 228.461 C 227.495 228.427,227.986 229.165,228.411 230.100 M196.251 231.612 C 192.188 236.441,194.373 243.600,199.909 243.600 C 203.382 243.600,203.490 243.435,203.810 237.600 C 204.142 231.545,203.189 230.452,197.536 230.402 C 197.390 230.401,196.812 230.946,196.251 231.612 M86.519 231.700 C 84.103 234.351,84.330 240.599,86.921 242.737 C 88.266 243.847,94.015 241.904,94.996 240.008 C 96.854 236.415,94.726 232.596,90.211 231.420 C 87.250 230.648,87.495 230.630,86.519 231.700 M124.213 231.380 C 125.550 231.938,126.104 232.800,125.126 232.800 C 124.353 232.800,122.800 234.477,122.800 235.313 C 122.800 235.898,122.630 236.012,122.100 235.782 C 121.715 235.615,120.466 235.278,119.324 235.033 C 114.766 234.053,113.683 231.635,117.776 231.577 C 119.055 231.559,122.054 231.115,122.713 230.846 C 122.775 230.821,123.450 231.061,124.213 231.380 M158.855 236.027 C 159.209 237.209,159.200 237.834,158.814 238.766 C 157.921 240.921,157.409 240.984,156.391 239.065 L 155.468 237.325 156.376 235.449 C 157.425 233.283,158.079 233.436,158.855 236.027 M188.790 235.779 C 190.759 239.847,185.552 241.908,181.917 238.499 C 180.623 237.285,180.909 236.378,182.909 235.343 C 186.481 233.497,187.730 233.589,188.790 235.779 M198.448 234.426 C 200.057 235.287,200.848 237.195,200.112 238.441 C 198.014 241.994,194.666 239.627,196.363 235.791 C 197.227 233.837,197.282 233.802,198.448 234.426 M130.899 234.991 C 132.784 235.299,133.863 236.986,133.160 238.528 C 132.089 240.879,124.800 239.876,124.800 237.378 C 124.800 236.357,127.335 234.368,128.389 234.561 C 128.945 234.663,130.075 234.856,130.899 234.991 M148.000 237.576 C 148.000 238.287,146.746 239.184,145.151 239.613 C 141.095 240.705,139.250 238.156,141.897 235.118 C 142.514 234.410,148.000 236.620,148.000 237.576 M168.988 235.820 C 170.204 237.414,170.124 238.038,168.570 239.057 C 166.676 240.297,165.370 237.979,166.610 235.580 C 167.393 234.067,167.672 234.095,168.988 235.820 M104.972 237.645 C 104.864 237.820,104.250 238.337,103.606 238.795 L 102.437 239.628 101.756 238.589 C 101.115 237.611,101.115 237.467,101.759 236.117 L 102.442 234.684 103.806 236.005 C 104.555 236.732,105.080 237.470,104.972 237.645 M92.828 236.634 C 93.856 237.872,92.783 238.605,90.008 238.559 C 87.346 238.515,86.561 237.994,87.242 236.722 C 87.764 235.746,92.035 235.679,92.828 236.634 M98.919 253.688 C 93.644 254.792,94.301 259.635,99.821 260.344 C 103.960 260.876,197.944 260.599,199.894 260.050 C 204.278 258.814,204.511 256.482,200.464 254.340 L 198.462 253.280 149.531 253.308 C 122.619 253.323,99.844 253.494,98.919 253.688 M198.650 256.842 C 199.209 257.306,199.200 257.411,198.560 257.879 C 197.591 258.587,102.690 258.648,100.200 257.942 L 98.600 257.488 100.498 256.844 C 103.067 255.972,197.599 255.969,198.650 256.842 " stroke="none" fill="#a0a0a0" fill-rule="evenodd"></path></g></svg>