<svg id="svg" version="1.1" xmlns="http://www.w3.org/2000/svg" xmlns:xlink="http://www.w3.org/1999/xlink" width="400" height="105.26315789473685" viewBox="0, 0, 400,105.26315789473685"><g id="svgg"><path id="path0" d="M17.521 38.642 C 17.150 38.930,17.145 38.956,17.438 39.073 C 17.811 39.221,78.760 39.213,237.000 39.043 C 348.049 38.923,351.443 38.911,301.167 38.816 C 271.971 38.760,196.596 38.664,133.667 38.602 C 70.737 38.540,18.950 38.455,18.583 38.413 C 18.102 38.357,17.807 38.421,17.521 38.642 M383.042 38.953 C 383.294 38.991,383.706 38.991,383.958 38.953 C 384.210 38.915,384.004 38.883,383.500 38.883 C 382.996 38.883,382.790 38.915,383.042 38.953 M164.417 44.815 C 160.273 44.920,159.360 45.068,160.173 45.503 C 160.464 45.659,161.288 45.691,163.373 45.625 C 164.916 45.576,166.945 45.600,167.882 45.676 C 169.809 45.835,171.700 45.718,172.114 45.415 C 172.921 44.825,170.738 44.655,164.417 44.815 M181.750 44.929 C 181.229 45.323,181.233 57.856,181.754 58.972 L 182.092 59.695 182.713 58.794 L 183.333 57.892 183.332 52.654 C 183.331 45.955,183.274 45.302,182.661 44.940 C 182.111 44.615,182.165 44.615,181.750 44.929 M197.913 44.959 C 195.884 45.551,197.961 45.783,204.833 45.731 C 211.557 45.680,212.780 45.539,211.385 44.978 C 210.641 44.678,198.932 44.662,197.913 44.959 M221.234 44.935 L 220.552 45.177 220.343 46.547 C 219.987 48.878,221.120 50.021,222.459 48.682 C 222.915 48.226,223.877 47.836,224.553 47.834 C 225.738 47.831,225.635 47.324,224.311 46.655 C 223.642 46.318,223.201 45.961,222.971 45.572 C 222.684 45.085,222.172 44.629,221.969 44.680 C 221.940 44.687,221.610 44.802,221.234 44.935 M240.787 44.959 C 240.559 45.212,240.514 45.994,240.469 50.584 C 240.410 56.590,240.441 56.438,239.161 57.086 C 238.028 57.660,238.154 58.301,239.453 58.577 C 239.748 58.639,240.239 58.861,240.546 59.069 L 241.102 59.446 241.958 58.659 L 242.814 57.873 242.734 52.728 C 242.691 49.898,242.614 47.045,242.565 46.388 L 242.474 45.192 241.817 44.930 C 241.017 44.609,241.106 44.607,240.787 44.959 M259.168 44.932 C 256.723 45.993,256.462 48.751,258.900 47.775 C 260.419 47.167,261.017 47.458,261.594 49.083 C 261.696 49.372,261.996 49.698,262.300 49.853 C 263.133 50.277,263.267 50.441,263.654 51.503 C 263.925 52.246,264.144 52.566,264.510 52.755 C 264.903 52.958,265.057 53.210,265.281 54.015 C 265.464 54.675,265.679 55.082,265.905 55.199 C 266.712 55.617,267.649 56.540,267.981 57.246 C 268.258 57.836,268.484 58.063,269.002 58.270 C 269.368 58.417,269.850 58.753,270.073 59.018 C 270.599 59.643,270.919 59.380,271.011 58.250 C 271.064 57.596,270.992 57.480,270.375 57.225 C 269.546 56.882,269.207 56.562,269.084 56.004 C 268.961 55.442,268.409 54.915,267.794 54.769 C 267.475 54.694,267.308 54.525,267.236 54.206 C 266.873 52.586,266.402 51.458,266.004 51.252 C 265.415 50.948,265.075 50.520,264.840 49.788 C 264.680 49.288,264.482 49.084,263.872 48.788 C 263.450 48.584,263.049 48.304,262.982 48.167 C 262.915 48.029,262.720 47.626,262.549 47.270 C 262.323 46.800,262.080 46.572,261.661 46.437 C 261.230 46.298,261.039 46.112,260.909 45.710 C 260.598 44.748,260.102 44.527,259.168 44.932 M280.167 44.831 C 277.921 44.885,275.906 45.006,275.689 45.100 C 274.971 45.413,276.945 45.723,278.776 45.586 C 281.587 45.375,283.479 45.612,284.123 46.256 L 284.667 46.800 284.679 52.442 C 284.690 57.342,284.728 58.166,284.971 58.716 L 285.251 59.348 285.792 58.644 L 286.333 57.939 286.333 52.499 C 286.333 47.069,286.334 47.057,286.708 46.715 C 287.839 45.682,289.202 45.425,292.849 45.557 C 295.849 45.665,296.592 45.543,295.960 45.045 C 295.693 44.834,285.681 44.698,280.167 44.831 M322.606 45.012 L 322.167 45.358 322.167 49.517 C 322.167 53.897,322.090 54.431,321.345 55.248 C 321.176 55.432,320.991 55.739,320.934 55.929 C 320.776 56.453,320.008 57.078,319.125 57.403 C 317.728 57.917,318.225 58.605,319.881 58.450 C 321.242 58.323,321.483 58.217,321.605 57.690 C 321.783 56.919,322.139 56.520,322.753 56.405 C 323.718 56.224,323.739 56.106,323.805 50.448 C 323.861 45.737,323.842 45.285,323.574 44.989 C 323.209 44.586,323.146 44.587,322.606 45.012 M332.477 44.890 C 331.373 45.102,331.423 44.786,331.397 51.761 C 331.370 59.048,331.232 58.407,332.871 58.599 C 333.998 58.732,334.188 58.416,334.130 56.500 C 334.097 55.402,334.149 55.146,334.561 54.396 C 334.999 53.598,335.014 53.510,334.785 53.063 C 333.568 50.680,333.833 46.331,335.231 45.747 C 335.845 45.491,344.595 45.535,347.083 45.807 C 348.864 46.002,349.955 45.521,348.968 44.977 C 348.518 44.728,333.725 44.650,332.477 44.890 M360.500 44.994 L 360.083 45.314 360.036 51.615 L 359.989 57.917 360.547 58.797 C 361.481 60.272,361.696 59.780,361.726 56.105 C 361.763 51.600,361.442 51.800,368.533 51.867 C 372.681 51.906,373.863 51.870,374.032 51.701 C 374.488 51.245,373.694 51.172,368.275 51.169 L 362.800 51.167 362.233 50.600 C 361.669 50.036,361.667 50.026,361.667 48.470 C 361.667 45.597,361.468 45.668,369.533 45.661 C 376.352 45.656,377.060 45.578,376.139 44.933 C 375.501 44.486,361.089 44.542,360.500 44.994 M303.552 45.116 C 303.351 45.155,302.920 45.483,302.593 45.844 L 302.000 46.501 302.000 50.178 C 302.000 53.844,302.001 53.857,302.417 54.402 C 302.646 54.702,302.833 54.999,302.833 55.061 C 302.833 55.788,304.248 58.008,304.801 58.149 C 306.182 58.501,306.474 58.515,307.078 58.263 C 307.874 57.930,307.731 57.746,306.347 57.326 C 304.735 56.836,304.794 57.069,304.676 50.750 C 304.563 44.698,304.605 44.912,303.552 45.116 M158.661 46.232 C 158.526 46.360,157.986 46.587,157.460 46.736 C 156.366 47.047,156.285 47.195,156.366 48.740 C 156.423 49.836,156.396 49.811,158.000 50.306 C 159.396 50.738,159.417 50.711,159.417 48.414 C 159.417 46.350,159.198 45.720,158.661 46.232 M350.033 46.700 C 349.684 47.050,349.891 49.958,350.295 50.361 C 350.463 50.530,352.010 49.606,351.994 49.347 C 351.884 47.560,350.731 46.003,350.033 46.700 M193.296 46.788 C 192.686 46.852,192.000 47.446,192.000 47.910 C 192.000 48.169,191.384 48.727,190.734 49.055 C 189.389 49.734,189.578 54.705,190.955 54.864 C 191.299 54.903,191.436 55.026,191.499 55.353 C 191.702 56.406,193.073 56.920,193.400 56.066 C 193.560 55.649,192.744 54.667,192.237 54.667 C 191.042 54.667,191.100 50.788,192.301 50.370 C 192.728 50.221,193.333 49.346,193.333 48.879 C 193.333 48.579,194.093 48.029,194.794 47.822 C 195.753 47.539,195.956 47.272,195.471 46.932 C 195.108 46.677,194.643 46.647,193.296 46.788 M225.918 48.828 C 225.771 49.498,226.126 49.924,226.963 50.081 C 227.298 50.144,227.786 50.306,228.048 50.441 C 228.637 50.746,229.000 50.514,229.000 49.833 C 229.000 49.246,228.659 48.970,227.601 48.700 C 227.133 48.581,226.589 48.442,226.392 48.392 C 226.096 48.317,226.013 48.393,225.918 48.828 M255.436 49.077 C 255.288 49.303,255.167 49.711,255.167 49.982 C 255.167 50.603,254.780 51.000,254.175 51.000 C 253.646 51.000,253.395 51.246,252.917 52.231 C 252.733 52.608,252.348 53.067,252.060 53.250 C 251.616 53.533,250.667 55.333,250.667 55.893 C 250.667 56.671,252.281 56.390,253.288 55.435 C 253.492 55.242,253.798 54.964,253.969 54.819 C 254.149 54.665,254.365 54.118,254.484 53.516 C 254.634 52.753,254.834 52.315,255.239 51.864 C 255.764 51.279,256.667 49.690,256.667 49.351 C 256.667 48.706,255.805 48.514,255.436 49.077 M160.042 51.110 C 159.642 51.272,159.838 51.632,160.458 51.878 C 161.146 52.150,165.171 52.020,166.000 51.698 L 166.417 51.536 166.000 51.436 C 164.424 51.059,160.677 50.854,160.042 51.110 M229.444 51.111 C 228.987 51.569,230.382 52.350,231.085 52.030 C 231.597 51.796,231.609 51.595,231.130 51.259 C 230.759 51.000,229.653 50.902,229.444 51.111 M221.471 51.375 C 221.140 51.640,220.833 53.229,220.833 54.676 C 220.833 55.733,220.809 55.803,220.417 55.902 C 220.030 55.999,220.000 56.079,220.000 57.003 L 220.000 58.000 220.708 58.002 C 221.098 58.004,221.585 58.050,221.792 58.105 L 222.167 58.206 222.167 54.686 C 222.167 51.016,222.131 50.845,221.471 51.375 M347.645 51.542 C 347.457 51.748,347.139 52.179,346.940 52.500 C 346.740 52.821,346.345 53.200,346.062 53.342 L 345.548 53.601 347.043 53.984 C 348.368 54.323,348.566 54.338,348.786 54.118 C 349.113 53.792,349.498 51.565,349.268 51.335 C 348.957 51.023,348.009 51.144,347.645 51.542 M232.173 52.989 C 231.790 53.703,232.094 54.041,233.301 54.245 C 234.119 54.383,234.500 54.699,234.500 55.241 C 234.500 56.014,236.660 56.747,237.236 56.171 C 237.673 55.734,237.221 55.168,236.433 55.164 C 235.612 55.160,235.112 54.817,234.954 54.150 C 234.825 53.605,234.716 53.516,233.677 53.110 C 232.321 52.581,232.388 52.586,232.173 52.989 M210.645 53.183 L 210.039 53.543 210.432 54.122 C 210.962 54.903,211.084 55.695,210.861 56.897 C 210.555 58.541,212.143 59.261,213.792 58.227 C 214.292 57.914,214.379 53.551,213.894 53.147 C 213.404 52.741,211.349 52.764,210.645 53.183 M170.833 53.115 C 169.022 53.419,169.070 53.662,171.020 54.065 C 172.727 54.417,172.791 54.450,172.992 55.058 C 173.320 56.054,172.874 56.969,171.790 57.522 C 170.838 58.008,171.188 58.333,172.661 58.333 C 174.474 58.333,175.129 56.733,174.176 54.631 L 173.684 53.545 172.599 53.272 C 172.003 53.123,171.455 53.010,171.382 53.023 C 171.310 53.035,171.063 53.077,170.833 53.115 M350.077 55.234 C 349.388 55.738,349.922 58.667,350.703 58.667 C 351.147 58.667,351.717 58.030,351.571 57.695 C 351.504 57.542,351.365 57.042,351.262 56.583 C 350.935 55.124,350.658 54.809,350.077 55.234 M194.098 57.364 C 193.457 58.278,196.495 59.014,197.512 58.190 L 197.894 57.881 197.489 57.622 C 197.159 57.411,195.197 57.000,194.519 57.000 C 194.427 57.000,194.238 57.164,194.098 57.364 M249.093 57.370 C 248.758 57.848,248.766 58.047,249.137 58.504 L 249.440 58.879 249.803 58.417 C 250.210 57.900,250.264 57.498,249.967 57.200 C 249.668 56.901,249.383 56.957,249.093 57.370 M156.514 57.566 C 156.124 58.037,156.572 58.333,157.673 58.333 C 158.774 58.333,159.167 58.224,159.167 57.917 C 159.167 57.482,156.839 57.175,156.514 57.566 M162.583 59.819 L 161.917 59.924 162.583 60.043 C 163.445 60.198,167.551 60.184,168.417 60.024 L 169.083 59.900 168.167 59.785 C 167.080 59.648,163.531 59.670,162.583 59.819 M201.750 59.819 L 200.917 59.919 201.833 60.042 C 203.918 60.320,208.940 60.133,207.833 59.818 C 207.335 59.677,202.931 59.677,201.750 59.819 M310.167 59.818 L 309.750 59.935 310.167 60.049 C 310.694 60.192,315.082 60.165,315.750 60.014 C 316.216 59.909,316.194 59.894,315.435 59.784 C 314.412 59.637,310.724 59.660,310.167 59.818 M374.461 59.954 C 374.761 59.991,375.211 59.990,375.461 59.952 C 375.712 59.914,375.467 59.884,374.917 59.885 C 374.367 59.886,374.162 59.917,374.461 59.954 M17.501 65.951 C 17.165 66.187,17.161 66.217,17.429 66.513 C 17.762 66.881,176.022 66.987,259.083 66.674 C 282.642 66.586,317.667 66.455,336.917 66.384 L 371.917 66.254 354.500 66.143 C 273.393 65.625,18.174 65.480,17.501 65.951 M383.042 66.286 C 383.294 66.324,383.706 66.324,383.958 66.286 C 384.210 66.248,384.004 66.217,383.500 66.217 C 382.996 66.217,382.790 66.248,383.042 66.286 " stroke="none" fill="#222222" fill-rule="evenodd"></path><path id="path1" d="M0.000 52.583 L 0.000 105.167 200.000 105.167 L 400.000 105.167 400.000 52.583 L 400.000 0.000 200.000 0.000 L 0.000 0.000 0.000 52.583 M384.826 36.625 C 385.971 38.009,385.984 39.655,384.855 40.239 C 384.088 40.635,17.429 40.640,16.594 40.244 C 16.296 40.103,15.818 39.745,15.530 39.448 L 15.008 38.909 15.772 38.123 C 16.234 37.648,16.777 37.272,17.143 37.174 C 17.529 37.071,51.525 36.951,110.667 36.843 C 161.771 36.751,227.733 36.594,257.250 36.495 C 341.446 36.213,383.552 36.058,383.946 36.028 C 384.183 36.010,384.489 36.217,384.826 36.625 M173.407 43.824 C 175.370 44.450,175.983 47.750,174.286 48.555 C 173.495 48.931,172.678 48.678,171.968 47.838 C 171.244 46.982,170.203 46.833,164.938 46.833 C 160.475 46.833,160.667 46.765,160.667 48.346 C 160.667 49.811,160.574 49.770,164.228 49.897 C 168.075 50.029,169.443 50.299,170.328 51.098 C 170.874 51.592,171.137 51.689,172.460 51.885 C 174.281 52.154,174.699 52.404,175.239 53.544 C 175.489 54.073,175.853 54.538,176.159 54.719 C 177.173 55.318,177.205 56.033,176.248 56.763 C 175.880 57.044,175.593 57.470,175.419 57.993 C 175.098 58.959,174.805 59.243,173.877 59.490 C 173.422 59.612,172.918 59.934,172.460 60.398 C 171.496 61.376,170.691 61.500,165.309 61.500 C 159.944 61.500,158.423 61.244,157.977 60.266 C 157.851 59.990,157.466 59.769,156.609 59.482 C 155.578 59.137,155.372 59.000,155.088 58.470 C 153.766 56.000,159.156 55.225,162.000 57.477 C 162.848 58.149,163.024 58.185,165.424 58.183 C 167.397 58.182,168.422 58.027,168.663 57.693 C 168.949 57.297,170.339 56.476,170.864 56.392 C 172.752 56.091,172.142 55.436,169.750 55.197 C 167.703 54.993,166.174 54.555,165.589 54.005 C 165.054 53.502,164.300 53.348,161.583 53.183 C 158.879 53.019,158.160 52.789,157.651 51.927 C 157.406 51.512,157.111 51.280,156.657 51.144 C 155.451 50.783,155.250 50.390,155.250 48.390 L 155.250 46.639 155.794 46.153 C 156.094 45.886,156.469 45.664,156.628 45.661 C 156.992 45.655,157.340 45.377,157.713 44.794 C 158.138 44.130,158.659 43.847,159.767 43.677 C 161.276 43.446,172.604 43.568,173.407 43.824 M183.994 43.939 C 185.512 44.571,185.492 44.465,185.504 52.019 C 185.514 58.335,185.503 58.555,185.159 59.266 C 184.210 61.226,181.901 62.005,180.815 60.731 C 179.499 59.189,179.231 46.057,180.479 44.333 C 181.075 43.512,182.567 43.344,183.994 43.939 M212.444 43.903 C 214.601 45.208,213.036 47.308,210.134 47.002 C 208.050 46.783,199.356 46.785,198.725 47.005 C 198.454 47.099,198.101 47.400,197.939 47.673 C 197.572 48.295,196.677 48.758,195.550 48.911 C 194.550 49.047,194.436 49.150,194.167 50.167 C 194.058 50.579,193.853 51.047,193.711 51.206 C 192.686 52.354,194.829 55.612,196.930 56.101 C 198.967 56.574,200.106 57.000,200.660 57.494 C 201.602 58.335,206.834 58.474,207.804 57.683 C 208.049 57.483,208.529 57.191,208.871 57.035 C 209.547 56.724,209.929 56.065,209.754 55.512 C 209.650 55.185,209.525 55.167,207.343 55.167 C 204.733 55.167,203.911 54.968,203.046 54.131 L 202.508 53.609 203.029 52.680 C 204.161 50.662,204.484 50.500,207.367 50.501 C 210.660 50.503,212.015 50.704,213.555 51.417 C 215.273 52.214,215.333 52.358,215.333 55.670 C 215.333 58.991,215.300 59.056,213.250 59.678 C 212.883 59.789,212.307 60.127,211.970 60.429 C 210.961 61.332,210.574 61.388,204.870 61.458 C 198.767 61.532,198.138 61.455,197.098 60.496 C 196.488 59.933,196.229 59.825,194.911 59.582 C 193.332 59.290,192.214 58.768,191.794 58.127 C 191.654 57.914,191.213 57.521,190.812 57.253 C 189.229 56.196,188.800 55.325,188.585 52.736 C 188.379 50.259,188.998 48.365,190.165 47.898 C 190.650 47.704,190.863 47.497,190.997 47.093 C 191.268 46.270,191.798 45.885,193.083 45.575 C 193.985 45.357,194.378 45.163,194.814 44.718 C 195.921 43.587,196.446 43.528,205.083 43.559 C 211.497 43.582,211.949 43.603,212.444 43.903 M222.850 43.683 C 223.162 43.784,223.717 44.184,224.083 44.573 C 224.524 45.040,225.135 45.438,225.889 45.748 C 226.757 46.105,227.125 46.363,227.437 46.834 C 227.838 47.439,228.429 47.833,228.937 47.833 C 229.309 47.833,230.167 48.751,230.167 49.148 C 230.167 49.546,230.494 49.744,231.417 49.907 C 232.289 50.061,233.371 50.698,233.653 51.224 C 233.788 51.477,234.255 51.806,234.835 52.057 C 235.600 52.389,235.873 52.616,236.188 53.180 C 236.484 53.709,236.750 53.945,237.243 54.114 C 238.044 54.388,238.602 54.887,238.745 55.457 C 239.087 56.820,239.253 55.317,239.333 50.109 C 239.437 43.393,239.495 43.265,242.234 43.653 C 244.740 44.007,244.692 43.838,244.632 52.047 L 244.583 58.750 244.167 59.575 C 243.172 61.543,240.444 62.037,239.567 60.408 C 239.336 59.979,239.065 59.771,238.487 59.579 C 237.717 59.323,237.203 58.898,236.862 58.234 C 236.735 57.986,236.292 57.773,235.348 57.504 C 233.968 57.111,233.663 56.897,233.193 55.990 C 232.984 55.587,232.715 55.391,232.086 55.187 C 231.418 54.969,231.184 54.789,230.890 54.260 C 230.567 53.680,230.384 53.558,229.326 53.215 C 227.921 52.758,227.632 52.577,227.127 51.834 C 226.897 51.496,226.494 51.192,226.094 51.055 C 225.276 50.774,224.895 50.436,224.752 49.864 C 224.582 49.190,224.352 48.978,223.994 49.170 C 223.711 49.321,223.685 49.688,223.636 54.208 C 223.566 60.656,223.435 61.000,221.033 61.000 C 218.575 61.000,218.500 60.728,218.500 51.870 C 218.500 43.828,218.463 43.975,220.575 43.665 C 221.840 43.479,222.229 43.482,222.850 43.683 M260.715 43.677 C 261.668 43.942,263.439 45.778,263.686 46.758 C 263.854 47.423,263.968 47.558,264.645 47.882 C 265.356 48.222,265.500 48.395,266.000 49.500 C 266.063 49.637,266.374 49.875,266.692 50.028 C 267.449 50.392,267.603 50.596,268.006 51.768 C 268.234 52.431,268.586 52.995,269.093 53.509 C 269.507 53.930,269.980 54.634,270.151 55.086 C 270.403 55.749,270.566 55.937,271.022 56.089 C 271.707 56.318,272.250 57.078,272.400 58.016 C 272.461 58.401,272.697 58.936,272.923 59.204 C 273.456 59.838,273.441 60.047,272.822 60.567 C 271.428 61.740,269.830 61.633,269.160 60.320 C 268.908 59.826,268.625 59.565,268.093 59.337 C 267.517 59.091,267.272 58.845,266.893 58.139 L 266.417 57.250 259.937 57.250 L 253.458 57.250 252.604 57.667 C 251.860 58.030,251.662 58.242,251.058 59.327 C 250.115 61.022,249.906 61.167,248.411 61.167 C 247.001 61.167,246.167 60.686,246.167 59.875 C 246.167 59.418,246.917 58.000,247.158 58.000 C 247.237 58.000,247.416 57.665,247.555 57.256 C 247.863 56.352,248.722 55.071,249.186 54.823 C 249.372 54.723,249.743 54.156,250.009 53.564 C 250.395 52.703,250.605 52.439,251.051 52.253 C 251.690 51.986,251.908 51.756,252.082 51.167 C 252.253 50.589,252.781 50.049,253.307 49.917 C 253.928 49.761,254.167 49.522,254.167 49.055 C 254.167 48.480,254.612 47.674,255.288 47.025 C 255.608 46.718,256.086 45.989,256.351 45.404 C 256.908 44.176,257.323 43.847,258.540 43.669 C 259.819 43.483,260.018 43.484,260.715 43.677 M296.691 43.883 C 297.636 44.524,297.686 45.674,296.802 46.417 C 296.310 46.831,296.289 46.833,292.862 46.839 C 290.281 46.844,289.314 46.902,289.008 47.071 L 288.600 47.298 288.648 52.619 C 288.702 58.604,288.705 58.586,287.489 59.971 C 285.966 61.707,284.609 61.761,283.890 60.115 C 283.616 59.488,283.579 58.794,283.533 53.339 C 283.499 49.362,283.419 47.187,283.303 47.047 C 283.168 46.885,282.200 46.832,279.271 46.829 C 275.015 46.825,274.261 46.724,273.708 46.083 C 272.796 45.026,273.634 43.848,275.431 43.662 C 278.198 43.375,296.220 43.563,296.691 43.883 M323.954 43.779 C 324.996 44.273,325.035 44.536,324.968 50.569 C 324.897 56.944,324.869 57.063,323.304 57.558 C 323.150 57.607,322.876 57.981,322.696 58.390 C 322.385 59.093,322.304 59.153,321.189 59.505 C 320.378 59.760,319.926 60.005,319.741 60.287 C 319.077 61.301,318.394 61.417,313.083 61.417 C 307.749 61.417,307.268 61.335,306.752 60.336 C 306.549 59.945,306.335 59.848,305.147 59.609 C 303.444 59.268,303.114 59.054,302.595 57.957 C 302.365 57.473,302.013 57.009,301.803 56.917 C 300.644 56.406,300.435 55.112,300.525 48.992 C 300.576 45.533,300.619 45.013,300.888 44.603 C 301.584 43.542,304.214 43.267,305.206 44.153 L 305.750 44.639 305.833 50.127 C 305.927 56.307,305.873 56.065,307.210 56.226 C 308.743 56.411,309.385 56.671,310.060 57.378 L 310.703 58.053 312.738 58.131 L 314.773 58.209 315.367 57.688 C 316.082 57.061,317.489 56.405,318.449 56.252 C 319.645 56.061,319.830 55.230,319.841 49.986 C 319.849 45.673,319.940 45.083,320.693 44.453 C 321.698 43.613,323.025 43.338,323.954 43.779 M350.185 43.939 C 350.607 44.134,351.156 44.560,351.404 44.885 C 351.652 45.210,352.259 45.781,352.753 46.154 C 354.629 47.571,354.514 49.981,352.519 51.043 C 352.216 51.204,351.927 51.495,351.876 51.689 C 351.825 51.883,351.609 52.386,351.396 52.807 L 351.009 53.571 351.493 54.044 C 351.760 54.304,352.025 54.757,352.082 55.050 C 352.270 55.999,352.497 56.411,352.992 56.694 C 353.857 57.189,354.612 59.506,354.201 60.407 C 353.146 62.723,349.498 61.163,348.732 58.068 C 348.575 57.435,348.271 56.705,348.057 56.446 C 347.842 56.186,347.667 55.920,347.667 55.853 C 347.667 55.227,336.218 54.715,335.618 55.315 C 335.499 55.435,335.376 56.275,335.316 57.384 C 335.153 60.412,334.528 61.275,332.639 61.074 C 330.091 60.804,330.083 60.775,330.083 51.879 L 330.083 44.674 330.537 44.220 C 331.184 43.573,331.520 43.552,341.000 43.569 C 349.222 43.583,349.434 43.592,350.185 43.939 M376.989 43.920 C 377.855 44.428,378.089 45.152,377.614 45.857 C 376.954 46.836,377.016 46.828,369.812 46.831 C 362.208 46.834,362.793 46.691,362.867 48.526 L 362.917 49.750 368.667 49.833 C 374.992 49.925,375.021 49.930,375.801 50.990 L 376.185 51.512 375.660 52.175 C 374.794 53.269,374.953 53.242,368.805 53.333 C 365.719 53.379,363.145 53.466,363.085 53.526 C 362.871 53.740,362.797 56.090,362.982 56.775 C 363.248 57.751,363.111 57.730,369.917 57.828 C 376.901 57.928,376.782 57.906,377.727 59.313 L 378.205 60.025 377.728 60.533 C 376.812 61.507,376.872 61.500,368.547 61.496 C 359.868 61.492,360.108 61.527,358.951 60.115 C 357.707 58.596,357.720 58.695,357.824 51.633 L 357.917 45.349 358.582 44.668 C 359.707 43.517,359.742 43.513,368.583 43.550 C 376.107 43.582,376.439 43.597,376.989 43.920 M27.466 44.357 C 28.502 44.859,28.665 45.342,28.676 47.953 C 28.688 50.631,28.852 51.170,29.750 51.481 C 30.402 51.706,30.429 51.700,30.963 51.201 C 31.295 50.891,32.021 50.521,32.815 50.256 C 33.617 49.989,34.383 49.597,34.799 49.240 C 35.496 48.644,36.266 48.305,37.394 48.097 C 37.816 48.019,38.304 47.731,38.811 47.262 C 39.733 46.408,39.980 46.274,41.133 46.003 C 41.741 45.861,42.274 45.576,42.843 45.091 C 44.403 43.759,45.661 43.669,46.876 44.802 L 47.335 45.230 46.882 45.702 C 46.634 45.962,46.052 46.286,45.590 46.423 C 44.971 46.606,44.553 46.884,44.000 47.480 C 43.305 48.230,43.165 48.303,42.083 48.483 C 40.796 48.697,40.000 48.964,40.000 49.183 C 40.000 49.261,39.547 49.756,38.993 50.283 C 37.766 51.452,37.755 51.741,38.917 52.364 C 39.375 52.610,39.982 53.077,40.265 53.403 C 40.617 53.807,41.118 54.114,41.845 54.372 C 42.600 54.640,43.152 54.986,43.740 55.559 C 44.196 56.004,44.948 56.537,45.410 56.743 C 46.329 57.154,46.727 57.528,46.920 58.167 C 46.990 58.396,47.224 58.844,47.440 59.164 C 48.119 60.166,47.916 60.398,46.228 60.543 C 45.233 60.629,45.193 60.617,44.665 60.057 C 44.367 59.741,43.696 59.267,43.174 59.004 C 42.652 58.740,42.022 58.259,41.775 57.934 C 41.465 57.528,41.104 57.286,40.620 57.158 C 39.674 56.909,38.609 56.274,38.271 55.758 C 38.118 55.526,37.602 55.140,37.122 54.900 C 36.642 54.660,35.943 54.135,35.568 53.732 C 34.980 53.101,34.794 53.000,34.214 53.000 C 33.844 53.000,33.309 52.954,33.026 52.897 C 32.562 52.804,32.419 52.887,31.630 53.707 C 31.146 54.209,30.563 54.679,30.333 54.751 C 30.104 54.823,29.625 55.066,29.269 55.291 L 28.621 55.700 28.716 56.831 C 28.880 58.789,26.896 61.253,25.905 60.322 C 25.073 59.541,25.000 58.840,25.000 51.624 L 25.000 44.974 25.487 44.487 C 26.068 43.907,26.480 43.880,27.466 44.357 M55.111 44.332 C 56.550 44.657,56.467 44.226,56.520 51.676 L 56.566 58.269 56.158 59.087 C 55.370 60.667,53.608 60.930,52.917 59.572 C 52.498 58.749,52.300 45.602,52.695 44.864 C 52.937 44.412,53.638 43.989,54.000 44.077 C 54.137 44.110,54.638 44.225,55.111 44.332 M73.572 44.235 C 74.307 44.542,75.696 45.912,76.125 46.752 C 76.312 47.118,76.768 47.660,77.138 47.957 C 77.509 48.255,78.009 48.860,78.249 49.303 C 78.490 49.745,78.899 50.232,79.158 50.385 C 79.416 50.538,79.785 50.996,79.976 51.403 C 80.168 51.811,80.736 52.605,81.239 53.169 C 81.741 53.732,82.380 54.535,82.657 54.954 C 82.934 55.372,83.317 55.824,83.509 55.958 C 84.385 56.572,84.833 57.491,84.833 58.671 C 84.833 59.894,84.768 60.000,83.802 60.342 L 83.188 60.559 81.162 58.530 L 79.137 56.500 72.638 56.500 L 66.139 56.500 64.139 58.500 C 61.977 60.663,62.047 60.619,61.325 60.246 C 60.374 59.754,60.680 57.227,61.802 56.306 C 62.063 56.092,62.471 55.576,62.708 55.160 C 62.946 54.743,63.457 54.068,63.845 53.660 C 64.233 53.251,64.794 52.542,65.092 52.083 C 65.390 51.625,65.909 50.987,66.246 50.667 C 66.583 50.346,67.045 49.691,67.273 49.211 C 67.524 48.684,67.887 48.223,68.193 48.045 C 68.471 47.883,68.850 47.450,69.034 47.083 C 70.065 45.038,72.235 43.676,73.572 44.235 M92.297 44.258 C 92.638 44.401,93.142 44.734,93.417 45.000 C 93.692 45.266,94.418 45.711,95.031 45.989 C 95.794 46.334,96.321 46.712,96.698 47.183 C 97.031 47.599,97.584 48.020,98.092 48.246 C 98.607 48.474,99.147 48.888,99.481 49.310 C 99.782 49.689,100.094 50.000,100.174 50.000 C 100.778 50.000,102.248 50.784,102.869 51.438 C 103.262 51.851,103.931 52.378,104.355 52.610 C 104.780 52.842,105.230 53.223,105.355 53.458 C 105.495 53.720,105.972 54.059,106.592 54.337 C 107.146 54.586,107.800 55.027,108.043 55.316 L 108.486 55.843 108.763 55.420 C 109.417 54.421,109.485 53.866,109.493 49.446 L 109.500 45.141 109.987 44.654 C 110.428 44.213,110.580 44.167,111.583 44.167 C 112.587 44.167,112.739 44.213,113.179 44.654 L 113.667 45.141 113.666 51.612 C 113.665 55.764,113.600 58.318,113.483 58.737 C 113.021 60.401,111.061 61.046,109.834 59.937 C 109.468 59.607,108.830 59.177,108.417 58.983 C 108.003 58.788,107.435 58.339,107.154 57.984 C 106.789 57.523,106.416 57.272,105.843 57.102 C 104.716 56.767,104.171 56.453,103.500 55.753 C 103.179 55.418,102.574 54.957,102.155 54.729 C 101.736 54.500,101.260 54.087,101.097 53.811 C 100.892 53.464,100.427 53.140,99.582 52.754 C 98.911 52.449,98.278 52.042,98.176 51.851 C 98.074 51.660,97.447 51.205,96.784 50.841 C 96.121 50.477,95.254 49.839,94.858 49.423 C 94.039 48.564,93.574 48.472,93.022 49.060 C 92.658 49.448,92.652 49.523,92.672 53.935 C 92.702 60.576,92.171 61.587,89.851 59.306 C 88.905 58.376,88.909 58.420,89.000 51.733 C 89.094 44.824,89.044 45.090,90.363 44.433 C 91.380 43.926,91.479 43.917,92.297 44.258 M130.769 44.189 C 131.743 44.434,132.379 45.089,132.861 46.344 C 133.143 47.079,133.445 47.518,133.962 47.943 C 134.354 48.265,134.820 48.814,134.998 49.162 C 135.175 49.510,135.626 50.037,136.000 50.333 C 136.374 50.629,136.823 51.153,136.999 51.498 C 137.175 51.843,137.618 52.408,137.983 52.754 C 138.348 53.100,138.885 53.831,139.177 54.377 C 139.468 54.924,140.118 55.761,140.621 56.236 C 141.419 56.991,141.596 57.282,142.006 58.509 C 142.564 60.179,142.528 60.252,141.048 60.416 L 140.012 60.531 139.445 59.913 C 139.134 59.573,138.670 58.947,138.413 58.523 C 138.096 57.997,137.615 57.541,136.907 57.096 L 135.867 56.443 130.392 56.470 C 127.380 56.485,124.497 56.498,123.983 56.499 L 123.050 56.500 121.725 57.792 C 120.997 58.502,120.118 59.440,119.773 59.875 C 119.075 60.755,118.834 60.818,118.037 60.332 L 117.491 59.999 117.598 58.875 C 117.724 57.550,117.918 57.192,118.848 56.557 C 119.355 56.211,119.624 55.863,119.849 55.264 C 120.018 54.813,120.375 54.213,120.643 53.930 C 120.911 53.648,121.468 52.885,121.881 52.234 C 122.294 51.584,122.855 50.871,123.129 50.651 C 123.402 50.430,123.813 49.948,124.041 49.580 C 124.269 49.211,124.802 48.626,125.224 48.281 C 125.750 47.850,126.054 47.440,126.192 46.980 C 126.774 45.038,128.928 43.725,130.769 44.189 M335.533 47.033 C 335.174 47.393,335.296 49.723,335.747 51.106 C 335.792 51.245,336.069 51.234,336.779 51.067 C 337.421 50.916,338.831 50.838,340.943 50.836 C 343.773 50.834,344.315 50.787,345.693 50.431 C 346.550 50.210,347.524 49.983,347.858 49.927 C 349.494 49.652,348.704 47.483,346.801 47.023 C 345.683 46.752,335.805 46.761,335.533 47.033 M70.977 49.813 C 70.021 50.792,69.497 51.466,69.420 51.817 C 69.356 52.108,69.034 52.608,68.705 52.928 C 67.274 54.318,68.247 54.666,73.333 54.586 C 77.040 54.527,77.794 54.182,76.603 53.091 C 76.267 52.783,75.956 52.288,75.849 51.892 C 75.725 51.430,75.391 50.955,74.792 50.384 C 74.311 49.926,73.671 49.278,73.371 48.943 C 72.636 48.123,72.622 48.128,70.977 49.813 M127.888 49.753 C 126.756 50.935,126.509 51.291,126.415 51.878 C 126.353 52.266,126.159 52.831,125.984 53.135 C 125.580 53.836,125.550 53.752,126.375 54.229 C 127.355 54.795,133.833 54.737,133.833 54.162 C 133.833 54.088,133.873 53.923,133.922 53.795 C 133.972 53.667,133.754 53.298,133.437 52.971 C 133.120 52.645,132.790 52.121,132.703 51.805 C 132.392 50.677,131.435 49.445,130.326 48.745 C 129.412 48.168,129.402 48.172,127.888 49.753 M259.311 49.166 C 258.160 49.852,257.259 51.271,257.383 52.200 C 257.519 53.215,257.692 53.325,258.970 53.221 C 259.717 53.160,260.410 53.216,261.077 53.392 C 262.220 53.693,262.245 53.675,262.407 52.452 C 262.532 51.515,262.429 51.338,261.487 50.868 C 261.173 50.711,260.820 50.359,260.700 50.083 C 260.321 49.211,260.223 49.084,259.900 49.043 C 259.726 49.021,259.461 49.077,259.311 49.166 M384.668 63.444 C 385.951 64.523,386.081 66.947,384.888 67.549 C 384.085 67.955,17.414 68.224,16.625 67.819 C 16.101 67.551,15.000 66.474,15.000 66.230 C 15.000 65.897,16.289 64.981,17.102 64.736 C 17.741 64.544,35.515 64.507,129.972 64.503 C 237.965 64.498,288.413 64.357,309.250 64.002 C 314.658 63.909,325.233 63.761,332.750 63.671 C 340.267 63.582,353.242 63.427,361.583 63.327 C 369.925 63.227,378.363 63.129,380.333 63.111 C 382.304 63.092,383.967 63.059,384.029 63.038 C 384.091 63.017,384.378 63.200,384.668 63.444 " stroke="none" fill="#fbfbfb" fill-rule="evenodd"></path><path id="path2" d="M347.250 36.186 C 244.358 36.553,195.474 36.689,110.667 36.843 C 51.525 36.951,17.529 37.071,17.143 37.174 C 16.777 37.272,16.234 37.648,15.772 38.123 L 15.008 38.909 15.530 39.448 C 15.818 39.745,16.296 40.103,16.594 40.244 C 17.429 40.640,384.088 40.635,384.855 40.239 C 386.252 39.516,385.474 35.911,383.946 36.028 C 383.747 36.043,367.233 36.114,347.250 36.186 M384.632 38.308 L 384.993 38.949 384.611 39.308 L 384.229 39.667 292.739 39.691 C 242.420 39.705,159.971 39.761,109.520 39.816 L 17.789 39.917 17.145 39.532 C 16.355 39.061,16.337 38.808,17.057 38.259 L 17.615 37.833 200.266 37.792 C 300.724 37.769,383.222 37.731,383.594 37.708 C 384.224 37.670,384.298 37.713,384.632 38.308 M159.767 43.677 C 158.659 43.847,158.138 44.130,157.713 44.794 C 157.340 45.377,156.992 45.655,156.628 45.661 C 156.469 45.664,156.094 45.886,155.794 46.153 L 155.250 46.639 155.250 48.390 C 155.250 50.390,155.451 50.783,156.657 51.144 C 157.111 51.280,157.406 51.512,157.651 51.927 C 158.160 52.789,158.879 53.019,161.583 53.183 C 164.300 53.348,165.054 53.502,165.589 54.005 C 166.174 54.555,167.703 54.993,169.750 55.197 C 172.142 55.436,172.752 56.091,170.864 56.392 C 170.339 56.476,168.949 57.297,168.663 57.693 C 168.422 58.027,167.397 58.182,165.424 58.183 C 163.024 58.185,162.848 58.149,162.000 57.477 C 159.156 55.225,153.766 56.000,155.088 58.470 C 155.372 59.000,155.578 59.137,156.609 59.482 C 157.466 59.769,157.851 59.990,157.977 60.266 C 158.423 61.244,159.944 61.500,165.309 61.500 C 170.691 61.500,171.496 61.376,172.460 60.398 C 172.918 59.934,173.422 59.612,173.877 59.490 C 174.805 59.243,175.098 58.959,175.419 57.993 C 175.593 57.470,175.880 57.044,176.248 56.763 C 177.205 56.033,177.173 55.318,176.159 54.719 C 175.853 54.538,175.489 54.073,175.239 53.544 C 174.699 52.404,174.281 52.154,172.460 51.885 C 171.137 51.689,170.874 51.592,170.328 51.098 C 169.443 50.299,168.075 50.029,164.228 49.897 C 160.574 49.770,160.667 49.811,160.667 48.346 C 160.667 46.765,160.475 46.833,164.938 46.833 C 170.203 46.833,171.244 46.982,171.968 47.838 C 172.678 48.678,173.495 48.931,174.286 48.555 C 175.983 47.750,175.370 44.450,173.407 43.824 C 172.604 43.568,161.276 43.446,159.767 43.677 M181.349 43.711 C 179.995 44.201,179.799 45.281,179.764 52.417 C 179.732 59.105,180.042 60.605,181.595 61.263 C 182.695 61.729,184.440 60.751,185.159 59.266 C 185.539 58.481,185.706 46.061,185.349 45.128 C 184.929 44.029,182.677 43.231,181.349 43.711 M197.250 43.663 C 195.937 43.832,195.494 44.024,194.814 44.718 C 194.378 45.163,193.985 45.357,193.083 45.575 C 191.798 45.885,191.268 46.270,190.997 47.093 C 190.863 47.497,190.650 47.704,190.165 47.898 C 188.998 48.365,188.379 50.259,188.585 52.736 C 188.800 55.325,189.229 56.196,190.812 57.253 C 191.213 57.521,191.654 57.914,191.794 58.127 C 192.214 58.768,193.332 59.290,194.911 59.582 C 196.229 59.825,196.488 59.933,197.098 60.496 C 198.138 61.455,198.767 61.532,204.870 61.458 C 210.574 61.388,210.961 61.332,211.970 60.429 C 212.307 60.127,212.883 59.789,213.250 59.678 C 215.300 59.056,215.333 58.991,215.333 55.670 C 215.333 52.358,215.273 52.214,213.555 51.417 C 212.015 50.704,210.660 50.503,207.367 50.501 C 204.484 50.500,204.161 50.662,203.029 52.680 L 202.508 53.609 203.046 54.131 C 203.911 54.968,204.733 55.167,207.343 55.167 C 209.525 55.167,209.650 55.185,209.754 55.512 C 209.929 56.065,209.547 56.724,208.871 57.035 C 208.529 57.191,208.049 57.483,207.804 57.683 C 206.834 58.474,201.602 58.335,200.660 57.494 C 200.106 57.000,198.967 56.574,196.930 56.101 C 194.829 55.612,192.686 52.354,193.711 51.206 C 193.853 51.047,194.058 50.579,194.167 50.167 C 194.436 49.150,194.550 49.047,195.550 48.911 C 196.677 48.758,197.572 48.295,197.939 47.673 C 198.101 47.400,198.454 47.099,198.725 47.005 C 199.356 46.785,208.050 46.783,210.134 47.002 C 213.036 47.308,214.601 45.208,212.444 43.903 C 211.873 43.557,199.581 43.363,197.250 43.663 M220.575 43.665 C 218.463 43.975,218.500 43.828,218.500 51.870 C 218.500 60.728,218.575 61.000,221.033 61.000 C 223.435 61.000,223.566 60.656,223.636 54.208 C 223.685 49.688,223.711 49.321,223.994 49.170 C 224.352 48.978,224.582 49.190,224.752 49.864 C 224.895 50.436,225.276 50.774,226.094 51.055 C 226.494 51.192,226.897 51.496,227.127 51.834 C 227.632 52.577,227.921 52.758,229.326 53.215 C 230.384 53.558,230.567 53.680,230.890 54.260 C 231.184 54.789,231.418 54.969,232.086 55.187 C 232.715 55.391,232.984 55.587,233.193 55.990 C 233.663 56.897,233.968 57.111,235.348 57.504 C 236.292 57.773,236.735 57.986,236.862 58.234 C 237.203 58.898,237.717 59.323,238.487 59.579 C 239.065 59.771,239.336 59.979,239.567 60.408 C 240.444 62.037,243.172 61.543,244.167 59.575 L 244.583 58.750 244.632 52.047 C 244.692 43.838,244.740 44.007,242.234 43.653 C 239.495 43.265,239.437 43.393,239.333 50.109 C 239.253 55.317,239.087 56.820,238.745 55.457 C 238.602 54.887,238.044 54.388,237.243 54.114 C 236.750 53.945,236.484 53.709,236.188 53.180 C 235.873 52.616,235.600 52.389,234.835 52.057 C 234.255 51.806,233.788 51.477,233.653 51.224 C 233.371 50.698,232.289 50.061,231.417 49.907 C 230.494 49.744,230.167 49.546,230.167 49.148 C 230.167 48.751,229.309 47.833,228.937 47.833 C 228.429 47.833,227.838 47.439,227.437 46.834 C 227.125 46.363,226.757 46.105,225.889 45.748 C 225.135 45.438,224.524 45.040,224.083 44.573 C 223.121 43.552,222.477 43.386,220.575 43.665 M258.540 43.669 C 257.323 43.847,256.908 44.176,256.351 45.404 C 256.086 45.989,255.608 46.718,255.288 47.025 C 254.612 47.674,254.167 48.480,254.167 49.055 C 254.167 49.522,253.928 49.761,253.307 49.917 C 252.781 50.049,252.253 50.589,252.082 51.167 C 251.908 51.756,251.690 51.986,251.051 52.253 C 250.605 52.439,250.395 52.703,250.009 53.564 C 249.743 54.156,249.372 54.723,249.186 54.823 C 248.722 55.071,247.863 56.352,247.555 57.256 C 247.416 57.665,247.237 58.000,247.158 58.000 C 246.917 58.000,246.167 59.418,246.167 59.875 C 246.167 60.686,247.001 61.167,248.411 61.167 C 249.906 61.167,250.115 61.022,251.058 59.327 C 251.662 58.242,251.860 58.030,252.604 57.667 L 253.458 57.250 259.937 57.250 L 266.417 57.250 266.893 58.139 C 267.272 58.845,267.517 59.091,268.093 59.337 C 268.625 59.565,268.908 59.826,269.160 60.320 C 269.830 61.633,271.428 61.740,272.822 60.567 C 273.441 60.047,273.456 59.838,272.923 59.204 C 272.697 58.936,272.461 58.401,272.400 58.016 C 272.250 57.078,271.707 56.318,271.022 56.089 C 270.566 55.937,270.403 55.749,270.151 55.086 C 269.980 54.634,269.507 53.930,269.093 53.509 C 268.586 52.995,268.234 52.431,268.006 51.768 C 267.603 50.596,267.449 50.392,266.692 50.028 C 266.374 49.875,266.063 49.637,266.000 49.500 C 265.500 48.395,265.356 48.222,264.645 47.882 C 263.968 47.558,263.854 47.423,263.686 46.758 C 263.540 46.178,263.246 45.752,262.421 44.927 C 261.033 43.539,260.536 43.378,258.540 43.669 M275.431 43.662 C 273.634 43.848,272.796 45.026,273.708 46.083 C 274.261 46.724,275.015 46.825,279.271 46.829 C 282.200 46.832,283.168 46.885,283.303 47.047 C 283.419 47.187,283.499 49.362,283.533 53.339 C 283.579 58.794,283.616 59.488,283.890 60.115 C 284.609 61.761,285.966 61.707,287.489 59.971 C 288.705 58.586,288.702 58.604,288.648 52.619 L 288.600 47.298 289.008 47.071 C 289.314 46.902,290.281 46.844,292.862 46.839 C 296.289 46.833,296.310 46.831,296.802 46.417 C 297.686 45.674,297.636 44.524,296.691 43.883 C 296.220 43.563,278.198 43.375,275.431 43.662 M322.000 43.755 C 320.028 44.365,319.851 44.876,319.841 49.986 C 319.830 55.230,319.645 56.061,318.449 56.252 C 317.489 56.405,316.082 57.061,315.367 57.688 L 314.773 58.209 312.738 58.131 L 310.703 58.053 310.060 57.378 C 309.385 56.671,308.743 56.411,307.210 56.226 C 305.873 56.065,305.927 56.307,305.833 50.127 L 305.750 44.639 305.206 44.153 C 304.214 43.267,301.584 43.542,300.888 44.603 C 300.619 45.013,300.576 45.533,300.525 48.992 C 300.435 55.112,300.644 56.406,301.803 56.917 C 302.013 57.009,302.365 57.473,302.595 57.957 C 303.114 59.054,303.444 59.268,305.147 59.609 C 306.335 59.848,306.549 59.945,306.752 60.336 C 307.620 62.017,318.635 61.975,319.741 60.287 C 319.926 60.005,320.378 59.760,321.189 59.505 C 322.304 59.153,322.385 59.093,322.696 58.390 C 322.876 57.981,323.150 57.607,323.304 57.558 C 324.869 57.063,324.897 56.944,324.968 50.569 C 325.035 44.536,324.996 44.273,323.954 43.779 C 323.260 43.450,322.998 43.446,322.000 43.755 M331.787 43.660 C 331.237 43.734,330.851 43.906,330.537 44.220 L 330.083 44.674 330.083 51.879 C 330.083 60.775,330.091 60.804,332.639 61.074 C 334.528 61.275,335.153 60.412,335.316 57.384 C 335.376 56.275,335.499 55.435,335.618 55.315 C 336.218 54.715,347.667 55.227,347.667 55.853 C 347.667 55.920,347.842 56.186,348.057 56.446 C 348.271 56.705,348.575 57.435,348.732 58.068 C 349.498 61.163,353.146 62.723,354.201 60.407 C 354.612 59.506,353.857 57.189,352.992 56.694 C 352.497 56.411,352.270 55.999,352.082 55.050 C 352.025 54.757,351.760 54.304,351.493 54.044 L 351.009 53.571 351.396 52.807 C 351.609 52.386,351.825 51.883,351.876 51.689 C 351.927 51.495,352.216 51.204,352.519 51.043 C 354.514 49.981,354.629 47.571,352.753 46.154 C 352.259 45.781,351.652 45.210,351.404 44.885 C 350.405 43.576,350.478 43.585,341.000 43.569 C 336.371 43.561,332.225 43.602,331.787 43.660 M359.999 43.752 C 359.545 43.894,358.984 44.256,358.582 44.668 L 357.917 45.349 357.824 51.633 C 357.720 58.695,357.707 58.596,358.951 60.115 C 360.108 61.527,359.868 61.492,368.547 61.496 C 376.872 61.500,376.812 61.507,377.728 60.533 L 378.205 60.025 377.727 59.313 C 376.782 57.906,376.901 57.928,369.917 57.828 C 363.111 57.730,363.248 57.751,362.982 56.775 C 362.797 56.090,362.871 53.740,363.085 53.526 C 363.145 53.466,365.719 53.379,368.805 53.333 C 374.953 53.242,374.794 53.269,375.660 52.175 L 376.185 51.512 375.801 50.990 C 375.021 49.930,374.992 49.925,368.667 49.833 L 362.917 49.750 362.867 48.526 C 362.793 46.691,362.208 46.834,369.812 46.831 C 377.016 46.828,376.954 46.836,377.614 45.857 C 378.089 45.152,377.855 44.428,376.989 43.920 C 376.235 43.477,361.349 43.330,359.999 43.752 M25.487 44.487 L 25.000 44.974 25.000 51.624 C 25.000 58.840,25.073 59.541,25.905 60.322 C 26.896 61.253,28.880 58.789,28.716 56.831 L 28.621 55.700 29.269 55.291 C 29.625 55.066,30.104 54.823,30.333 54.751 C 30.563 54.679,31.146 54.209,31.630 53.707 C 32.419 52.887,32.562 52.804,33.026 52.897 C 33.309 52.954,33.844 53.000,34.214 53.000 C 34.794 53.000,34.980 53.101,35.568 53.732 C 35.943 54.135,36.642 54.660,37.122 54.900 C 37.602 55.140,38.118 55.526,38.271 55.758 C 38.609 56.274,39.674 56.909,40.620 57.158 C 41.104 57.286,41.465 57.528,41.775 57.934 C 42.022 58.259,42.652 58.740,43.174 59.004 C 43.696 59.267,44.367 59.741,44.665 60.057 C 45.193 60.617,45.233 60.629,46.228 60.543 C 47.916 60.398,48.119 60.166,47.440 59.164 C 47.224 58.844,46.990 58.396,46.920 58.167 C 46.727 57.528,46.329 57.154,45.410 56.743 C 44.948 56.537,44.196 56.004,43.740 55.559 C 43.152 54.986,42.600 54.640,41.845 54.372 C 41.118 54.114,40.617 53.807,40.265 53.403 C 39.982 53.077,39.375 52.610,38.917 52.364 C 37.755 51.741,37.766 51.452,38.993 50.283 C 39.547 49.756,40.000 49.261,40.000 49.183 C 40.000 48.964,40.796 48.697,42.083 48.483 C 43.165 48.303,43.305 48.230,44.000 47.480 C 44.553 46.884,44.971 46.606,45.590 46.423 C 46.052 46.286,46.634 45.962,46.882 45.702 L 47.335 45.230 46.876 44.802 C 45.661 43.669,44.403 43.759,42.843 45.091 C 42.274 45.576,41.741 45.861,41.133 46.003 C 39.980 46.274,39.733 46.408,38.811 47.262 C 38.304 47.731,37.816 48.019,37.394 48.097 C 36.266 48.305,35.496 48.644,34.799 49.240 C 34.383 49.597,33.617 49.989,32.815 50.256 C 32.021 50.521,31.295 50.891,30.963 51.201 C 30.429 51.700,30.402 51.706,29.750 51.481 C 28.852 51.170,28.688 50.631,28.676 47.953 C 28.665 45.342,28.502 44.859,27.466 44.357 C 26.480 43.880,26.068 43.907,25.487 44.487 M53.327 44.245 C 52.488 44.698,52.482 44.760,52.535 52.086 C 52.587 59.443,52.637 59.854,53.541 60.404 C 54.169 60.786,55.693 60.018,56.158 59.087 L 56.566 58.269 56.520 51.676 C 56.467 44.226,56.550 44.657,55.111 44.332 C 54.638 44.225,54.137 44.110,54.000 44.077 C 53.862 44.044,53.560 44.119,53.327 44.245 M71.800 44.237 C 71.100 44.602,69.407 46.345,69.034 47.083 C 68.850 47.450,68.471 47.883,68.193 48.045 C 67.887 48.223,67.524 48.684,67.273 49.211 C 67.045 49.691,66.583 50.346,66.246 50.667 C 65.909 50.987,65.390 51.625,65.092 52.083 C 64.794 52.542,64.233 53.251,63.845 53.660 C 63.457 54.068,62.946 54.743,62.708 55.160 C 62.471 55.576,62.063 56.092,61.802 56.306 C 60.680 57.227,60.374 59.754,61.325 60.246 C 62.047 60.619,61.977 60.663,64.139 58.500 L 66.139 56.500 72.638 56.500 L 79.137 56.500 81.162 58.530 L 83.188 60.559 83.802 60.342 C 84.768 60.000,84.833 59.894,84.833 58.671 C 84.833 57.491,84.385 56.572,83.509 55.958 C 83.317 55.824,82.934 55.372,82.657 54.954 C 82.380 54.535,81.741 53.732,81.239 53.169 C 80.736 52.605,80.168 51.811,79.976 51.403 C 79.785 50.996,79.416 50.538,79.158 50.385 C 78.899 50.232,78.490 49.745,78.249 49.303 C 78.009 48.860,77.509 48.255,77.138 47.957 C 76.768 47.660,76.312 47.118,76.125 46.752 C 75.145 44.831,73.024 43.598,71.800 44.237 M90.363 44.433 C 89.044 45.090,89.094 44.824,89.000 51.733 C 88.909 58.420,88.905 58.376,89.851 59.306 C 92.171 61.587,92.702 60.576,92.672 53.935 C 92.652 49.523,92.658 49.448,93.022 49.060 C 93.574 48.472,94.039 48.564,94.858 49.423 C 95.254 49.839,96.121 50.477,96.784 50.841 C 97.447 51.205,98.074 51.660,98.176 51.851 C 98.278 52.042,98.911 52.449,99.582 52.754 C 100.427 53.140,100.892 53.464,101.097 53.811 C 101.260 54.087,101.736 54.500,102.155 54.729 C 102.574 54.957,103.179 55.418,103.500 55.753 C 104.171 56.453,104.716 56.767,105.843 57.102 C 106.416 57.272,106.789 57.523,107.154 57.984 C 107.435 58.339,108.003 58.788,108.417 58.983 C 108.830 59.177,109.468 59.607,109.834 59.937 C 111.061 61.046,113.021 60.401,113.483 58.737 C 113.600 58.318,113.665 55.764,113.666 51.612 L 113.667 45.141 113.179 44.654 C 112.739 44.213,112.587 44.167,111.583 44.167 C 110.580 44.167,110.428 44.213,109.987 44.654 L 109.500 45.141 109.493 49.446 C 109.485 53.866,109.417 54.421,108.763 55.420 L 108.486 55.843 108.043 55.316 C 107.800 55.027,107.146 54.586,106.592 54.337 C 105.972 54.059,105.495 53.720,105.355 53.458 C 105.230 53.223,104.780 52.842,104.355 52.610 C 103.931 52.378,103.262 51.851,102.869 51.438 C 102.248 50.784,100.778 50.000,100.174 50.000 C 100.094 50.000,99.782 49.689,99.481 49.310 C 99.147 48.888,98.607 48.474,98.092 48.246 C 97.584 48.020,97.031 47.599,96.698 47.183 C 96.321 46.712,95.794 46.334,95.031 45.989 C 94.418 45.711,93.692 45.266,93.417 45.000 C 92.361 43.980,91.568 43.833,90.363 44.433 M128.583 44.280 C 127.764 44.717,126.413 46.243,126.192 46.980 C 126.054 47.440,125.750 47.850,125.224 48.281 C 124.802 48.626,124.269 49.211,124.041 49.580 C 123.813 49.948,123.402 50.430,123.129 50.651 C 122.855 50.871,122.294 51.584,121.881 52.234 C 121.468 52.885,120.911 53.648,120.643 53.930 C 120.375 54.213,120.018 54.813,119.849 55.264 C 119.624 55.863,119.355 56.211,118.848 56.557 C 117.918 57.192,117.724 57.550,117.598 58.875 L 117.491 59.999 118.037 60.332 C 118.834 60.818,119.075 60.755,119.773 59.875 C 120.118 59.440,120.997 58.502,121.725 57.792 L 123.050 56.500 123.983 56.499 C 124.497 56.498,127.380 56.485,130.392 56.470 L 135.867 56.443 136.907 57.096 C 137.615 57.541,138.096 57.997,138.413 58.523 C 138.670 58.947,139.134 59.573,139.445 59.913 L 140.012 60.531 141.048 60.416 C 142.528 60.252,142.564 60.179,142.006 58.509 C 141.596 57.282,141.419 56.991,140.621 56.236 C 140.118 55.761,139.468 54.924,139.177 54.377 C 138.885 53.831,138.348 53.100,137.983 52.754 C 137.618 52.408,137.175 51.843,136.999 51.498 C 136.823 51.153,136.374 50.629,136.000 50.333 C 135.626 50.037,135.175 49.510,134.998 49.162 C 134.820 48.814,134.354 48.265,133.962 47.943 C 133.445 47.518,133.143 47.079,132.861 46.344 C 132.105 44.377,130.161 43.438,128.583 44.280 M172.667 44.606 C 173.633 45.044,173.802 45.264,174.040 46.399 C 174.344 47.852,173.443 48.355,172.853 47.061 C 172.574 46.448,171.685 46.330,166.489 46.220 C 159.979 46.081,160.000 46.075,160.000 48.263 C 160.000 50.154,160.391 50.500,162.529 50.501 C 165.113 50.503,168.667 51.185,168.667 51.679 C 168.667 51.970,169.432 52.213,171.068 52.442 C 173.532 52.786,173.981 52.936,174.305 53.525 C 174.458 53.802,174.818 54.410,175.105 54.874 L 175.627 55.719 175.232 56.568 C 175.014 57.035,174.836 57.540,174.835 57.691 C 174.832 58.128,173.777 58.940,173.062 59.054 C 172.705 59.111,172.062 59.380,171.633 59.652 C 169.089 61.266,162.404 61.315,159.250 59.743 C 158.425 59.332,157.555 58.997,157.316 58.998 C 156.789 59.000,155.773 58.346,155.698 57.955 C 155.412 56.472,159.932 56.590,160.499 58.080 C 160.792 58.852,161.151 58.917,165.167 58.917 C 169.449 58.917,169.675 58.879,170.139 58.093 C 170.325 57.777,170.774 57.367,171.135 57.183 C 173.140 56.160,172.907 54.867,170.667 54.582 C 169.349 54.414,167.983 53.899,167.590 53.421 C 167.121 52.853,166.160 52.676,163.511 52.671 C 160.853 52.666,159.658 52.393,158.699 51.573 C 158.344 51.268,157.635 50.834,157.124 50.608 C 155.219 49.766,155.234 47.010,157.149 46.213 C 157.479 46.075,158.067 45.671,158.455 45.315 C 158.842 44.958,159.217 44.663,159.288 44.659 C 159.359 44.655,159.787 44.554,160.240 44.435 C 161.741 44.040,171.720 44.177,172.667 44.606 M183.004 44.502 C 184.265 45.145,184.238 44.999,184.348 51.826 L 184.446 57.917 183.704 59.029 C 182.409 60.973,181.686 60.924,181.013 58.847 C 180.643 57.704,180.503 48.878,180.811 46.100 C 181.003 44.372,181.722 43.848,183.004 44.502 M211.891 44.551 C 212.600 45.016,212.628 45.320,212.013 45.870 L 211.471 46.354 207.111 46.250 C 204.712 46.192,201.600 46.214,200.194 46.298 L 197.638 46.450 196.974 47.134 C 196.563 47.558,195.950 47.953,195.365 48.172 C 194.191 48.611,194.019 48.753,193.650 49.583 C 193.487 49.950,193.087 50.508,192.760 50.824 C 191.897 51.660,192.033 53.023,193.096 54.202 C 193.403 54.543,193.841 55.117,194.069 55.478 C 194.499 56.159,194.502 56.160,197.022 56.897 C 198.049 57.197,198.759 57.669,198.912 58.153 C 199.123 58.818,199.846 58.917,204.500 58.917 C 209.602 58.917,209.455 58.955,210.014 57.465 C 210.513 56.135,210.516 55.392,210.027 54.704 L 209.644 54.167 207.413 54.167 C 204.405 54.167,203.916 53.938,204.737 52.917 L 205.139 52.417 207.444 52.417 C 208.712 52.417,210.133 52.327,210.600 52.217 C 211.941 51.903,213.619 52.191,214.208 52.836 C 214.664 53.335,214.667 53.355,214.667 55.724 C 214.667 58.631,214.650 58.656,212.402 59.203 C 211.585 59.401,210.690 59.732,210.413 59.939 C 209.361 60.724,205.826 61.020,201.593 60.679 C 198.980 60.468,198.625 60.372,198.083 59.728 C 197.810 59.402,197.461 59.288,196.131 59.091 C 194.324 58.824,194.070 58.720,193.000 57.809 C 192.588 57.459,191.838 56.848,191.335 56.452 C 188.857 54.504,188.428 49.127,190.693 48.408 C 190.861 48.355,191.239 47.960,191.532 47.531 C 192.250 46.479,192.358 46.415,193.965 46.078 C 195.100 45.840,195.472 45.681,195.953 45.226 C 196.500 44.711,197.096 44.458,198.167 44.290 C 199.736 44.043,211.456 44.266,211.891 44.551 M222.686 44.459 C 222.926 44.619,223.319 44.984,223.558 45.271 C 223.798 45.557,224.416 45.998,224.932 46.250 C 225.448 46.503,226.133 46.943,226.453 47.230 C 226.774 47.516,227.493 47.975,228.052 48.250 C 228.768 48.602,229.218 48.965,229.576 49.479 C 229.924 49.978,230.312 50.297,230.809 50.491 C 231.208 50.647,231.883 51.058,232.309 51.404 C 232.735 51.751,233.508 52.249,234.026 52.512 C 234.576 52.790,235.223 53.300,235.581 53.736 C 235.920 54.150,236.436 54.563,236.738 54.663 C 237.319 54.855,237.925 55.410,238.236 56.035 C 238.504 56.576,239.021 56.593,239.506 56.077 L 239.917 55.640 239.972 50.362 L 240.027 45.083 240.472 44.614 C 241.212 43.833,243.371 44.470,243.552 45.522 C 243.632 45.983,243.749 57.033,243.686 58.052 C 243.660 58.464,242.100 60.085,241.483 60.341 C 241.014 60.535,240.945 60.512,240.399 59.983 C 240.079 59.673,239.427 59.226,238.951 58.990 C 238.407 58.721,237.919 58.318,237.640 57.906 C 237.246 57.326,237.035 57.201,235.809 56.827 C 234.592 56.455,234.371 56.326,233.988 55.761 C 233.717 55.363,233.220 54.954,232.677 54.684 C 232.138 54.417,231.634 54.002,231.360 53.604 C 231.029 53.122,230.662 52.857,229.912 52.560 C 229.360 52.340,228.501 51.827,228.004 51.420 C 227.507 51.012,226.893 50.633,226.639 50.577 C 226.386 50.522,225.970 50.214,225.714 49.894 C 225.459 49.574,225.047 49.089,224.798 48.816 L 224.346 48.320 223.684 48.658 C 222.754 49.132,222.790 48.921,222.822 53.755 C 222.850 57.900,222.833 58.181,222.506 58.822 L 222.160 59.500 221.083 59.500 L 220.007 59.500 219.656 58.813 C 219.315 58.145,219.308 57.957,219.361 51.735 C 219.424 44.443,219.335 44.859,220.932 44.421 C 222.033 44.119,222.180 44.122,222.686 44.459 M260.386 44.358 C 260.986 44.674,262.748 46.532,263.171 47.295 C 263.407 47.721,263.844 48.170,264.261 48.414 C 264.685 48.663,265.070 49.062,265.248 49.437 C 265.409 49.775,265.906 50.388,266.353 50.800 C 266.801 51.212,267.167 51.611,267.167 51.685 C 267.167 52.253,267.958 53.769,268.532 54.298 C 268.900 54.638,269.343 55.194,269.516 55.533 C 269.689 55.872,270.168 56.381,270.580 56.664 C 271.927 57.591,272.218 59.743,271.070 60.290 L 270.473 60.574 269.778 59.807 C 269.396 59.384,268.808 58.878,268.471 58.680 C 268.134 58.483,267.673 58.005,267.446 57.619 C 266.656 56.271,267.185 56.362,259.917 56.327 L 253.417 56.295 252.295 56.815 C 251.380 57.238,251.111 57.455,250.836 57.996 C 249.719 60.185,248.167 60.485,248.167 58.511 C 248.167 57.657,248.653 56.737,249.429 56.127 C 249.648 55.955,250.090 55.260,250.411 54.584 C 250.788 53.790,251.202 53.196,251.581 52.907 C 251.904 52.661,252.361 52.104,252.598 51.669 C 252.874 51.163,253.264 50.746,253.685 50.510 C 254.162 50.242,254.475 49.877,254.827 49.180 C 255.093 48.652,255.504 48.093,255.739 47.939 C 255.974 47.785,256.460 47.075,256.819 46.362 C 257.579 44.850,257.649 44.780,258.750 44.444 C 259.787 44.128,259.933 44.120,260.386 44.358 M293.785 44.333 C 295.958 44.333,296.026 44.344,296.444 44.762 L 296.873 45.191 296.405 45.679 L 295.938 46.167 292.594 46.167 L 289.250 46.167 288.187 46.670 L 287.124 47.173 287.226 48.295 C 287.282 48.912,287.340 51.346,287.356 53.705 L 287.384 57.993 286.939 58.634 C 285.913 60.116,285.368 60.503,284.960 60.042 C 284.258 59.249,284.167 58.404,284.167 52.674 L 284.167 47.192 283.735 46.679 L 283.304 46.167 279.910 46.167 C 276.451 46.167,274.979 45.997,274.459 45.539 C 273.286 44.506,277.369 44.111,287.569 44.271 C 289.761 44.305,292.558 44.333,293.785 44.333 M323.846 44.654 L 324.333 45.141 324.324 50.196 C 324.313 55.940,324.276 56.165,323.220 56.873 C 322.837 57.130,322.367 57.593,322.176 57.902 C 321.807 58.499,321.123 58.901,320.167 59.083 C 319.846 59.145,319.321 59.336,319.000 59.508 C 316.770 60.707,316.854 60.686,313.873 60.784 C 310.290 60.902,308.481 60.617,307.833 59.834 C 307.474 59.400,307.186 59.282,305.750 58.977 C 303.830 58.571,303.776 58.539,303.237 57.475 C 303.015 57.037,302.616 56.430,302.349 56.127 C 301.436 55.087,301.293 54.128,301.358 49.501 C 301.427 44.640,301.370 44.798,303.136 44.534 C 304.200 44.374,304.269 44.385,304.667 44.770 L 305.083 45.174 305.170 50.494 C 305.272 56.701,305.173 56.383,307.184 56.994 C 308.051 57.257,308.484 57.503,308.969 58.007 C 310.348 59.443,316.038 59.469,317.124 58.045 C 317.405 57.677,317.957 57.280,318.580 56.999 C 320.733 56.027,321.029 55.195,321.161 49.750 C 321.272 45.170,321.302 45.034,322.297 44.509 C 323.126 44.071,323.277 44.085,323.846 44.654 M349.192 44.420 C 349.344 44.510,349.866 44.921,350.353 45.333 C 352.251 46.942,352.468 47.206,352.816 48.333 L 353.151 49.417 352.632 49.833 C 351.206 50.977,350.510 51.739,350.171 52.526 C 349.822 53.339,349.815 54.167,350.157 54.167 C 350.562 54.167,351.347 55.101,351.667 55.965 C 351.862 56.489,352.201 57.180,352.422 57.502 C 352.643 57.825,352.972 58.517,353.152 59.040 L 353.479 59.992 353.061 60.321 C 352.581 60.699,352.169 60.607,351.265 59.916 C 350.964 59.687,350.630 59.500,350.522 59.500 C 350.133 59.500,349.393 58.035,349.180 56.843 C 348.778 54.593,347.558 54.230,340.083 54.140 C 337.700 54.111,335.655 54.147,335.539 54.221 C 335.033 54.545,334.667 55.651,334.663 56.868 C 334.656 59.153,334.095 59.863,332.508 59.597 C 330.685 59.291,330.695 59.338,330.791 51.538 C 330.879 44.352,330.834 44.590,332.142 44.371 C 333.258 44.185,348.869 44.229,349.192 44.420 M376.583 44.689 C 377.160 45.195,377.169 45.221,376.881 45.539 C 376.160 46.337,376.059 46.347,369.329 46.312 L 362.996 46.279 362.582 46.668 C 361.949 47.263,361.964 49.400,362.606 50.163 L 363.045 50.685 368.420 50.655 C 374.075 50.624,374.614 50.689,374.903 51.442 C 374.988 51.662,374.114 52.492,373.779 52.511 C 373.671 52.517,371.241 52.535,368.379 52.552 L 363.175 52.583 362.712 53.046 C 361.926 53.832,362.090 57.900,362.942 58.752 C 363.154 58.963,364.138 59.000,369.564 59.000 L 375.938 59.000 376.397 59.479 L 376.856 59.958 376.389 60.326 L 375.922 60.693 368.502 60.638 C 359.946 60.575,360.558 60.697,359.639 58.866 L 359.078 57.750 359.164 51.750 C 359.285 43.313,358.240 44.167,368.450 44.167 L 375.988 44.167 376.583 44.689 M26.933 44.816 C 27.564 45.201,27.663 45.799,27.665 49.255 C 27.667 51.564,27.834 52.333,28.337 52.333 C 28.665 52.333,30.348 53.039,30.585 53.275 C 30.934 53.625,30.823 53.735,29.508 54.341 C 27.813 55.123,27.600 55.405,27.707 56.735 C 27.799 57.883,27.714 58.115,26.860 59.042 C 26.300 59.649,26.203 59.625,25.837 58.792 C 25.332 57.639,25.340 45.582,25.846 44.938 C 26.257 44.416,26.274 44.414,26.933 44.816 M45.900 44.888 L 46.383 45.275 45.817 45.624 C 45.173 46.020,44.509 45.970,44.078 45.494 C 43.818 45.207,43.839 45.171,44.443 44.852 C 45.259 44.422,45.319 44.424,45.900 44.888 M74.273 45.708 C 74.968 46.373,75.641 47.160,75.770 47.457 C 75.898 47.755,76.285 48.176,76.629 48.393 C 77.407 48.884,77.571 49.088,77.827 49.883 C 77.966 50.314,78.232 50.642,78.661 50.913 C 79.122 51.204,79.429 51.606,79.805 52.409 C 80.119 53.080,80.605 53.767,81.058 54.179 C 81.464 54.548,81.973 55.185,82.190 55.594 C 82.406 56.002,82.710 56.377,82.865 56.426 C 83.856 56.742,84.340 57.930,83.820 58.772 C 83.351 59.531,83.175 59.489,82.158 58.375 C 81.677 57.848,81.062 57.254,80.793 57.054 C 80.523 56.855,79.993 56.405,79.616 56.054 C 79.238 55.704,78.776 55.340,78.589 55.246 C 78.276 55.089,78.020 54.483,77.754 53.266 C 77.695 53.000,77.443 52.588,77.192 52.350 C 76.942 52.111,76.535 51.568,76.288 51.143 C 76.042 50.717,75.595 50.167,75.295 49.920 C 74.995 49.673,74.546 49.205,74.297 48.879 C 73.077 47.287,72.415 47.266,70.977 48.775 C 70.553 49.220,70.005 49.765,69.758 49.987 C 69.511 50.209,69.129 50.748,68.908 51.183 C 68.688 51.619,68.355 52.023,68.170 52.082 C 67.745 52.217,67.568 52.555,67.427 53.500 C 67.203 55.009,67.140 55.172,66.694 55.403 C 65.926 55.801,64.124 57.265,63.053 58.362 L 62.023 59.417 61.689 58.674 C 61.292 57.789,61.510 57.207,62.387 56.811 C 62.744 56.650,62.956 56.388,63.111 55.917 C 63.239 55.526,63.630 54.974,64.056 54.583 C 64.455 54.217,65.121 53.386,65.535 52.738 C 66.031 51.963,66.460 51.488,66.789 51.352 C 67.340 51.123,67.667 50.567,67.667 49.857 C 67.667 49.355,68.274 48.694,69.026 48.375 C 69.324 48.249,69.508 48.011,69.587 47.648 C 69.734 46.979,72.162 44.500,72.671 44.500 C 72.865 44.500,73.551 45.018,74.273 45.708 M130.614 44.824 C 131.411 45.186,132.075 46.078,132.516 47.380 C 132.751 48.074,132.905 48.273,133.315 48.411 C 133.966 48.632,134.371 49.041,134.597 49.709 C 134.704 50.026,135.069 50.447,135.503 50.752 C 135.964 51.077,136.398 51.589,136.690 52.155 C 136.943 52.645,137.374 53.242,137.647 53.481 C 137.921 53.721,138.426 54.465,138.770 55.136 C 139.247 56.066,139.520 56.407,139.923 56.575 C 141.088 57.062,141.394 58.111,140.618 58.958 C 140.030 59.601,139.403 59.147,138.774 57.623 C 138.632 57.278,138.380 56.952,138.216 56.899 C 137.594 56.699,137.102 56.402,136.437 55.823 C 136.059 55.494,135.618 55.177,135.457 55.117 C 135.144 55.002,134.980 54.670,134.676 53.539 C 134.571 53.148,134.250 52.560,133.962 52.232 C 133.675 51.905,133.156 51.025,132.810 50.277 L 132.180 48.917 130.821 48.190 C 129.235 47.342,129.213 47.346,127.754 48.782 C 127.260 49.268,126.774 49.667,126.675 49.667 C 126.459 49.667,126.076 50.481,125.831 51.460 C 125.725 51.881,125.419 52.403,125.077 52.746 C 124.741 53.081,124.500 53.489,124.500 53.720 C 124.500 54.519,124.138 55.196,123.587 55.426 C 123.292 55.549,122.656 55.972,122.172 56.366 C 121.688 56.761,121.167 57.158,121.015 57.250 C 120.729 57.422,119.828 58.403,119.217 59.208 L 118.869 59.666 118.601 58.996 C 118.174 57.928,118.425 57.167,119.203 57.167 C 119.747 57.167,120.167 56.842,120.167 56.422 C 120.167 55.772,120.463 55.179,121.126 54.498 C 121.469 54.146,122.050 53.361,122.417 52.753 C 122.788 52.137,123.328 51.495,123.636 51.303 C 123.988 51.084,124.352 50.619,124.636 50.024 C 125.026 49.208,125.163 49.070,125.705 48.945 C 126.324 48.802,126.663 48.226,126.666 47.309 C 126.666 47.159,126.888 46.821,127.158 46.559 C 127.958 45.785,128.129 45.611,128.647 45.042 C 129.217 44.417,129.619 44.372,130.614 44.824 M54.837 45.089 C 55.550 45.451,55.726 46.745,55.601 50.707 C 55.542 52.564,55.561 54.908,55.643 55.917 C 55.812 57.999,55.800 58.031,54.517 58.853 C 53.093 59.766,52.998 59.348,53.007 52.188 C 53.017 44.394,53.069 44.191,54.837 45.089 M92.171 44.955 C 92.398 45.113,92.751 45.441,92.955 45.683 C 93.162 45.928,93.790 46.291,94.372 46.502 C 95.812 47.024,96.167 47.269,96.167 47.742 C 96.167 48.311,96.595 48.667,97.278 48.667 C 98.604 48.667,99.537 50.326,98.291 50.469 C 97.624 50.546,95.883 49.550,95.683 48.976 C 95.406 48.182,94.053 47.801,93.104 48.251 C 92.001 48.775,91.938 49.101,92.040 53.778 C 92.152 58.934,91.991 59.621,90.931 58.515 L 90.466 58.030 90.451 51.665 L 90.435 45.301 90.842 44.987 C 91.352 44.596,91.648 44.589,92.171 44.955 M112.860 45.917 C 113.038 47.259,113.020 57.985,112.839 58.323 C 112.542 58.878,110.554 59.601,110.202 59.282 C 110.039 59.134,109.484 58.827,108.968 58.599 C 107.512 57.955,107.449 57.367,108.761 56.676 C 110.099 55.971,110.071 56.101,110.181 50.258 C 110.297 44.157,110.084 44.975,111.542 45.034 L 112.750 45.083 112.860 45.917 M335.077 46.705 C 334.332 47.590,334.660 51.506,335.582 52.730 C 335.800 53.019,335.915 53.028,337.082 52.855 C 337.778 52.751,339.697 52.667,341.347 52.667 C 344.656 52.667,344.732 52.648,346.551 51.398 C 346.999 51.089,347.677 50.749,348.058 50.642 C 349.400 50.263,349.617 49.709,349.162 47.816 C 348.820 46.386,347.655 46.167,340.419 46.167 L 335.530 46.167 335.077 46.705 M43.133 46.867 C 43.859 47.592,41.147 48.401,40.204 47.741 C 39.725 47.406,39.737 47.304,40.292 46.960 C 40.839 46.621,42.822 46.556,43.133 46.867 M346.801 47.023 C 348.704 47.483,349.494 49.652,347.858 49.927 C 347.524 49.983,346.550 50.210,345.693 50.431 C 344.315 50.787,343.773 50.834,340.943 50.836 C 338.831 50.838,337.421 50.916,336.779 51.067 C 336.069 51.234,335.792 51.245,335.747 51.106 C 335.296 49.723,335.174 47.393,335.533 47.033 C 335.805 46.761,345.683 46.752,346.801 47.023 M258.801 48.565 C 257.653 49.121,257.504 49.285,256.811 50.760 C 256.464 51.499,255.952 52.391,255.673 52.742 C 255.043 53.534,255.066 54.269,255.733 54.702 C 256.067 54.919,262.537 54.820,263.083 54.590 C 264.061 54.178,264.273 53.758,263.794 53.188 C 263.567 52.918,263.295 52.359,263.191 51.946 C 263.052 51.392,262.816 51.037,262.293 50.595 C 261.903 50.265,261.319 49.603,260.996 49.123 C 260.305 48.096,259.953 48.006,258.801 48.565 M73.371 48.943 C 73.671 49.278,74.311 49.926,74.792 50.384 C 75.391 50.955,75.725 51.430,75.849 51.892 C 75.956 52.288,76.267 52.783,76.603 53.091 C 77.794 54.182,77.040 54.527,73.333 54.586 C 68.247 54.666,67.274 54.318,68.705 52.928 C 69.034 52.608,69.356 52.108,69.420 51.817 C 69.542 51.262,72.228 48.342,72.621 48.336 C 72.733 48.335,73.070 48.607,73.371 48.943 M130.326 48.745 C 131.435 49.445,132.392 50.677,132.703 51.805 C 132.790 52.121,133.120 52.645,133.437 52.971 C 133.754 53.298,133.972 53.667,133.922 53.795 C 133.873 53.923,133.833 54.088,133.833 54.162 C 133.833 54.737,127.355 54.795,126.375 54.229 C 125.550 53.752,125.580 53.836,125.984 53.135 C 126.159 52.831,126.353 52.266,126.415 51.878 C 126.509 51.291,126.756 50.935,127.888 49.753 C 129.402 48.172,129.412 48.168,130.326 48.745 M38.445 49.084 L 39.046 49.336 38.484 49.714 C 36.835 50.826,36.937 52.344,38.705 52.996 C 39.244 53.195,39.488 53.409,39.708 53.876 C 39.910 54.304,40.140 54.524,40.458 54.592 C 41.395 54.792,42.305 55.190,42.643 55.548 C 42.834 55.751,43.210 56.158,43.478 56.454 C 43.805 56.814,44.178 57.025,44.616 57.095 C 45.748 57.276,46.102 57.669,45.860 58.476 C 45.591 59.375,45.528 59.394,44.483 58.887 C 43.988 58.647,43.396 58.366,43.167 58.264 C 42.938 58.161,42.642 57.833,42.509 57.534 C 42.354 57.183,42.118 56.958,41.843 56.900 C 40.627 56.643,39.877 56.233,39.124 55.415 C 38.590 54.833,38.102 54.481,37.624 54.333 C 37.179 54.194,36.639 53.823,36.167 53.331 C 35.429 52.561,35.393 52.545,33.933 52.360 C 31.372 52.036,31.091 51.492,33.138 50.820 C 34.604 50.338,35.124 50.068,35.875 49.394 C 36.591 48.753,37.414 48.654,38.445 49.084 M260.349 49.333 C 260.423 49.471,260.580 49.808,260.700 50.083 C 260.820 50.359,261.173 50.711,261.487 50.868 C 262.429 51.338,262.532 51.515,262.407 52.452 C 262.245 53.675,262.220 53.693,261.077 53.392 C 260.410 53.216,259.717 53.160,258.970 53.221 C 257.692 53.325,257.519 53.215,257.383 52.200 C 257.175 50.646,259.731 48.175,260.349 49.333 M100.930 50.979 C 101.663 51.326,101.998 51.594,102.145 51.948 C 102.370 52.490,102.970 52.902,103.791 53.077 C 104.360 53.199,104.833 53.708,104.833 54.198 C 104.833 54.555,105.322 54.833,105.950 54.833 C 107.108 54.833,107.911 55.881,107.195 56.458 C 106.652 56.896,104.500 56.158,104.500 55.535 C 104.500 55.216,103.734 54.561,103.089 54.328 C 102.067 53.958,101.786 53.739,101.603 53.167 C 101.444 52.670,101.318 52.563,100.750 52.446 C 99.511 52.191,98.922 51.808,98.865 51.221 C 98.814 50.690,98.876 50.641,99.750 50.523 C 99.842 50.510,100.372 50.716,100.930 50.979 M380.333 63.111 C 378.363 63.129,369.925 63.227,361.583 63.327 C 353.242 63.427,340.267 63.582,332.750 63.671 C 325.233 63.761,314.658 63.909,309.250 64.002 C 288.413 64.357,237.965 64.498,129.972 64.503 C 35.515 64.507,17.741 64.544,17.102 64.736 C 16.289 64.981,15.000 65.897,15.000 66.230 C 15.000 66.474,16.101 67.551,16.625 67.819 C 17.414 68.224,384.085 67.955,384.888 67.549 C 385.772 67.103,385.952 65.870,385.360 64.319 C 385.195 63.886,384.239 62.967,384.029 63.038 C 383.967 63.059,382.304 63.092,380.333 63.111 M384.637 65.458 L 384.982 66.250 384.616 66.607 L 384.250 66.963 295.667 67.152 C 153.413 67.454,17.722 67.407,17.180 67.055 C 16.193 66.412,16.276 65.892,17.445 65.397 C 17.886 65.210,42.545 65.171,165.945 65.160 C 306.362 65.148,383.211 65.012,383.448 64.774 C 383.807 64.415,384.306 64.703,384.637 65.458 " stroke="none" fill="#a0a0a0" fill-rule="evenodd"></path><path id="path3" d="M25.846 44.938 C 25.340 45.582,25.332 57.639,25.837 58.792 C 26.203 59.625,26.300 59.649,26.860 59.042 C 27.714 58.115,27.799 57.883,27.707 56.735 C 27.600 55.405,27.813 55.123,29.508 54.341 C 30.823 53.735,30.934 53.625,30.585 53.275 C 30.348 53.039,28.665 52.333,28.337 52.333 C 27.834 52.333,27.667 51.564,27.665 49.255 C 27.663 45.799,27.564 45.201,26.933 44.816 C 26.274 44.414,26.257 44.416,25.846 44.938 M44.443 44.852 C 43.839 45.171,43.818 45.207,44.078 45.494 C 44.509 45.970,45.173 46.020,45.817 45.624 L 46.383 45.275 45.900 44.888 C 45.319 44.424,45.259 44.422,44.443 44.852 M71.019 45.804 C 70.131 46.687,69.668 47.283,69.587 47.648 C 69.508 48.011,69.324 48.249,69.026 48.375 C 68.274 48.694,67.667 49.355,67.667 49.857 C 67.667 50.567,67.340 51.123,66.789 51.352 C 66.460 51.488,66.031 51.963,65.535 52.738 C 65.121 53.386,64.455 54.217,64.056 54.583 C 63.630 54.974,63.239 55.526,63.111 55.917 C 62.956 56.388,62.744 56.650,62.387 56.811 C 61.510 57.207,61.292 57.789,61.689 58.674 L 62.023 59.417 63.053 58.362 C 64.124 57.265,65.926 55.801,66.694 55.403 C 67.140 55.172,67.203 55.009,67.427 53.500 C 67.568 52.555,67.745 52.217,68.170 52.082 C 68.355 52.023,68.688 51.619,68.908 51.183 C 69.129 50.748,69.511 50.209,69.758 49.987 C 70.005 49.765,70.553 49.220,70.977 48.775 C 72.415 47.266,73.077 47.287,74.297 48.879 C 74.546 49.205,74.995 49.673,75.295 49.920 C 75.595 50.167,76.042 50.717,76.288 51.143 C 76.535 51.568,76.942 52.111,77.192 52.350 C 77.443 52.588,77.695 53.000,77.754 53.266 C 78.020 54.483,78.276 55.089,78.589 55.246 C 78.776 55.340,79.238 55.704,79.616 56.054 C 79.993 56.405,80.523 56.855,80.793 57.054 C 81.062 57.254,81.677 57.848,82.158 58.375 C 83.175 59.489,83.351 59.531,83.820 58.772 C 84.340 57.930,83.856 56.742,82.865 56.426 C 82.710 56.377,82.406 56.002,82.190 55.594 C 81.973 55.185,81.464 54.548,81.058 54.179 C 80.605 53.767,80.119 53.080,79.805 52.409 C 79.429 51.606,79.122 51.204,78.661 50.913 C 78.232 50.642,77.966 50.314,77.827 49.883 C 77.571 49.088,77.407 48.884,76.629 48.393 C 76.285 48.176,75.898 47.755,75.770 47.457 C 75.461 46.745,73.110 44.500,72.671 44.500 C 72.471 44.500,71.795 45.034,71.019 45.804 M128.647 45.042 C 128.129 45.611,127.958 45.785,127.158 46.559 C 126.888 46.821,126.666 47.159,126.666 47.309 C 126.663 48.226,126.324 48.802,125.705 48.945 C 125.163 49.070,125.026 49.208,124.636 50.024 C 124.352 50.619,123.988 51.084,123.636 51.303 C 123.328 51.495,122.788 52.137,122.417 52.753 C 122.050 53.361,121.469 54.146,121.126 54.498 C 120.463 55.179,120.167 55.772,120.167 56.422 C 120.167 56.842,119.747 57.167,119.203 57.167 C 118.425 57.167,118.174 57.928,118.601 58.996 L 118.869 59.666 119.217 59.208 C 119.828 58.403,120.729 57.422,121.015 57.250 C 121.167 57.158,121.688 56.761,122.172 56.366 C 122.656 55.972,123.292 55.549,123.587 55.426 C 124.138 55.196,124.500 54.519,124.500 53.720 C 124.500 53.489,124.741 53.081,125.077 52.746 C 125.419 52.403,125.725 51.881,125.831 51.460 C 126.076 50.481,126.459 49.667,126.675 49.667 C 126.774 49.667,127.260 49.268,127.754 48.782 C 129.213 47.346,129.235 47.342,130.821 48.190 L 132.180 48.917 132.810 50.277 C 133.156 51.025,133.675 51.905,133.962 52.232 C 134.250 52.560,134.571 53.148,134.676 53.539 C 134.980 54.670,135.144 55.002,135.457 55.117 C 135.618 55.177,136.059 55.494,136.437 55.823 C 137.102 56.402,137.594 56.699,138.216 56.899 C 138.380 56.952,138.632 57.278,138.774 57.623 C 139.403 59.147,140.030 59.601,140.618 58.958 C 141.394 58.111,141.088 57.062,139.923 56.575 C 139.520 56.407,139.247 56.066,138.770 55.136 C 138.426 54.465,137.921 53.721,137.647 53.481 C 137.374 53.242,136.943 52.645,136.690 52.155 C 136.398 51.589,135.964 51.077,135.503 50.752 C 135.069 50.447,134.704 50.026,134.597 49.709 C 134.371 49.041,133.966 48.632,133.315 48.411 C 132.905 48.273,132.751 48.074,132.516 47.380 C 131.690 44.942,129.787 43.791,128.647 45.042 M53.523 44.817 C 53.106 45.079,53.015 46.379,53.007 52.188 C 52.998 59.348,53.093 59.766,54.517 58.853 C 55.800 58.031,55.812 57.999,55.643 55.917 C 55.561 54.908,55.542 52.564,55.601 50.707 C 55.726 46.745,55.550 45.451,54.837 45.089 C 54.162 44.746,53.766 44.664,53.523 44.817 M90.842 44.987 L 90.435 45.301 90.451 51.665 L 90.466 58.030 90.931 58.515 C 91.991 59.621,92.152 58.934,92.040 53.778 C 91.938 49.101,92.001 48.775,93.104 48.251 C 94.053 47.801,95.406 48.182,95.683 48.976 C 95.883 49.550,97.624 50.546,98.291 50.469 C 99.537 50.326,98.604 48.667,97.278 48.667 C 96.595 48.667,96.167 48.311,96.167 47.742 C 96.167 47.269,95.812 47.024,94.372 46.502 C 93.790 46.291,93.162 45.928,92.955 45.683 C 92.099 44.668,91.510 44.474,90.842 44.987 M110.306 45.034 C 110.292 45.061,110.235 47.412,110.181 50.258 C 110.071 56.101,110.099 55.971,108.761 56.676 C 107.449 57.367,107.512 57.955,108.968 58.599 C 109.484 58.827,110.039 59.134,110.202 59.282 C 110.554 59.601,112.542 58.878,112.839 58.323 C 113.020 57.985,113.038 47.259,112.860 45.917 L 112.750 45.083 111.542 45.034 C 110.877 45.007,110.321 45.007,110.306 45.034 M40.292 46.960 C 39.737 47.304,39.725 47.406,40.204 47.741 C 41.147 48.401,43.859 47.592,43.133 46.867 C 42.822 46.556,40.839 46.621,40.292 46.960 M35.875 49.394 C 35.124 50.068,34.604 50.338,33.138 50.820 C 31.091 51.492,31.372 52.036,33.933 52.360 C 35.393 52.545,35.429 52.561,36.167 53.331 C 36.639 53.823,37.179 54.194,37.624 54.333 C 38.102 54.481,38.590 54.833,39.124 55.415 C 39.877 56.233,40.627 56.643,41.843 56.900 C 42.118 56.958,42.354 57.183,42.509 57.534 C 42.642 57.833,42.938 58.161,43.167 58.264 C 43.396 58.366,43.988 58.647,44.483 58.887 C 45.528 59.394,45.591 59.375,45.860 58.476 C 46.102 57.669,45.748 57.276,44.616 57.095 C 44.178 57.025,43.805 56.814,43.478 56.454 C 43.210 56.158,42.834 55.751,42.643 55.548 C 42.305 55.190,41.395 54.792,40.458 54.592 C 40.140 54.524,39.910 54.304,39.708 53.876 C 39.488 53.409,39.244 53.195,38.705 52.996 C 36.937 52.344,36.835 50.826,38.484 49.714 L 39.046 49.336 38.445 49.084 C 37.414 48.654,36.591 48.753,35.875 49.394 M99.199 50.619 C 98.036 50.841,99.112 52.108,100.750 52.446 C 101.318 52.563,101.444 52.670,101.603 53.167 C 101.786 53.739,102.067 53.958,103.089 54.328 C 103.734 54.561,104.500 55.216,104.500 55.535 C 104.500 56.158,106.652 56.896,107.195 56.458 C 107.911 55.881,107.108 54.833,105.950 54.833 C 105.322 54.833,104.833 54.555,104.833 54.198 C 104.833 53.708,104.360 53.199,103.791 53.077 C 102.970 52.902,102.370 52.490,102.145 51.948 C 101.954 51.487,100.226 50.458,99.750 50.523 C 99.658 50.535,99.410 50.578,99.199 50.619 " stroke="none" fill="#f24e42" fill-rule="evenodd"></path><path id="path4" d="M200.266 37.792 L 17.615 37.833 17.057 38.259 C 16.337 38.808,16.355 39.061,17.145 39.532 L 17.789 39.917 109.520 39.816 C 159.971 39.761,242.420 39.705,292.739 39.691 L 384.229 39.667 384.611 39.308 L 384.993 38.949 384.632 38.308 C 384.298 37.713,384.224 37.670,383.594 37.708 C 383.222 37.731,300.724 37.769,200.266 37.792 M133.667 38.602 C 196.596 38.664,271.971 38.760,301.167 38.816 C 351.443 38.911,348.049 38.923,237.000 39.043 C 78.760 39.213,17.811 39.221,17.438 39.073 C 16.864 38.844,17.775 38.320,18.583 38.413 C 18.950 38.455,70.737 38.540,133.667 38.602 M383.958 38.953 C 383.706 38.991,383.294 38.991,383.042 38.953 C 382.790 38.915,382.996 38.883,383.500 38.883 C 384.004 38.883,384.210 38.915,383.958 38.953 M160.240 44.435 C 159.787 44.554,159.359 44.655,159.288 44.659 C 159.217 44.663,158.842 44.958,158.455 45.315 C 158.067 45.671,157.479 46.075,157.149 46.213 C 156.089 46.654,155.833 47.074,155.833 48.376 C 155.833 49.837,155.989 50.106,157.124 50.608 C 157.635 50.834,158.344 51.268,158.699 51.573 C 159.658 52.393,160.853 52.666,163.511 52.671 C 166.160 52.676,167.121 52.853,167.590 53.421 C 167.983 53.899,169.349 54.414,170.667 54.582 C 172.907 54.867,173.140 56.160,171.135 57.183 C 170.774 57.367,170.325 57.777,170.139 58.093 C 169.675 58.879,169.449 58.917,165.167 58.917 C 161.151 58.917,160.792 58.852,160.499 58.080 C 159.932 56.590,155.412 56.472,155.698 57.955 C 155.773 58.346,156.789 59.000,157.316 58.998 C 157.555 58.997,158.425 59.332,159.250 59.743 C 162.404 61.315,169.089 61.266,171.633 59.652 C 172.062 59.380,172.705 59.111,173.062 59.054 C 173.777 58.940,174.832 58.128,174.835 57.691 C 174.836 57.540,175.014 57.035,175.232 56.568 L 175.627 55.719 175.105 54.874 C 174.818 54.410,174.458 53.802,174.305 53.525 C 173.981 52.936,173.532 52.786,171.068 52.442 C 169.432 52.213,168.667 51.970,168.667 51.679 C 168.667 51.185,165.113 50.503,162.529 50.501 C 160.391 50.500,160.000 50.154,160.000 48.263 C 160.000 46.075,159.979 46.081,166.489 46.220 C 171.685 46.330,172.574 46.448,172.853 47.061 C 173.443 48.355,174.344 47.852,174.040 46.399 C 173.611 44.358,173.308 44.272,166.490 44.242 C 162.502 44.225,160.845 44.276,160.240 44.435 M181.428 44.559 C 180.138 45.591,180.342 58.871,181.668 60.233 C 182.161 60.740,182.825 60.348,183.704 59.029 L 184.446 57.917 184.348 51.826 C 184.238 44.999,184.265 45.145,183.004 44.502 C 182.170 44.077,182.025 44.082,181.428 44.559 M198.167 44.290 C 197.096 44.458,196.500 44.711,195.953 45.226 C 195.472 45.681,195.100 45.840,193.965 46.078 C 192.358 46.415,192.250 46.479,191.532 47.531 C 191.239 47.960,190.861 48.355,190.693 48.408 C 188.428 49.127,188.857 54.504,191.335 56.452 C 191.838 56.848,192.588 57.459,193.000 57.809 C 194.070 58.720,194.324 58.824,196.131 59.091 C 197.461 59.288,197.810 59.402,198.083 59.728 C 199.241 61.104,208.635 61.265,210.413 59.939 C 210.690 59.732,211.585 59.401,212.402 59.203 C 214.650 58.656,214.667 58.631,214.667 55.724 C 214.667 53.355,214.664 53.335,214.208 52.836 C 213.619 52.191,211.941 51.903,210.600 52.217 C 210.133 52.327,208.712 52.417,207.444 52.417 L 205.139 52.417 204.737 52.917 C 203.916 53.938,204.405 54.167,207.413 54.167 L 209.644 54.167 210.027 54.704 C 210.516 55.392,210.513 56.135,210.014 57.465 C 209.455 58.955,209.602 58.917,204.500 58.917 C 199.846 58.917,199.123 58.818,198.912 58.153 C 198.759 57.669,198.049 57.197,197.022 56.897 C 194.502 56.160,194.499 56.159,194.069 55.478 C 193.841 55.117,193.403 54.543,193.096 54.202 C 192.033 53.023,191.897 51.660,192.760 50.824 C 193.087 50.508,193.487 49.950,193.650 49.583 C 194.019 48.753,194.191 48.611,195.365 48.172 C 195.950 47.953,196.563 47.558,196.974 47.134 L 197.638 46.450 200.194 46.298 C 201.600 46.214,204.712 46.192,207.111 46.250 L 211.471 46.354 212.013 45.870 C 212.628 45.320,212.600 45.016,211.891 44.551 C 211.456 44.266,199.736 44.043,198.167 44.290 M220.932 44.421 C 219.335 44.859,219.424 44.443,219.361 51.735 C 219.308 57.957,219.315 58.145,219.656 58.813 L 220.007 59.500 221.083 59.500 L 222.160 59.500 222.506 58.822 C 222.833 58.181,222.850 57.900,222.822 53.755 C 222.790 48.921,222.754 49.132,223.684 48.658 L 224.346 48.320 224.798 48.816 C 225.047 49.089,225.459 49.574,225.714 49.894 C 225.970 50.214,226.386 50.522,226.639 50.577 C 226.893 50.633,227.507 51.012,228.004 51.420 C 228.501 51.827,229.360 52.340,229.912 52.560 C 230.662 52.857,231.029 53.122,231.360 53.604 C 231.634 54.002,232.138 54.417,232.677 54.684 C 233.220 54.954,233.717 55.363,233.988 55.761 C 234.371 56.326,234.592 56.455,235.809 56.827 C 237.035 57.201,237.246 57.326,237.640 57.906 C 237.919 58.318,238.407 58.721,238.951 58.990 C 239.427 59.226,240.079 59.673,240.399 59.983 C 240.945 60.512,241.014 60.535,241.483 60.341 C 242.100 60.085,243.660 58.464,243.686 58.052 C 243.749 57.033,243.632 45.983,243.552 45.522 C 243.371 44.470,241.212 43.833,240.472 44.614 L 240.027 45.083 239.972 50.362 L 239.917 55.640 239.506 56.077 C 239.021 56.593,238.504 56.576,238.236 56.035 C 237.925 55.410,237.319 54.855,236.738 54.663 C 236.436 54.563,235.920 54.150,235.581 53.736 C 235.223 53.300,234.576 52.790,234.026 52.512 C 233.508 52.249,232.735 51.751,232.309 51.404 C 231.883 51.058,231.208 50.647,230.809 50.491 C 230.312 50.297,229.924 49.978,229.576 49.479 C 229.218 48.965,228.768 48.602,228.052 48.250 C 227.493 47.975,226.774 47.516,226.453 47.230 C 226.133 46.943,225.448 46.503,224.932 46.250 C 224.416 45.998,223.798 45.557,223.558 45.271 C 222.642 44.176,222.267 44.055,220.932 44.421 M258.750 44.444 C 257.649 44.780,257.579 44.850,256.819 46.362 C 256.460 47.075,255.974 47.785,255.739 47.939 C 255.504 48.093,255.093 48.652,254.827 49.180 C 254.475 49.877,254.162 50.242,253.685 50.510 C 253.264 50.746,252.874 51.163,252.598 51.669 C 252.361 52.104,251.904 52.661,251.581 52.907 C 251.202 53.196,250.788 53.790,250.411 54.584 C 250.090 55.260,249.648 55.955,249.429 56.127 C 248.653 56.737,248.167 57.657,248.167 58.511 C 248.167 60.485,249.719 60.185,250.836 57.996 C 251.111 57.455,251.380 57.238,252.295 56.815 L 253.417 56.295 259.917 56.327 C 267.185 56.362,266.656 56.271,267.446 57.619 C 267.673 58.005,268.134 58.483,268.471 58.680 C 268.808 58.878,269.396 59.384,269.778 59.807 L 270.473 60.574 271.070 60.290 C 272.218 59.743,271.927 57.591,270.580 56.664 C 270.168 56.381,269.689 55.872,269.516 55.533 C 269.343 55.194,268.900 54.638,268.532 54.298 C 267.958 53.769,267.167 52.253,267.167 51.685 C 267.167 51.611,266.801 51.212,266.353 50.800 C 265.906 50.388,265.409 49.775,265.248 49.437 C 265.070 49.062,264.685 48.663,264.261 48.414 C 263.844 48.170,263.407 47.721,263.171 47.295 C 262.748 46.532,260.986 44.674,260.386 44.358 C 259.933 44.120,259.787 44.128,258.750 44.444 M279.500 44.318 C 275.492 44.425,274.799 44.523,274.369 45.041 C 273.742 45.796,275.568 46.167,279.910 46.167 L 283.304 46.167 283.735 46.679 L 284.167 47.192 284.167 52.674 C 284.167 58.404,284.258 59.249,284.960 60.042 C 285.368 60.503,285.913 60.116,286.939 58.634 L 287.384 57.993 287.356 53.705 C 287.340 51.346,287.282 48.912,287.226 48.295 L 287.124 47.173 288.187 46.670 L 289.250 46.167 292.594 46.167 L 295.938 46.167 296.405 45.679 L 296.873 45.191 296.444 44.762 C 296.026 44.344,295.958 44.333,293.785 44.333 C 292.558 44.333,289.761 44.305,287.569 44.271 C 285.377 44.236,281.746 44.257,279.500 44.318 M322.297 44.509 C 321.302 45.034,321.272 45.170,321.161 49.750 C 321.029 55.195,320.733 56.027,318.580 56.999 C 317.957 57.280,317.405 57.677,317.124 58.045 C 316.038 59.469,310.348 59.443,308.969 58.007 C 308.484 57.503,308.051 57.257,307.184 56.994 C 305.173 56.383,305.272 56.701,305.170 50.494 L 305.083 45.174 304.667 44.770 C 304.269 44.385,304.200 44.374,303.136 44.534 C 301.370 44.798,301.427 44.640,301.358 49.501 C 301.293 54.128,301.436 55.087,302.349 56.127 C 302.616 56.430,303.015 57.037,303.237 57.475 C 303.776 58.539,303.830 58.571,305.750 58.977 C 307.186 59.282,307.474 59.400,307.833 59.834 C 308.481 60.617,310.290 60.902,313.873 60.784 C 316.854 60.686,316.770 60.707,319.000 59.508 C 319.321 59.336,319.846 59.145,320.167 59.083 C 321.123 58.901,321.807 58.499,322.176 57.902 C 322.367 57.593,322.837 57.130,323.220 56.873 C 324.276 56.165,324.313 55.940,324.324 50.196 L 324.333 45.141 323.846 44.654 C 323.277 44.085,323.126 44.071,322.297 44.509 M332.142 44.371 C 330.834 44.590,330.879 44.352,330.791 51.538 C 330.695 59.338,330.685 59.291,332.508 59.597 C 334.095 59.863,334.656 59.153,334.663 56.868 C 334.667 55.651,335.033 54.545,335.539 54.221 C 335.655 54.147,337.700 54.111,340.083 54.140 C 347.558 54.230,348.778 54.593,349.180 56.843 C 349.393 58.035,350.133 59.500,350.522 59.500 C 350.630 59.500,350.964 59.687,351.265 59.916 C 352.169 60.607,352.581 60.699,353.061 60.321 L 353.479 59.992 353.152 59.040 C 352.972 58.517,352.643 57.825,352.422 57.502 C 352.201 57.180,351.862 56.489,351.667 55.965 C 351.347 55.101,350.562 54.167,350.157 54.167 C 349.815 54.167,349.822 53.339,350.171 52.526 C 350.510 51.739,351.206 50.977,352.632 49.833 L 353.151 49.417 352.816 48.333 C 352.468 47.206,352.251 46.942,350.353 45.333 C 349.866 44.921,349.344 44.510,349.192 44.420 C 348.869 44.229,333.258 44.185,332.142 44.371 M360.331 44.475 C 359.271 45.038,359.259 45.110,359.164 51.750 L 359.078 57.750 359.639 58.866 C 360.558 60.697,359.946 60.575,368.502 60.638 L 375.922 60.693 376.389 60.326 L 376.856 59.958 376.397 59.479 L 375.938 59.000 369.564 59.000 C 364.138 59.000,363.154 58.963,362.942 58.752 C 362.090 57.900,361.926 53.832,362.712 53.046 L 363.175 52.583 368.379 52.552 C 371.241 52.535,373.671 52.517,373.779 52.511 C 374.114 52.492,374.988 51.662,374.903 51.442 C 374.614 50.689,374.075 50.624,368.420 50.655 L 363.045 50.685 362.606 50.163 C 361.964 49.400,361.949 47.263,362.582 46.668 L 362.996 46.279 369.329 46.312 C 376.059 46.347,376.160 46.337,376.881 45.539 C 377.169 45.221,377.160 45.195,376.583 44.689 L 375.988 44.167 368.450 44.167 C 361.434 44.167,360.871 44.188,360.331 44.475 M172.044 45.024 C 173.018 45.545,170.701 45.908,167.882 45.676 C 166.945 45.600,164.916 45.576,163.373 45.625 C 160.409 45.718,159.346 45.550,160.098 45.105 C 160.767 44.709,171.323 44.638,172.044 45.024 M182.661 44.940 C 183.274 45.302,183.331 45.955,183.332 52.654 L 183.333 57.892 182.713 58.794 L 182.092 59.695 181.754 58.972 C 181.233 57.856,181.229 45.323,181.750 44.929 C 182.165 44.615,182.111 44.615,182.661 44.940 M211.385 44.978 C 212.780 45.539,211.557 45.680,204.833 45.731 C 197.961 45.783,195.884 45.551,197.913 44.959 C 198.932 44.662,210.641 44.678,211.385 44.978 M222.325 44.829 C 222.492 44.918,222.783 45.252,222.971 45.572 C 223.201 45.961,223.642 46.318,224.311 46.655 C 225.635 47.324,225.738 47.831,224.553 47.834 C 223.877 47.836,222.915 48.226,222.459 48.682 C 221.120 50.021,219.987 48.878,220.343 46.547 L 220.552 45.177 221.234 44.935 C 221.610 44.802,221.940 44.687,221.969 44.680 C 221.998 44.673,222.158 44.740,222.325 44.829 M241.817 44.930 L 242.474 45.192 242.565 46.388 C 242.614 47.045,242.691 49.898,242.734 52.728 L 242.814 57.873 241.958 58.659 L 241.102 59.446 240.546 59.069 C 240.239 58.861,239.748 58.639,239.453 58.577 C 238.154 58.301,238.028 57.660,239.161 57.086 C 240.441 56.438,240.410 56.590,240.469 50.584 C 240.531 44.345,240.515 44.409,241.817 44.930 M260.409 44.923 C 260.588 45.059,260.813 45.412,260.909 45.710 C 261.039 46.112,261.230 46.298,261.661 46.437 C 262.080 46.572,262.323 46.800,262.549 47.270 C 262.720 47.626,262.915 48.029,262.982 48.167 C 263.049 48.304,263.450 48.584,263.872 48.788 C 264.482 49.084,264.680 49.288,264.840 49.788 C 265.075 50.520,265.415 50.948,266.004 51.252 C 266.402 51.458,266.873 52.586,267.236 54.206 C 267.308 54.525,267.475 54.694,267.794 54.769 C 268.409 54.915,268.961 55.442,269.084 56.004 C 269.207 56.562,269.546 56.882,270.375 57.225 C 270.992 57.480,271.064 57.596,271.011 58.250 C 270.919 59.380,270.599 59.643,270.073 59.018 C 269.850 58.753,269.368 58.417,269.002 58.270 C 268.484 58.063,268.258 57.836,267.981 57.246 C 267.649 56.540,266.712 55.617,265.905 55.199 C 265.679 55.082,265.464 54.675,265.281 54.015 C 265.057 53.210,264.903 52.958,264.510 52.755 C 264.144 52.566,263.925 52.246,263.654 51.503 C 263.267 50.441,263.133 50.277,262.300 49.853 C 261.996 49.698,261.696 49.372,261.594 49.083 C 261.017 47.458,260.419 47.167,258.900 47.775 C 257.313 48.411,256.763 47.940,257.474 46.554 C 258.177 45.184,259.662 44.358,260.409 44.923 M295.960 45.045 C 296.592 45.543,295.849 45.665,292.849 45.557 C 289.202 45.425,287.839 45.682,286.708 46.715 C 286.334 47.057,286.333 47.069,286.333 52.499 L 286.333 57.939 285.792 58.644 L 285.251 59.348 284.971 58.716 C 284.728 58.166,284.690 57.342,284.679 52.442 L 284.667 46.800 284.123 46.256 C 283.479 45.612,281.587 45.375,278.776 45.586 C 276.945 45.723,274.971 45.413,275.689 45.100 C 276.575 44.715,295.477 44.663,295.960 45.045 M323.574 44.989 C 323.842 45.285,323.861 45.737,323.805 50.448 C 323.739 56.106,323.718 56.224,322.753 56.405 C 322.139 56.520,321.783 56.919,321.605 57.690 C 321.483 58.217,321.242 58.323,319.881 58.450 C 318.225 58.605,317.728 57.917,319.125 57.403 C 320.008 57.078,320.776 56.453,320.934 55.929 C 320.991 55.739,321.176 55.432,321.345 55.248 C 322.090 54.431,322.167 53.897,322.167 49.517 L 322.167 45.358 322.606 45.012 C 323.146 44.587,323.209 44.586,323.574 44.989 M348.968 44.977 C 349.955 45.521,348.864 46.002,347.083 45.807 C 344.595 45.535,335.845 45.491,335.231 45.747 C 333.833 46.331,333.568 50.680,334.785 53.063 C 335.014 53.510,334.999 53.598,334.561 54.396 C 334.149 55.146,334.097 55.402,334.130 56.500 C 334.194 58.606,333.351 59.235,331.669 58.335 C 331.327 58.152,331.247 45.513,331.585 45.188 C 332.090 44.703,348.119 44.508,348.968 44.977 M376.139 44.933 C 377.060 45.578,376.352 45.656,369.533 45.661 C 361.468 45.668,361.667 45.597,361.667 48.470 C 361.667 50.026,361.669 50.036,362.233 50.600 L 362.800 51.167 368.275 51.169 C 373.694 51.172,374.488 51.245,374.032 51.701 C 373.863 51.870,372.681 51.906,368.533 51.867 C 361.442 51.800,361.763 51.600,361.726 56.105 C 361.696 59.780,361.481 60.272,360.547 58.797 L 359.989 57.917 360.036 51.615 L 360.083 45.314 360.500 44.994 C 361.089 44.542,375.501 44.486,376.139 44.933 M304.445 45.208 C 304.517 45.323,304.621 47.817,304.676 50.750 C 304.794 57.069,304.735 56.836,306.347 57.326 C 307.731 57.746,307.874 57.930,307.078 58.263 C 306.474 58.515,306.182 58.501,304.801 58.149 C 304.248 58.008,302.833 55.788,302.833 55.061 C 302.833 54.999,302.646 54.702,302.417 54.402 C 302.001 53.857,302.000 53.844,302.000 50.178 L 302.000 46.501 302.593 45.844 C 303.281 45.084,304.173 44.777,304.445 45.208 M159.417 48.414 C 159.417 50.711,159.396 50.738,158.000 50.306 C 156.396 49.811,156.423 49.836,156.366 48.740 C 156.285 47.195,156.366 47.047,157.460 46.736 C 157.986 46.587,158.526 46.360,158.661 46.232 C 159.198 45.720,159.417 46.350,159.417 48.414 M346.611 46.348 C 348.611 46.626,348.920 46.804,349.162 47.816 C 349.617 49.709,349.400 50.263,348.058 50.642 C 347.677 50.749,346.999 51.089,346.551 51.398 C 344.732 52.648,344.656 52.667,341.347 52.667 C 339.697 52.667,337.778 52.751,337.082 52.855 C 335.915 53.028,335.800 53.019,335.582 52.730 C 334.660 51.506,334.332 47.590,335.077 46.705 L 335.530 46.167 340.419 46.167 C 343.109 46.167,345.895 46.248,346.611 46.348 M351.148 46.897 C 351.438 47.206,351.954 48.701,351.994 49.347 C 351.997 49.400,351.656 49.690,351.237 49.992 C 350.341 50.635,350.178 50.555,349.985 49.383 C 349.578 46.913,350.105 45.787,351.148 46.897 M195.471 46.932 C 195.956 47.272,195.753 47.539,194.794 47.822 C 194.093 48.029,193.333 48.579,193.333 48.879 C 193.333 49.346,192.728 50.221,192.301 50.370 C 191.100 50.788,191.042 54.667,192.237 54.667 C 192.744 54.667,193.560 55.649,193.400 56.066 C 193.073 56.920,191.702 56.406,191.499 55.353 C 191.436 55.026,191.299 54.903,190.955 54.864 C 189.578 54.705,189.389 49.734,190.734 49.055 C 191.384 48.727,192.000 48.169,192.000 47.910 C 192.000 47.446,192.686 46.852,193.296 46.788 C 194.643 46.647,195.108 46.677,195.471 46.932 M260.996 49.123 C 261.319 49.603,261.903 50.265,262.293 50.595 C 262.816 51.037,263.052 51.392,263.191 51.946 C 263.295 52.359,263.567 52.918,263.794 53.188 C 264.273 53.758,264.061 54.178,263.083 54.590 C 262.537 54.820,256.067 54.919,255.733 54.702 C 255.066 54.269,255.043 53.534,255.673 52.742 C 255.952 52.391,256.464 51.499,256.811 50.760 C 257.504 49.285,257.653 49.121,258.801 48.565 C 259.953 48.006,260.305 48.096,260.996 49.123 M227.601 48.700 C 228.659 48.970,229.000 49.246,229.000 49.833 C 229.000 50.514,228.637 50.746,228.048 50.441 C 227.786 50.306,227.298 50.144,226.963 50.081 C 226.126 49.924,225.771 49.498,225.918 48.828 C 226.013 48.393,226.096 48.317,226.392 48.392 C 226.589 48.442,227.133 48.581,227.601 48.700 M256.405 48.929 C 256.832 49.356,256.310 50.671,255.239 51.864 C 254.834 52.315,254.634 52.753,254.484 53.516 C 254.365 54.118,254.149 54.665,253.969 54.819 C 253.798 54.964,253.492 55.242,253.288 55.435 C 252.281 56.390,250.667 56.671,250.667 55.893 C 250.667 55.333,251.616 53.533,252.060 53.250 C 252.348 53.067,252.733 52.608,252.917 52.231 C 253.395 51.246,253.646 51.000,254.175 51.000 C 254.780 51.000,255.167 50.603,255.167 49.982 C 255.167 48.984,255.866 48.389,256.405 48.929 M164.500 51.169 C 165.096 51.261,165.771 51.381,166.000 51.436 L 166.417 51.536 166.000 51.698 C 164.477 52.289,159.833 52.075,159.833 51.412 C 159.833 50.980,162.401 50.846,164.500 51.169 M231.130 51.259 C 231.609 51.595,231.597 51.796,231.085 52.030 C 230.382 52.350,228.987 51.569,229.444 51.111 C 229.653 50.902,230.759 51.000,231.130 51.259 M222.167 54.686 L 222.167 58.206 221.792 58.105 C 221.585 58.050,221.098 58.004,220.708 58.002 L 220.000 58.000 220.000 57.003 C 220.000 56.079,220.030 55.999,220.417 55.902 C 220.809 55.803,220.833 55.733,220.833 54.676 C 220.833 53.229,221.140 51.640,221.471 51.375 C 222.131 50.845,222.167 51.016,222.167 54.686 M349.268 51.335 C 349.498 51.565,349.113 53.792,348.786 54.118 C 348.566 54.338,348.368 54.323,347.043 53.984 L 345.548 53.601 346.062 53.342 C 346.345 53.200,346.740 52.821,346.940 52.500 C 347.719 51.248,348.694 50.760,349.268 51.335 M233.677 53.110 C 234.716 53.516,234.825 53.605,234.954 54.150 C 235.112 54.817,235.612 55.160,236.433 55.164 C 237.221 55.168,237.673 55.734,237.236 56.171 C 236.660 56.747,234.500 56.014,234.500 55.241 C 234.500 54.699,234.119 54.383,233.301 54.245 C 232.094 54.041,231.790 53.703,232.173 52.989 C 232.388 52.586,232.321 52.581,233.677 53.110 M213.894 53.147 C 214.379 53.551,214.292 57.914,213.792 58.227 C 212.143 59.261,210.555 58.541,210.861 56.897 C 211.084 55.695,210.962 54.903,210.432 54.122 L 210.039 53.543 210.645 53.183 C 211.349 52.764,213.404 52.741,213.894 53.147 M172.599 53.272 L 173.684 53.545 174.176 54.631 C 175.129 56.733,174.474 58.333,172.661 58.333 C 171.188 58.333,170.838 58.008,171.790 57.522 C 172.874 56.969,173.320 56.054,172.992 55.058 C 172.791 54.450,172.727 54.417,171.020 54.065 C 169.070 53.662,169.022 53.419,170.833 53.115 C 171.063 53.077,171.310 53.035,171.382 53.023 C 171.455 53.010,172.003 53.123,172.599 53.272 M350.865 55.375 C 350.981 55.581,351.159 56.125,351.262 56.583 C 351.365 57.042,351.504 57.542,351.571 57.695 C 351.717 58.030,351.147 58.667,350.703 58.667 C 349.922 58.667,349.388 55.738,350.077 55.234 C 350.510 54.917,350.620 54.937,350.865 55.375 M195.885 57.181 C 196.544 57.281,197.266 57.479,197.489 57.622 L 197.894 57.881 197.512 58.190 C 196.495 59.014,193.457 58.278,194.098 57.364 C 194.394 56.941,194.334 56.947,195.885 57.181 M249.967 57.200 C 250.264 57.498,250.210 57.900,249.803 58.417 L 249.440 58.879 249.137 58.504 C 248.521 57.744,249.295 56.528,249.967 57.200 M158.792 57.611 C 159.224 57.717,159.290 58.084,158.903 58.232 C 158.358 58.441,156.712 58.339,156.500 58.083 C 155.945 57.414,157.057 57.185,158.792 57.611 M168.167 59.785 L 169.083 59.900 168.417 60.024 C 167.551 60.184,163.445 60.198,162.583 60.043 L 161.917 59.924 162.583 59.819 C 163.531 59.670,167.080 59.648,168.167 59.785 M207.833 59.818 C 208.940 60.133,203.918 60.320,201.833 60.042 L 200.917 59.919 201.750 59.819 C 202.931 59.677,207.335 59.677,207.833 59.818 M315.435 59.784 C 316.194 59.894,316.216 59.909,315.750 60.014 C 315.082 60.165,310.694 60.192,310.167 60.049 L 309.750 59.935 310.167 59.818 C 310.724 59.660,314.412 59.637,315.435 59.784 M375.461 59.952 C 375.211 59.990,374.761 59.991,374.461 59.954 C 374.162 59.917,374.367 59.886,374.917 59.885 C 375.467 59.884,375.712 59.914,375.461 59.952 M383.448 64.774 C 383.211 65.012,306.362 65.148,165.945 65.160 C 42.545 65.171,17.886 65.210,17.445 65.397 C 16.276 65.892,16.193 66.412,17.180 67.055 C 17.722 67.407,153.413 67.454,295.667 67.152 L 384.250 66.963 384.616 66.607 L 384.982 66.250 384.637 65.458 C 384.306 64.703,383.807 64.415,383.448 64.774 M276.250 65.844 C 309.708 65.947,344.921 66.082,354.500 66.143 L 371.917 66.254 336.917 66.384 C 317.667 66.455,282.642 66.586,259.083 66.674 C 176.022 66.987,17.762 66.881,17.429 66.513 C 17.161 66.217,17.165 66.187,17.501 65.951 C 17.963 65.628,183.843 65.559,276.250 65.844 M383.958 66.286 C 383.706 66.324,383.294 66.324,383.042 66.286 C 382.790 66.248,382.996 66.217,383.500 66.217 C 384.004 66.217,384.210 66.248,383.958 66.286 " stroke="none" fill="#646464" fill-rule="evenodd"></path></g></svg>